<?xml version="1.0" standalone="no"?>
<!DOCTYPE svg PUBLIC "-//W3C//DTD SVG 1.1//EN" "http://www.w3.org/Graphics/SVG/1.1/DTD/svg11.dtd" >
<svg xmlns="http://www.w3.org/2000/svg" xmlns:xlink="http://www.w3.org/1999/xlink" version="1.1">
<metadata>
Created by FontForge 20200427 at Fri Oct 25 16:46:06 2019
 By www
Copyright (c) 2019 by 29Letters. All rights reserved.
</metadata>
<defs>
<font id="29LTBukraVariable" horiz-adv-x="0" >
  <font-face 
    font-family="29LT Bukra Variable"
    font-weight="400"
    font-stretch="normal"
    units-per-em="1000"
    panose-1="0 0 5 0 0 0 0 0 0 0"
    ascent="800"
    descent="-200"
    x-height="530"
    cap-height="811"
    bbox="-395 -418 1181 1069"
    underline-thickness="50"
    underline-position="-100"
    unicode-range="U+000D-FEFC"
  />
<missing-glyph horiz-adv-x="500" 
 />
    <glyph glyph-name="fi" unicode="fi" horiz-adv-x="370" 
d="M98 520h-78v10h78v135q0 69 30.5 107.5t96.5 38.5h75v-10h-75q-55 0 -86 -32.5t-31 -103.5v-135h192v-10h-192v-520h-10v520zM290 530h10v-530h-10v530z" />
    <glyph glyph-name="fl" unicode="fl" horiz-adv-x="388" 
d="M98 520h-78v10h78v135q0 69 30.5 107.5t96.5 38.5h93v-10h-93q-55 0 -86 -32.5t-31 -103.5v-135h119v-10h-119v-520h-10v520zM308 811h10v-811h-10v811z" />
    <glyph glyph-name="uniFC64" unicode="&#xfe8c;&#xfeae;" horiz-adv-x="469" arabic-form="final" 
d="M470 0q-41 0 -70 17.5t-44.5 50.5t-15.5 79v483h10v-482q0 -65 32 -101.5t88 -36.5h19v-10h-19zM120 530h230v-10h-230v10zM45 -220q-29 0 -65 10l3 10q17 -4 32.5 -6.5t29.5 -2.5q38 0 56.5 20t18.5 67v652h10v-653q0 -35 -9.5 -56t-28 -31t-47.5 -10zM303 805
q0 38 14 56.5t43 18.5h10v-10h-10q-24 0 -35 -15.5t-11 -49.5v-65h74v-10h-85v75z" />
    <glyph glyph-name="uniFC65" unicode="&#xfe8c;&#xfeb0;" horiz-adv-x="469" arabic-form="final" 
d="M470 0q-41 0 -70 17.5t-44.5 50.5t-15.5 79v483h10v-482q0 -65 32 -101.5t88 -36.5h19v-10h-19zM120 530h230v-10h-230v10zM45 -220q-29 0 -65 10l3 10q17 -4 32.5 -6.5t29.5 -2.5q38 0 56.5 20t18.5 67v652h10v-653q0 -35 -9.5 -56t-28 -31t-47.5 -10zM120 639v75.5
v74.5h5h5v-74.5v-75.5h-5h-5zM303 805q0 38 14 56.5t43 18.5h10v-10h-10q-24 0 -35 -15.5t-11 -49.5v-65h74v-10h-85v75z" />
    <glyph glyph-name="uniFC67" unicode="&#xfe8c;&#xfee6;" horiz-adv-x="740" arabic-form="final" 
d="M740 0q-68 0 -115 23.5t-70.5 70.5t-23.5 115v373h10v-371q0 -98 50.5 -149t148.5 -51h20v-11h-20zM316 462h225v-10h-225v10zM218 -125q-53 0 -86.5 18t-50 55.5t-16.5 96.5v417h11v-416q0 -83 35 -122t108 -39h92v577h10v-587h-103zM184 571v75.5v74.5h5h5v-74.5v-75.5
h-5h-5zM494 757q0 38 14 56.5t43 18.5h10v-10h-10q-24 0 -35 -15.5t-11 -49.5v-65h74v-10h-85v75z" />
    <glyph glyph-name="uniFC68" unicode="&#xfe8c;&#xfef0;" horiz-adv-x="690" arabic-form="final" 
d="M340 359q0 88 36.5 129.5t115.5 41.5h79v-10h-78q-73 0 -107.5 -39.5t-34.5 -122.5v-483h-11v484zM165 -125q-47 0 -73.5 26t-26.5 73v373h10v-368q0 -44 24.5 -69t67.5 -25h173l11 -10h-186zM691 0q-41 0 -70 17.5t-44.5 50.5t-15.5 79v483h10v-482q0 -65 32 -101.5
t88 -36.5h19v-10h-19zM524 805q0 38 14 56.5t43 18.5h10v-10h-10q-24 0 -35 -15.5t-11 -49.5v-65h74v-10h-85v75z" />
    <glyph glyph-name="uniFC69" unicode="&#xfe8c;&#xfef2;" horiz-adv-x="690" arabic-form="final" 
d="M340 359q0 88 36.5 129.5t115.5 41.5h79v-10h-78q-73 0 -107.5 -39.5t-34.5 -122.5v-483h-11v484zM165 -125q-47 0 -73.5 26t-26.5 73v373h10v-368q0 -44 24.5 -69t67.5 -25h173l11 -10h-186zM691 0q-41 0 -70 17.5t-44.5 50.5t-15.5 79v483h10v-482q0 -65 32 -101.5
t88 -36.5h19v-10h-19zM524 805q0 38 14 56.5t43 18.5h10v-10h-10q-24 0 -35 -15.5t-11 -49.5v-65h74v-10h-85v75zM165 -418v74.5v75.5h5.5h5.5v-75.5v-74.5h-5.5h-5.5zM275 -418v74.5v75.5h5.5h5.5v-75.5v-74.5h-5.5h-5.5z" />
    <glyph glyph-name="uniFC6A" unicode="&#xfe92;&#xfeae;" horiz-adv-x="469" arabic-form="final" 
d="M470 0q-41 0 -70 17.5t-44.5 50.5t-15.5 79v483h10v-482q0 -65 32 -101.5t88 -36.5h19v-10h-19zM120 530h230v-10h-230v10zM45 -220q-29 0 -65 10l3 10q17 -4 32.5 -6.5t29.5 -2.5q38 0 56.5 20t18.5 67v652h10v-653q0 -35 -9.5 -56t-28 -31t-47.5 -10zM258 -293v74.5
v75.5h5.5h5.5v-75.5v-74.5h-5.5h-5.5z" />
    <glyph glyph-name="uniFC6B" unicode="&#xfe92;&#xfeb0;" horiz-adv-x="469" arabic-form="final" 
d="M470 0q-41 0 -70 17.5t-44.5 50.5t-15.5 79v483h10v-482q0 -65 32 -101.5t88 -36.5h19v-10h-19zM120 530h230v-10h-230v10zM45 -220q-29 0 -65 10l3 10q17 -4 32.5 -6.5t29.5 -2.5q38 0 56.5 20t18.5 67v652h10v-653q0 -35 -9.5 -56t-28 -31t-47.5 -10zM258 -293v74.5
v75.5h5.5h5.5v-75.5v-74.5h-5.5h-5.5zM120 639v75.5v74.5h5h5v-74.5v-75.5h-5h-5z" />
    <glyph glyph-name="uniFC6D" unicode="&#xfe92;&#xfee6;" horiz-adv-x="740" arabic-form="final" 
d="M740 0q-68 0 -115 23.5t-70.5 70.5t-23.5 115v373h10v-371q0 -98 50.5 -149t148.5 -51h20v-11h-20zM316 462h225v-10h-225v10zM218 -125q-53 0 -86.5 18t-50 55.5t-16.5 96.5v417h11v-416q0 -83 35 -122t108 -39h92v577h10v-587h-103zM184 571v75.5v74.5h5h5v-74.5v-75.5
h-5h-5zM466 -293v74.5v75.5h5.5h5.5v-75.5v-74.5h-5.5h-5.5z" />
    <glyph glyph-name="uniFC6E" unicode="&#xfe92;&#xfef0;" horiz-adv-x="690" arabic-form="final" 
d="M340 359q0 88 36.5 129.5t115.5 41.5h79v-10h-78q-73 0 -107.5 -39.5t-34.5 -122.5v-483h-11v484zM165 -125q-47 0 -73.5 26t-26.5 73v373h10v-368q0 -44 24.5 -69t67.5 -25h173l11 -10h-186zM691 0q-41 0 -70 17.5t-44.5 50.5t-15.5 79v483h10v-482q0 -65 32 -101.5
t88 -36.5h19v-10h-19zM482 -293v74.5v75.5h5.5h5.5v-75.5v-74.5h-5.5h-5.5z" />
    <glyph glyph-name="uniFC6F" unicode="&#xfe92;&#xfef2;" horiz-adv-x="690" arabic-form="final" 
d="M340 359q0 88 36.5 129.5t115.5 41.5h79v-10h-78q-73 0 -107.5 -39.5t-34.5 -122.5v-483h-11v484zM165 -125q-47 0 -73.5 26t-26.5 73v373h10v-368q0 -44 24.5 -69t67.5 -25h173l11 -10h-186zM691 0q-41 0 -70 17.5t-44.5 50.5t-15.5 79v483h10v-482q0 -65 32 -101.5
t88 -36.5h19v-10h-19zM482 -293v74.5v75.5h5.5h5.5v-75.5v-74.5h-5.5h-5.5zM165 -418v74.5v75.5h5.5h5.5v-75.5v-74.5h-5.5h-5.5zM275 -418v74.5v75.5h5.5h5.5v-75.5v-74.5h-5.5h-5.5z" />
    <glyph glyph-name="uniFC70" unicode="&#xfe98;&#xfeae;" horiz-adv-x="469" arabic-form="final" 
d="M470 0q-41 0 -70 17.5t-44.5 50.5t-15.5 79v483h10v-482q0 -65 32 -101.5t88 -36.5h19v-10h-19zM120 530h230v-10h-230v10zM45 -220q-29 0 -65 10l3 10q17 -4 32.5 -6.5t29.5 -2.5q38 0 56.5 20t18.5 67v652h10v-653q0 -35 -9.5 -56t-28 -31t-47.5 -10zM285 739v75.5
v74.5h5.5h5.5v-74.5v-75.5h-5.5h-5.5zM395 739v75.5v74.5h5.5h5.5v-74.5v-75.5h-5.5h-5.5z" />
    <glyph glyph-name="uniFC71" unicode="&#xfe98;&#xfeb0;" horiz-adv-x="469" arabic-form="final" 
d="M470 0q-41 0 -70 17.5t-44.5 50.5t-15.5 79v483h10v-482q0 -65 32 -101.5t88 -36.5h19v-10h-19zM120 530h230v-10h-230v10zM45 -220q-29 0 -65 10l3 10q17 -4 32.5 -6.5t29.5 -2.5q38 0 56.5 20t18.5 67v652h10v-653q0 -35 -9.5 -56t-28 -31t-47.5 -10zM285 739v75.5
v74.5h5.5h5.5v-74.5v-75.5h-5.5h-5.5zM395 739v75.5v74.5h5.5h5.5v-74.5v-75.5h-5.5h-5.5zM120 639v75.5v74.5h5h5v-74.5v-75.5h-5h-5z" />
    <glyph glyph-name="uniFC73" unicode="&#xfe98;&#xfee6;" horiz-adv-x="740" arabic-form="final" 
d="M740 0q-68 0 -115 23.5t-70.5 70.5t-23.5 115v373h10v-371q0 -98 50.5 -149t148.5 -51h20v-11h-20zM316 462h225v-10h-225v10zM218 -125q-53 0 -86.5 18t-50 55.5t-16.5 96.5v417h11v-416q0 -83 35 -122t108 -39h92v577h10v-587h-103zM184 571v75.5v74.5h5h5v-74.5v-75.5
h-5h-5zM476 691v75.5v74.5h5.5h5.5v-74.5v-75.5h-5.5h-5.5zM586 691v75.5v74.5h5.5h5.5v-74.5v-75.5h-5.5h-5.5z" />
    <glyph glyph-name="uniFC74" unicode="&#xfe98;&#xfef0;" horiz-adv-x="690" arabic-form="final" 
d="M340 359q0 88 36.5 129.5t115.5 41.5h79v-10h-78q-73 0 -107.5 -39.5t-34.5 -122.5v-483h-11v484zM165 -125q-47 0 -73.5 26t-26.5 73v373h10v-368q0 -44 24.5 -69t67.5 -25h173l11 -10h-186zM691 0q-41 0 -70 17.5t-44.5 50.5t-15.5 79v483h10v-482q0 -65 32 -101.5
t88 -36.5h19v-10h-19zM506 739v75.5v74.5h5.5h5.5v-74.5v-75.5h-5.5h-5.5zM616 739v75.5v74.5h5.5h5.5v-74.5v-75.5h-5.5h-5.5z" />
    <glyph glyph-name="uniFC75" unicode="&#xfe98;&#xfef2;" horiz-adv-x="690" arabic-form="final" 
d="M340 359q0 88 36.5 129.5t115.5 41.5h79v-10h-78q-73 0 -107.5 -39.5t-34.5 -122.5v-483h-11v484zM165 -125q-47 0 -73.5 26t-26.5 73v373h10v-368q0 -44 24.5 -69t67.5 -25h173l11 -10h-186zM691 0q-41 0 -70 17.5t-44.5 50.5t-15.5 79v483h10v-482q0 -65 32 -101.5
t88 -36.5h19v-10h-19zM506 739v75.5v74.5h5.5h5.5v-74.5v-75.5h-5.5h-5.5zM616 739v75.5v74.5h5.5h5.5v-74.5v-75.5h-5.5h-5.5zM165 -418v74.5v75.5h5.5h5.5v-75.5v-74.5h-5.5h-5.5zM275 -418v74.5v75.5h5.5h5.5v-75.5v-74.5h-5.5h-5.5z" />
    <glyph glyph-name="uniFC76" unicode="&#xfe9c;&#xfeae;" horiz-adv-x="469" arabic-form="final" 
d="M470 0q-41 0 -70 17.5t-44.5 50.5t-15.5 79v483h10v-482q0 -65 32 -101.5t88 -36.5h19v-10h-19zM120 530h230v-10h-230v10zM45 -220q-29 0 -65 10l3 10q17 -4 32.5 -6.5t29.5 -2.5q38 0 56.5 20t18.5 67v652h10v-653q0 -35 -9.5 -56t-28 -31t-47.5 -10zM339 889v55v55
h5.5h5.5v-55v-55h-5.5h-5.5zM284 739v75.5v74.5h5.5h5.5v-74.5v-75.5h-5.5h-5.5zM394 739v75.5v74.5h5.5h5.5v-74.5v-75.5h-5.5h-5.5z" />
    <glyph glyph-name="uniFC77" unicode="&#xfe9c;&#xfeb0;" horiz-adv-x="469" arabic-form="final" 
d="M470 0q-41 0 -70 17.5t-44.5 50.5t-15.5 79v483h10v-482q0 -65 32 -101.5t88 -36.5h19v-10h-19zM120 530h230v-10h-230v10zM45 -220q-29 0 -65 10l3 10q17 -4 32.5 -6.5t29.5 -2.5q38 0 56.5 20t18.5 67v652h10v-653q0 -35 -9.5 -56t-28 -31t-47.5 -10zM120 639v75.5
v74.5h5h5v-74.5v-75.5h-5h-5zM339 889v55v55h5.5h5.5v-55v-55h-5.5h-5.5zM284 739v75.5v74.5h5.5h5.5v-74.5v-75.5h-5.5h-5.5zM394 739v75.5v74.5h5.5h5.5v-74.5v-75.5h-5.5h-5.5z" />
    <glyph glyph-name="uniFC79" unicode="&#xfe9c;&#xfee6;" horiz-adv-x="740" arabic-form="final" 
d="M740 0q-68 0 -115 23.5t-70.5 70.5t-23.5 115v373h10v-371q0 -98 50.5 -149t148.5 -51h20v-11h-20zM316 462h225v-10h-225v10zM218 -125q-53 0 -86.5 18t-50 55.5t-16.5 96.5v417h11v-416q0 -83 35 -122t108 -39h92v577h10v-587h-103zM184 571v75.5v74.5h5h5v-74.5v-75.5
h-5h-5zM530 841v55v55h5.5h5.5v-55v-55h-5.5h-5.5zM475 691v75.5v74.5h5.5h5.5v-74.5v-75.5h-5.5h-5.5zM585 691v75.5v74.5h5.5h5.5v-74.5v-75.5h-5.5h-5.5z" />
    <glyph glyph-name="uniFC7A" unicode="&#xfe9c;&#xfef0;" horiz-adv-x="690" arabic-form="final" 
d="M340 359q0 88 36.5 129.5t115.5 41.5h79v-10h-78q-73 0 -107.5 -39.5t-34.5 -122.5v-483h-11v484zM165 -125q-47 0 -73.5 26t-26.5 73v373h10v-368q0 -44 24.5 -69t67.5 -25h173l11 -10h-186zM691 0q-41 0 -70 17.5t-44.5 50.5t-15.5 79v483h10v-482q0 -65 32 -101.5
t88 -36.5h19v-10h-19zM560 889v55v55h5.5h5.5v-55v-55h-5.5h-5.5zM505 739v75.5v74.5h5.5h5.5v-74.5v-75.5h-5.5h-5.5zM615 739v75.5v74.5h5.5h5.5v-74.5v-75.5h-5.5h-5.5z" />
    <glyph glyph-name="uniFC7B" unicode="&#xfe9c;&#xfef2;" horiz-adv-x="690" arabic-form="final" 
d="M340 359q0 88 36.5 129.5t115.5 41.5h79v-10h-78q-73 0 -107.5 -39.5t-34.5 -122.5v-483h-11v484zM165 -125q-47 0 -73.5 26t-26.5 73v373h10v-368q0 -44 24.5 -69t67.5 -25h173l11 -10h-186zM691 0q-41 0 -70 17.5t-44.5 50.5t-15.5 79v483h10v-482q0 -65 32 -101.5
t88 -36.5h19v-10h-19zM560 889v55v55h5.5h5.5v-55v-55h-5.5h-5.5zM505 739v75.5v74.5h5.5h5.5v-74.5v-75.5h-5.5h-5.5zM615 739v75.5v74.5h5.5h5.5v-74.5v-75.5h-5.5h-5.5zM165 -418v74.5v75.5h5.5h5.5v-75.5v-74.5h-5.5h-5.5zM275 -418v74.5v75.5h5.5h5.5v-75.5v-74.5h-5.5
h-5.5z" />
    <glyph glyph-name="uniFC8A" unicode="&#xfee8;&#xfeae;" horiz-adv-x="469" arabic-form="final" 
d="M470 0q-41 0 -70 17.5t-44.5 50.5t-15.5 79v483h10v-482q0 -65 32 -101.5t88 -36.5h19v-10h-19zM120 530h230v-10h-230v10zM45 -220q-29 0 -65 10l3 10q17 -4 32.5 -6.5t29.5 -2.5q38 0 56.5 20t18.5 67v652h10v-653q0 -35 -9.5 -56t-28 -31t-47.5 -10zM340 739v75.5
v74.5h5h5v-74.5v-75.5h-5h-5z" />
    <glyph glyph-name="uniFC8B" unicode="&#xfee8;&#xfeb0;" horiz-adv-x="469" arabic-form="final" 
d="M470 0q-41 0 -70 17.5t-44.5 50.5t-15.5 79v483h10v-482q0 -65 32 -101.5t88 -36.5h19v-10h-19zM120 530h230v-10h-230v10zM45 -220q-29 0 -65 10l3 10q17 -4 32.5 -6.5t29.5 -2.5q38 0 56.5 20t18.5 67v652h10v-653q0 -35 -9.5 -56t-28 -31t-47.5 -10zM340 739v75.5
v74.5h5h5v-74.5v-75.5h-5h-5zM120 639v75.5v74.5h5h5v-74.5v-75.5h-5h-5z" />
    <glyph glyph-name="uniFC8D" unicode="&#xfee8;&#xfee6;" horiz-adv-x="740" arabic-form="final" 
d="M740 0q-68 0 -115 23.5t-70.5 70.5t-23.5 115v373h10v-371q0 -98 50.5 -149t148.5 -51h20v-11h-20zM316 462h225v-10h-225v10zM218 -125q-53 0 -86.5 18t-50 55.5t-16.5 96.5v417h11v-416q0 -83 35 -122t108 -39h92v577h10v-587h-103zM184 571v75.5v74.5h5h5v-74.5v-75.5
h-5h-5zM531 691v75.5v74.5h5h5v-74.5v-75.5h-5h-5z" />
    <glyph glyph-name="uniFC8E" unicode="&#xfee8;&#xfef0;" horiz-adv-x="690" arabic-form="final" 
d="M340 359q0 88 36.5 129.5t115.5 41.5h79v-10h-78q-73 0 -107.5 -39.5t-34.5 -122.5v-483h-11v484zM165 -125q-47 0 -73.5 26t-26.5 73v373h10v-368q0 -44 24.5 -69t67.5 -25h173l11 -10h-186zM691 0q-41 0 -70 17.5t-44.5 50.5t-15.5 79v483h10v-482q0 -65 32 -101.5
t88 -36.5h19v-10h-19zM561 739v75.5v74.5h5h5v-74.5v-75.5h-5h-5z" />
    <glyph glyph-name="uniFC8F" unicode="&#xfee8;&#xfef2;" horiz-adv-x="690" arabic-form="final" 
d="M340 359q0 88 36.5 129.5t115.5 41.5h79v-10h-78q-73 0 -107.5 -39.5t-34.5 -122.5v-483h-11v484zM165 -125q-47 0 -73.5 26t-26.5 73v373h10v-368q0 -44 24.5 -69t67.5 -25h173l11 -10h-186zM691 0q-41 0 -70 17.5t-44.5 50.5t-15.5 79v483h10v-482q0 -65 32 -101.5
t88 -36.5h19v-10h-19zM561 739v75.5v74.5h5h5v-74.5v-75.5h-5h-5zM165 -418v74.5v75.5h5.5h5.5v-75.5v-74.5h-5.5h-5.5zM275 -418v74.5v75.5h5.5h5.5v-75.5v-74.5h-5.5h-5.5z" />
    <glyph glyph-name="uniFC91" unicode="&#xfef4;&#xfeae;" horiz-adv-x="469" arabic-form="final" 
d="M470 0q-41 0 -70 17.5t-44.5 50.5t-15.5 79v483h10v-482q0 -65 32 -101.5t88 -36.5h19v-10h-19zM120 530h230v-10h-230v10zM45 -220q-29 0 -65 10l3 10q17 -4 32.5 -6.5t29.5 -2.5q38 0 56.5 20t18.5 67v652h10v-653q0 -35 -9.5 -56t-28 -31t-47.5 -10zM234 -293v74.5
v75.5h5.5h5.5v-75.5v-74.5h-5.5h-5.5zM344 -293v74.5v75.5h5.5h5.5v-75.5v-74.5h-5.5h-5.5z" />
    <glyph glyph-name="uniFC92" unicode="&#xfef4;&#xfeb0;" horiz-adv-x="469" arabic-form="final" 
d="M470 0q-41 0 -70 17.5t-44.5 50.5t-15.5 79v483h10v-482q0 -65 32 -101.5t88 -36.5h19v-10h-19zM120 530h230v-10h-230v10zM45 -220q-29 0 -65 10l3 10q17 -4 32.5 -6.5t29.5 -2.5q38 0 56.5 20t18.5 67v652h10v-653q0 -35 -9.5 -56t-28 -31t-47.5 -10zM234 -293v74.5
v75.5h5.5h5.5v-75.5v-74.5h-5.5h-5.5zM344 -293v74.5v75.5h5.5h5.5v-75.5v-74.5h-5.5h-5.5zM120 639v75.5v74.5h5h5v-74.5v-75.5h-5h-5z" />
    <glyph glyph-name="uniFC94" unicode="&#xfef4;&#xfee6;" horiz-adv-x="740" arabic-form="final" 
d="M740 0q-68 0 -115 23.5t-70.5 70.5t-23.5 115v373h10v-371q0 -98 50.5 -149t148.5 -51h20v-11h-20zM316 462h225v-10h-225v10zM218 -125q-53 0 -86.5 18t-50 55.5t-16.5 96.5v417h11v-416q0 -83 35 -122t108 -39h92v577h10v-587h-103zM184 571v75.5v74.5h5h5v-74.5v-75.5
h-5h-5zM412 -293v74.5v75.5h5.5h5.5v-75.5v-74.5h-5.5h-5.5zM522 -293v74.5v75.5h5.5h5.5v-75.5v-74.5h-5.5h-5.5z" />
    <glyph glyph-name="uniFCFB" unicode="&#xfeb3;&#xfef0;" horiz-adv-x="1106" arabic-form="isolated" 
d="M926 -10q-41 0 -70 17.5t-44 50.5t-15 79v325h9v-324q0 -64 32 -100.5t88 -36.5q54 0 79.5 33.5t25.5 103.5v403h10v-404q0 -76 -28 -111.5t-87 -35.5zM691 -9q-41 0 -70 17.5t-44 50.5t-15 79v492h10v-491q0 -65 31.5 -101t87.5 -36q54 0 79.5 33.5t25.5 103.5v323h9
v-324q0 -51 -12 -83.5t-37 -48t-65 -15.5zM341 459q0 88 36.5 129.5t115.5 41.5h79v-10h-78q-73 0 -107.5 -39.5t-34.5 -122.5v-583h-11v584zM165 -125q-47 0 -73.5 26t-26.5 73v373h10v-368q0 -44 24.5 -69t67.5 -25h185v-10h-187z" />
    <glyph glyph-name="uniFCFC" unicode="&#xfeb3;&#xfef2;" horiz-adv-x="1106" arabic-form="isolated" 
d="M926 -10q-41 0 -70 17.5t-44 50.5t-15 79v325h9v-324q0 -64 32 -100.5t88 -36.5q54 0 79.5 33.5t25.5 103.5v403h10v-404q0 -76 -28 -111.5t-87 -35.5zM691 -9q-41 0 -70 17.5t-44 50.5t-15 79v492h10v-491q0 -65 31.5 -101t87.5 -36q54 0 79.5 33.5t25.5 103.5v323h9
v-324q0 -51 -12 -83.5t-37 -48t-65 -15.5zM341 459q0 88 36.5 129.5t115.5 41.5h79v-10h-78q-73 0 -107.5 -39.5t-34.5 -122.5v-583h-11v584zM165 -125q-47 0 -73.5 26t-26.5 73v373h10v-368q0 -44 24.5 -69t67.5 -25h185v-10h-187zM165 -418v74.5v75.5h5.5h5.5v-75.5v-74.5
h-5.5h-5.5zM275 -418v74.5v75.5h5.5h5.5v-75.5v-74.5h-5.5h-5.5z" />
    <glyph glyph-name="uniFCFD" unicode="&#xfeb7;&#xfef0;" horiz-adv-x="1106" arabic-form="isolated" 
d="M926 -10q-41 0 -70 17.5t-44 50.5t-15 79v325h9v-324q0 -64 32 -100.5t88 -36.5q54 0 79.5 33.5t25.5 103.5v403h10v-404q0 -76 -28 -111.5t-87 -35.5zM691 -9q-41 0 -70 17.5t-44 50.5t-15 79v492h10v-491q0 -65 31.5 -101t87.5 -36q54 0 79.5 33.5t25.5 103.5v323h9
v-324q0 -51 -12 -83.5t-37 -48t-65 -15.5zM341 459q0 88 36.5 129.5t115.5 41.5h79v-10h-78q-73 0 -107.5 -39.5t-34.5 -122.5v-583h-11v584zM165 -125q-47 0 -73.5 26t-26.5 73v373h10v-368q0 -44 24.5 -69t67.5 -25h185v-10h-187zM795 721v55v55h5.5h5.5v-55v-55h-5.5
h-5.5zM740 571v75.5v74.5h5.5h5.5v-74.5v-75.5h-5.5h-5.5zM850 571v75.5v74.5h5.5h5.5v-74.5v-75.5h-5.5h-5.5z" />
    <glyph glyph-name="uniFCFE" unicode="&#xfeb7;&#xfef2;" horiz-adv-x="1106" arabic-form="isolated" 
d="M926 -10q-41 0 -70 17.5t-44 50.5t-15 79v325h9v-324q0 -64 32 -100.5t88 -36.5q54 0 79.5 33.5t25.5 103.5v403h10v-404q0 -76 -28 -111.5t-87 -35.5zM691 -9q-41 0 -70 17.5t-44 50.5t-15 79v492h10v-491q0 -65 31.5 -101t87.5 -36q54 0 79.5 33.5t25.5 103.5v323h9
v-324q0 -51 -12 -83.5t-37 -48t-65 -15.5zM341 459q0 88 36.5 129.5t115.5 41.5h79v-10h-78q-73 0 -107.5 -39.5t-34.5 -122.5v-583h-11v584zM165 -125q-47 0 -73.5 26t-26.5 73v373h10v-368q0 -44 24.5 -69t67.5 -25h185v-10h-187zM795 721v55v55h5.5h5.5v-55v-55h-5.5
h-5.5zM740 571v75.5v74.5h5.5h5.5v-74.5v-75.5h-5.5h-5.5zM850 571v75.5v74.5h5.5h5.5v-74.5v-75.5h-5.5h-5.5zM165 -418v74.5v75.5h5.5h5.5v-75.5v-74.5h-5.5h-5.5zM275 -418v74.5v75.5h5.5h5.5v-75.5v-74.5h-5.5h-5.5z" />
    <glyph glyph-name="uniFD05" unicode="&#xfebb;&#xfef0;" horiz-adv-x="973" arabic-form="isolated" 
d="M692 0q-41 0 -70 17.5t-44.5 50.5t-15.5 79v483h10v-482q0 -65 32 -101.5t88 -36.5h206v386q0 64 -31.5 94t-90.5 30h-214v10h216q64 0 97 -33t33 -96v-401h-216zM341 459q0 88 36.5 129.5t115.5 41.5h79v-10h-78q-73 0 -107.5 -39.5t-34.5 -122.5v-583h-11v584z
M165 -125q-47 0 -73.5 26t-26.5 73v373h10v-368q0 -44 24.5 -69t67.5 -25h185v-10h-187z" />
    <glyph glyph-name="uniFD06" unicode="&#xfebb;&#xfef2;" horiz-adv-x="973" arabic-form="isolated" 
d="M692 0q-41 0 -70 17.5t-44.5 50.5t-15.5 79v483h10v-482q0 -65 32 -101.5t88 -36.5h206v386q0 64 -31.5 94t-90.5 30h-214v10h216q64 0 97 -33t33 -96v-401h-216zM341 459q0 88 36.5 129.5t115.5 41.5h79v-10h-78q-73 0 -107.5 -39.5t-34.5 -122.5v-583h-11v584z
M165 -125q-47 0 -73.5 26t-26.5 73v373h10v-368q0 -44 24.5 -69t67.5 -25h185v-10h-187zM165 -418v74.5v75.5h5.5h5.5v-75.5v-74.5h-5.5h-5.5zM275 -418v74.5v75.5h5.5h5.5v-75.5v-74.5h-5.5h-5.5z" />
    <glyph glyph-name="uniFD07" unicode="&#xfebf;&#xfef0;" horiz-adv-x="973" arabic-form="isolated" 
d="M692 0q-41 0 -70 17.5t-44.5 50.5t-15.5 79v483h10v-482q0 -65 32 -101.5t88 -36.5h206v386q0 64 -31.5 94t-90.5 30h-214v10h216q64 0 97 -33t33 -96v-401h-216zM341 459q0 88 36.5 129.5t115.5 41.5h79v-10h-78q-73 0 -107.5 -39.5t-34.5 -122.5v-583h-11v584z
M165 -125q-47 0 -73.5 26t-26.5 73v373h10v-368q0 -44 24.5 -69t67.5 -25h185v-10h-187zM764 639v75.5v74.5h5h5v-74.5v-75.5h-5h-5z" />
    <glyph glyph-name="uniFD08" unicode="&#xfebf;&#xfef2;" horiz-adv-x="973" arabic-form="isolated" 
d="M692 0q-41 0 -70 17.5t-44.5 50.5t-15.5 79v483h10v-482q0 -65 32 -101.5t88 -36.5h206v386q0 64 -31.5 94t-90.5 30h-214v10h216q64 0 97 -33t33 -96v-401h-216zM341 459q0 88 36.5 129.5t115.5 41.5h79v-10h-78q-73 0 -107.5 -39.5t-34.5 -122.5v-583h-11v584z
M165 -125q-47 0 -73.5 26t-26.5 73v373h10v-368q0 -44 24.5 -69t67.5 -25h185v-10h-187zM764 639v75.5v74.5h5h5v-74.5v-75.5h-5h-5zM165 -418v74.5v75.5h5.5h5.5v-75.5v-74.5h-5.5h-5.5zM275 -418v74.5v75.5h5.5h5.5v-75.5v-74.5h-5.5h-5.5z" />
    <glyph glyph-name="uniFD0D" unicode="&#xfeb7;&#xfeae;" horiz-adv-x="885" arabic-form="isolated" 
d="M45 -220q-29 0 -65 10l3 10q17 -4 32.5 -6.5t29.5 -2.5q38 0 56.5 20t18.5 67v702h10v-703q0 -35 -9.5 -56t-28 -31t-47.5 -10zM705 -10q-41 0 -70 17.5t-44 50.5t-15 79v325h9v-324q0 -64 32 -100.5t88 -36.5q54 0 79.5 33.5t25.5 103.5v403h10v-404q0 -76 -28 -111.5
t-87 -35.5zM120 462h230v-10h-220zM470 -9q-41 0 -70 17.5t-44.5 50.5t-15.5 79v324h10v-323q0 -64 32 -100.5t88 -36.5q54 0 79.5 33.5t25.5 103.5v323h9v-324q0 -51 -12 -83.5t-37 -48t-65 -15.5zM574 721v55v55h5.5h5.5v-55v-55h-5.5h-5.5zM519 571v75.5v74.5h5.5h5.5
v-74.5v-75.5h-5.5h-5.5zM629 571v75.5v74.5h5.5h5.5v-74.5v-75.5h-5.5h-5.5z" />
    <glyph glyph-name="uniFD0E" unicode="&#xfeb3;&#xfeae;" horiz-adv-x="885" arabic-form="isolated" 
d="M45 -220q-29 0 -65 10l3 10q17 -4 32.5 -6.5t29.5 -2.5q38 0 56.5 20t18.5 67v702h10v-703q0 -35 -9.5 -56t-28 -31t-47.5 -10zM705 -10q-41 0 -70 17.5t-44 50.5t-15 79v325h9v-324q0 -64 32 -100.5t88 -36.5q54 0 79.5 33.5t25.5 103.5v403h10v-404q0 -76 -28 -111.5
t-87 -35.5zM120 462h230v-10h-220zM470 -9q-41 0 -70 17.5t-44.5 50.5t-15.5 79v324h10v-323q0 -64 32 -100.5t88 -36.5q54 0 79.5 33.5t25.5 103.5v323h9v-324q0 -51 -12 -83.5t-37 -48t-65 -15.5z" />
    <glyph glyph-name="uniFD17" unicode="&#xfeb4;&#xfef0;" horiz-adv-x="1138" arabic-form="final" 
d="M1138 0q-37 0 -60 22t-33.5 63t-9.5 99l6 26q0 -68 10.5 -112t32 -66t54.5 -22h20v-10h-20zM926 -10q-41 0 -70 17.5t-44 50.5t-15 79v325h9v-324q0 -64 32 -100.5t88 -36.5q54 0 79.5 33.5t25.5 103.5v403h10v-404q0 -76 -28 -111.5t-87 -35.5zM691 -9q-41 0 -70 17.5
t-44 50.5t-15 79v492h10v-491q0 -65 31.5 -101t87.5 -36q54 0 79.5 33.5t25.5 103.5v323h9v-324q0 -51 -12 -83.5t-37 -48t-65 -15.5zM341 459q0 88 36.5 129.5t115.5 41.5h79v-10h-78q-73 0 -107.5 -39.5t-34.5 -122.5v-583h-11v584zM165 -125q-47 0 -73.5 26t-26.5 73v373
h10v-368q0 -44 24.5 -69t67.5 -25h185v-10h-187z" />
    <glyph glyph-name="uniFD18" unicode="&#xfeb4;&#xfef2;" horiz-adv-x="1138" arabic-form="final" 
d="M1138 0q-37 0 -60 22t-33.5 63t-9.5 99l6 26q0 -68 10.5 -112t32 -66t54.5 -22h20v-10h-20zM926 -10q-41 0 -70 17.5t-44 50.5t-15 79v325h9v-324q0 -64 32 -100.5t88 -36.5q54 0 79.5 33.5t25.5 103.5v403h10v-404q0 -76 -28 -111.5t-87 -35.5zM691 -9q-41 0 -70 17.5
t-44 50.5t-15 79v492h10v-491q0 -65 31.5 -101t87.5 -36q54 0 79.5 33.5t25.5 103.5v323h9v-324q0 -51 -12 -83.5t-37 -48t-65 -15.5zM341 459q0 88 36.5 129.5t115.5 41.5h79v-10h-78q-73 0 -107.5 -39.5t-34.5 -122.5v-583h-11v584zM165 -125q-47 0 -73.5 26t-26.5 73v373
h10v-368q0 -44 24.5 -69t67.5 -25h185v-10h-187zM165 -418v74.5v75.5h5.5h5.5v-75.5v-74.5h-5.5h-5.5zM275 -418v74.5v75.5h5.5h5.5v-75.5v-74.5h-5.5h-5.5z" />
    <glyph glyph-name="uniFD19" unicode="&#xfeb8;&#xfef0;" horiz-adv-x="1138" arabic-form="final" 
d="M1138 0q-37 0 -60 22t-33.5 63t-9.5 99l6 26q0 -68 10.5 -112t32 -66t54.5 -22h20v-10h-20zM926 -10q-41 0 -70 17.5t-44 50.5t-15 79v325h9v-324q0 -64 32 -100.5t88 -36.5q54 0 79.5 33.5t25.5 103.5v403h10v-404q0 -76 -28 -111.5t-87 -35.5zM691 -9q-41 0 -70 17.5
t-44 50.5t-15 79v492h10v-491q0 -65 31.5 -101t87.5 -36q54 0 79.5 33.5t25.5 103.5v323h9v-324q0 -51 -12 -83.5t-37 -48t-65 -15.5zM341 459q0 88 36.5 129.5t115.5 41.5h79v-10h-78q-73 0 -107.5 -39.5t-34.5 -122.5v-583h-11v584zM165 -125q-47 0 -73.5 26t-26.5 73v373
h10v-368q0 -44 24.5 -69t67.5 -25h185v-10h-187zM795 721v55v55h5.5h5.5v-55v-55h-5.5h-5.5zM740 571v75.5v74.5h5.5h5.5v-74.5v-75.5h-5.5h-5.5zM850 571v75.5v74.5h5.5h5.5v-74.5v-75.5h-5.5h-5.5z" />
    <glyph glyph-name="uniFD1A" unicode="&#xfeb8;&#xfef2;" horiz-adv-x="1138" arabic-form="final" 
d="M1138 0q-37 0 -60 22t-33.5 63t-9.5 99l6 26q0 -68 10.5 -112t32 -66t54.5 -22h20v-10h-20zM926 -10q-41 0 -70 17.5t-44 50.5t-15 79v325h9v-324q0 -64 32 -100.5t88 -36.5q54 0 79.5 33.5t25.5 103.5v403h10v-404q0 -76 -28 -111.5t-87 -35.5zM691 -9q-41 0 -70 17.5
t-44 50.5t-15 79v492h10v-491q0 -65 31.5 -101t87.5 -36q54 0 79.5 33.5t25.5 103.5v323h9v-324q0 -51 -12 -83.5t-37 -48t-65 -15.5zM341 459q0 88 36.5 129.5t115.5 41.5h79v-10h-78q-73 0 -107.5 -39.5t-34.5 -122.5v-583h-11v584zM165 -125q-47 0 -73.5 26t-26.5 73v373
h10v-368q0 -44 24.5 -69t67.5 -25h185v-10h-187zM795 721v55v55h5.5h5.5v-55v-55h-5.5h-5.5zM740 571v75.5v74.5h5.5h5.5v-74.5v-75.5h-5.5h-5.5zM850 571v75.5v74.5h5.5h5.5v-74.5v-75.5h-5.5h-5.5zM165 -418v74.5v75.5h5.5h5.5v-75.5v-74.5h-5.5h-5.5zM275 -418v74.5v75.5
h5.5h5.5v-75.5v-74.5h-5.5h-5.5z" />
    <glyph glyph-name="uniFD21" unicode="&#xfebc;&#xfef0;" horiz-adv-x="1004" arabic-form="final" 
d="M899 10h125v-10h-125v10zM692 0q-41 0 -70 17.5t-44.5 50.5t-15.5 79v483h10v-482q0 -65 32 -101.5t88 -36.5h206v386q0 64 -31.5 94t-90.5 30h-214v10h216q64 0 97 -33t33 -96v-401h-216zM341 459q0 88 36.5 129.5t115.5 41.5h79v-10h-78q-73 0 -107.5 -39.5
t-34.5 -122.5v-583h-11v584zM165 -125q-47 0 -73.5 26t-26.5 73v373h10v-368q0 -44 24.5 -69t67.5 -25h185v-10h-187z" />
    <glyph glyph-name="uniFD22" unicode="&#xfebc;&#xfef2;" horiz-adv-x="1004" arabic-form="final" 
d="M899 10h125v-10h-125v10zM692 0q-41 0 -70 17.5t-44.5 50.5t-15.5 79v483h10v-482q0 -65 32 -101.5t88 -36.5h206v386q0 64 -31.5 94t-90.5 30h-214v10h216q64 0 97 -33t33 -96v-401h-216zM341 459q0 88 36.5 129.5t115.5 41.5h79v-10h-78q-73 0 -107.5 -39.5
t-34.5 -122.5v-583h-11v584zM165 -125q-47 0 -73.5 26t-26.5 73v373h10v-368q0 -44 24.5 -69t67.5 -25h185v-10h-187zM165 -418v74.5v75.5h5.5h5.5v-75.5v-74.5h-5.5h-5.5zM275 -418v74.5v75.5h5.5h5.5v-75.5v-74.5h-5.5h-5.5z" />
    <glyph glyph-name="uniFD23" unicode="&#xfec0;&#xfef0;" horiz-adv-x="1004" arabic-form="final" 
d="M899 10h125v-10h-125v10zM692 0q-41 0 -70 17.5t-44.5 50.5t-15.5 79v483h10v-482q0 -65 32 -101.5t88 -36.5h206v386q0 64 -31.5 94t-90.5 30h-214v10h216q64 0 97 -33t33 -96v-401h-216zM341 459q0 88 36.5 129.5t115.5 41.5h79v-10h-78q-73 0 -107.5 -39.5
t-34.5 -122.5v-583h-11v584zM165 -125q-47 0 -73.5 26t-26.5 73v373h10v-368q0 -44 24.5 -69t67.5 -25h185v-10h-187zM764 639v75.5v74.5h5h5v-74.5v-75.5h-5h-5z" />
    <glyph glyph-name="uniFD24" unicode="&#xfec0;&#xfef2;" horiz-adv-x="1004" arabic-form="final" 
d="M899 10h125v-10h-125v10zM692 0q-41 0 -70 17.5t-44.5 50.5t-15.5 79v483h10v-482q0 -65 32 -101.5t88 -36.5h206v386q0 64 -31.5 94t-90.5 30h-214v10h216q64 0 97 -33t33 -96v-401h-216zM341 459q0 88 36.5 129.5t115.5 41.5h79v-10h-78q-73 0 -107.5 -39.5
t-34.5 -122.5v-583h-11v584zM165 -125q-47 0 -73.5 26t-26.5 73v373h10v-368q0 -44 24.5 -69t67.5 -25h185v-10h-187zM764 639v75.5v74.5h5h5v-74.5v-75.5h-5h-5zM165 -418v74.5v75.5h5.5h5.5v-75.5v-74.5h-5.5h-5.5zM275 -418v74.5v75.5h5.5h5.5v-75.5v-74.5h-5.5h-5.5z
" />
    <glyph glyph-name="uniFD29" unicode="&#xfeb8;&#xfeae;" horiz-adv-x="917" arabic-form="final" 
d="M917 0q-37 0 -60 22t-33.5 63t-9.5 99l6 26q0 -68 10.5 -112t32 -66t54.5 -22h20v-10h-20zM45 -220q-29 0 -65 10l3 10q17 -4 32.5 -6.5t29.5 -2.5q38 0 56.5 20t18.5 67v702h10v-703q0 -35 -9.5 -56t-28 -31t-47.5 -10zM705 -10q-41 0 -70 17.5t-44 50.5t-15 79v325h9
v-324q0 -64 32 -100.5t88 -36.5q54 0 79.5 33.5t25.5 103.5v403h10v-404q0 -76 -28 -111.5t-87 -35.5zM120 462h230v-10h-220zM470 -9q-41 0 -70 17.5t-44.5 50.5t-15.5 79v324h10v-323q0 -64 32 -100.5t88 -36.5q54 0 79.5 33.5t25.5 103.5v323h9v-324q0 -51 -12 -83.5
t-37 -48t-65 -15.5zM574 721v55v55h5.5h5.5v-55v-55h-5.5h-5.5zM519 571v75.5v74.5h5.5h5.5v-74.5v-75.5h-5.5h-5.5zM629 571v75.5v74.5h5.5h5.5v-74.5v-75.5h-5.5h-5.5z" />
    <glyph glyph-name="uniFD2A" unicode="&#xfeb4;&#xfeae;" horiz-adv-x="917" arabic-form="final" 
d="M917 0q-37 0 -60 22t-33.5 63t-9.5 99l6 26q0 -68 10.5 -112t32 -66t54.5 -22h20v-10h-20zM45 -220q-29 0 -65 10l3 10q17 -4 32.5 -6.5t29.5 -2.5q38 0 56.5 20t18.5 67v702h10v-703q0 -35 -9.5 -56t-28 -31t-47.5 -10zM705 -10q-41 0 -70 17.5t-44 50.5t-15 79v325h9
v-324q0 -64 32 -100.5t88 -36.5q54 0 79.5 33.5t25.5 103.5v403h10v-404q0 -76 -28 -111.5t-87 -35.5zM120 462h230v-10h-220zM470 -9q-41 0 -70 17.5t-44.5 50.5t-15.5 79v324h10v-323q0 -64 32 -100.5t88 -36.5q54 0 79.5 33.5t25.5 103.5v323h9v-324q0 -51 -12 -83.5
t-37 -48t-65 -15.5z" />
    <glyph glyph-name="uniFEF5" unicode="&#xfedf;&#xfe82;" horiz-adv-x="491" arabic-form="isolated" 
d="M35 10h244q59 0 90.5 30t31.5 94v751h10v-756q0 -63 -33 -96t-97 -33h-245zM191 684h10v-584h-10v584zM144 754h105v-10h-105v10z" />
    <glyph glyph-name="uniFEF6" unicode="&#xfee0;&#xfe82;" horiz-adv-x="508" arabic-form="final" 
d="M508 0q-37 0 -60 22t-33.5 63t-9.5 99l6 26q0 -68 10.5 -112t32 -66t54.5 -22h20v-10h-20zM35 10h244q59 0 90.5 30t31.5 94v751h10v-756q0 -63 -33 -96t-97 -33h-245zM191 684h10v-584h-10v584zM144 754h105v-10h-105v10z" />
    <glyph glyph-name="uniFEF7" unicode="&#xfedf;&#xfe84;" horiz-adv-x="491" arabic-form="isolated" 
d="M35 10h244q59 0 90.5 30t31.5 94v751h10v-756q0 -63 -33 -96t-97 -33h-245zM191 684h10v-584h-10v584zM155 859q0 38 14 56.5t43 18.5h10v-10h-10q-24 0 -35 -15.5t-11 -49.5v-65h74v-10h-85v75z" />
    <glyph glyph-name="uniFEF8" unicode="&#xfee0;&#xfe84;" horiz-adv-x="508" arabic-form="final" 
d="M508 0q-37 0 -60 22t-33.5 63t-9.5 99l6 26q0 -68 10.5 -112t32 -66t54.5 -22h20v-10h-20zM35 10h244q59 0 90.5 30t31.5 94v751h10v-756q0 -63 -33 -96t-97 -33h-245zM191 684h10v-584h-10v584zM155 859q0 38 14 56.5t43 18.5h10v-10h-10q-24 0 -35 -15.5t-11 -49.5v-65
h74v-10h-85v75z" />
    <glyph glyph-name="uniFEF9" unicode="&#xfedf;&#xfe88;" horiz-adv-x="491" arabic-form="isolated" 
d="M35 10h244q59 0 90.5 30t31.5 94v751h10v-756q0 -63 -33 -96t-97 -33h-245zM191 684h10v-584h-10v584zM179 -155q0 38 14 56.5t43 18.5h10v-10h-10q-24 0 -35 -15.5t-11 -49.5v-65h74v-10h-85v75z" />
    <glyph glyph-name="uniFEFA" unicode="&#xfee0;&#xfe88;" horiz-adv-x="508" arabic-form="final" 
d="M508 0q-37 0 -60 22t-33.5 63t-9.5 99l6 26q0 -68 10.5 -112t32 -66t54.5 -22h20v-10h-20zM35 10h244q59 0 90.5 30t31.5 94v751h10v-756q0 -63 -33 -96t-97 -33h-245zM191 684h10v-584h-10v584zM179 -155q0 38 14 56.5t43 18.5h10v-10h-10q-24 0 -35 -15.5t-11 -49.5
v-65h74v-10h-85v75z" />
    <glyph glyph-name="uniFEFB" unicode="&#xfedf;&#xfe8e;" horiz-adv-x="491" arabic-form="isolated" 
d="M35 10h244q59 0 90.5 30t31.5 94v751h10v-756q0 -63 -33 -96t-97 -33h-245zM191 684h10v-584h-10v584z" />
    <glyph glyph-name="uniFEFC" unicode="&#xfee0;&#xfe8e;" horiz-adv-x="508" arabic-form="final" 
d="M508 0q-37 0 -60 22t-33.5 63t-9.5 99l6 26q0 -68 10.5 -112t32 -66t54.5 -22h20v-10h-20zM35 10h244q59 0 90.5 30t31.5 94v751h10v-756q0 -63 -33 -96t-97 -33h-245zM191 684h10v-584h-10v584z" />
    <glyph glyph-name="f_b.liga" unicode="fb" horiz-adv-x="619" 
d="M98 520h-78v10h78v135q0 69 30.5 107.5t96.5 38.5h93v-10h-93q-55 0 -86 -32.5t-31 -103.5v-135h119v-10h-119v-520h-10v520zM441 -11q-30 0 -64.5 6.5t-68.5 19.5v796h10v-293q31 12 62.5 17.5t60.5 5.5q40 0 68.5 -15t44 -47.5t15.5 -84.5v-258q0 -52 -15.5 -84.5
t-44 -47.5t-68.5 -15zM441 -1q41 0 67.5 17t38.5 47.5t12 72.5v258q0 42 -12 72.5t-38.5 47.5t-67.5 17q-29 0 -60.5 -6t-62.5 -17v-486q29 -11 61.5 -17t61.5 -6z" />
    <glyph glyph-name="f_h.liga" unicode="fh" horiz-adv-x="617" 
d="M98 520h-78v10h78v135q0 69 30.5 107.5t96.5 38.5h93v-10h-93q-55 0 -86 -32.5t-31 -103.5v-135h119v-10h-119v-520h-10v520zM552 439q0 32 -14.5 52.5t-40 30t-59.5 9.5q-28 0 -60.5 -7t-60.5 -21l-8 6q27 15 63.5 23.5t65.5 8.5q36 0 64 -11t44 -33.5t16 -57.5v-439
h-10v439zM308 811h10v-811h-10v811z" />
    <glyph glyph-name="f_k.liga" unicode="fk" horiz-adv-x="584" 
d="M98 520h-78v10h78v135q0 69 30.5 107.5t96.5 38.5h93v-10h-93q-55 0 -86 -32.5t-31 -103.5v-135h119v-10h-119v-520h-10v520zM308 811h10v-545l-3 1l238 264h11l-240 -268v6l240 -268h-11l-238 265l3 1v-267h-10v811z" />
    <glyph glyph-name="f_t.liga" unicode="ft" horiz-adv-x="468" 
d="M98 520h-78v10h78v135q0 69 30.5 107.5t96.5 38.5h2v-10h-2q-55 0 -86 -32.5t-31 -103.5v-135h119v-10h-119v-520h-10v520zM427 0q-40 0 -66 10t-40.5 36.5t-14.5 73.5v400h-79v10h79v201h10v-201h117v-10h-117v-400q0 -58 25 -84t83 -26h9v-10h-6z" />
    <glyph glyph-name="uniFEDFFB51" unicode="&#xfedf;&#xfb51;" horiz-adv-x="491" 
d="M35 10h244q59 0 90.5 30t31.5 94v751h10v-756q0 -63 -33 -96t-97 -33h-245zM191 684h10v-584h-10v584zM152 802q0 23 10 35t31 12h7q20 0 31 -12t11 -35v-68h-90v68zM232 744v58q0 18 -8.5 27.5t-23.5 9.5h-7q-16 0 -23.5 -9.5t-7.5 -27.5v-58h70z" />
    <glyph glyph-name="uniFEE0FB51" unicode="&#xfee0;&#xfb51;" horiz-adv-x="508" 
d="M508 0q-37 0 -60 22t-33.5 63t-9.5 99l6 26q0 -68 10.5 -112t32 -66t54.5 -22h20v-10h-20zM35 10h244q59 0 90.5 30t31.5 94v751h10v-756q0 -63 -33 -96t-97 -33h-245zM191 684h10v-584h-10v584zM152 802q0 23 10 35t31 12h7q20 0 31 -12t11 -35v-68h-90v68zM232 744v58
q0 18 -8.5 27.5t-23.5 9.5h-7q-16 0 -23.5 -9.5t-7.5 -27.5v-58h70z" />
    <glyph glyph-name="uniFE91FE8E" unicode="&#xfe91;&#xfe8e;" horiz-adv-x="361" 
d="M81 10h125v-10h-125v10zM80 811h10v-811h-10v811zM186 10h95v520h10v-530h-105v10zM179 -293v74.5v75.5h5.5h5.5v-75.5v-74.5h-5.5h-5.5z" />
    <glyph glyph-name="uniFE91FE84" unicode="&#xfe91;&#xfe84;" horiz-adv-x="361" 
d="M81 10h125v-10h-125v10zM80 691h10v-691h-10v691zM186 10h95v520h10v-530h-105v10zM179 -293v74.5v75.5h5.5h5.5v-75.5v-74.5h-5.5h-5.5zM43 866q0 38 14 56.5t43 18.5h10v-10h-10q-24 0 -35 -15.5t-11 -49.5v-65h74v-10h-85v75z" />
    <glyph glyph-name="uniFE91FE82" unicode="&#xfe91;&#xfe82;" horiz-adv-x="361" 
d="M81 10h125v-10h-125v10zM80 691h10v-691h-10v691zM186 10h95v520h10v-530h-105v10zM179 -293v74.5v75.5h5.5h5.5v-75.5v-74.5h-5.5h-5.5zM32 761h105v-10h-105v10z" />
    <glyph glyph-name="uniFE91FB51" unicode="&#xfe91;&#xfb51;" horiz-adv-x="361" 
d="M81 10h125v-10h-125v10zM80 691h10v-691h-10v691zM186 10h95v520h10v-530h-105v10zM179 -293v74.5v75.5h5.5h5.5v-75.5v-74.5h-5.5h-5.5zM40 809q0 23 10 35t31 12h7q20 0 31 -12t11 -35v-68h-90v68zM120 751v58q0 18 -8.5 27.5t-23.5 9.5h-7q-16 0 -23.5 -9.5
t-7.5 -27.5v-58h70z" />
    <glyph glyph-name="uniFE92FE8A" unicode="&#xfe92;&#xfe8a;" horiz-adv-x="690" 
d="M340 359q0 88 36.5 129.5t115.5 41.5h79v-10h-78q-73 0 -107.5 -39.5t-34.5 -122.5v-483h-11v484zM165 -125q-47 0 -73.5 26t-26.5 73v373h10v-368q0 -44 24.5 -69t67.5 -25h173l11 -10h-186zM691 0q-41 0 -70 17.5t-44.5 50.5t-15.5 79v483h10v-482q0 -65 32 -101.5
t88 -36.5h19v-10h-19zM494 -293v74.5v75.5h5.5h5.5v-75.5v-74.5h-5.5h-5.5zM28 522q0 38 14 56.5t43 18.5h10v-10h-10q-24 0 -35 -15.5t-11 -49.5v-65h74v-10h-85v75z" />
    <glyph glyph-name="uniFB58FE8E" unicode="&#xfb58;&#xfe8e;" horiz-adv-x="401" 
d="M81 10h125v-10h-125v10zM80 811h10v-811h-10v811zM186 10h135v520h10v-530h-145v10zM135 -293v74.5v75.5h5.5h5.5v-75.5v-74.5h-5.5h-5.5zM285 -293v74.5v75.5h5.5h5.5v-75.5v-74.5h-5.5h-5.5zM210 -403v55v55h5.5h5.5v-55v-55h-5.5h-5.5z" />
    <glyph glyph-name="uniFB58FE84" unicode="&#xfb58;&#xfe84;" horiz-adv-x="401" 
d="M81 10h125v-10h-125v10zM80 691h10v-691h-10v691zM186 10h135v520h10v-530h-145v10zM135 -293v74.5v75.5h5.5h5.5v-75.5v-74.5h-5.5h-5.5zM285 -293v74.5v75.5h5.5h5.5v-75.5v-74.5h-5.5h-5.5zM210 -403v55v55h5.5h5.5v-55v-55h-5.5h-5.5zM43 866q0 38 14 56.5t43 18.5
h10v-10h-10q-24 0 -35 -15.5t-11 -49.5v-65h74v-10h-85v75z" />
    <glyph glyph-name="uniFB58FE82" unicode="&#xfb58;&#xfe82;" horiz-adv-x="401" 
d="M81 10h125v-10h-125v10zM80 691h10v-691h-10v691zM186 10h135v520h10v-530h-145v10zM135 -293v74.5v75.5h5.5h5.5v-75.5v-74.5h-5.5h-5.5zM285 -293v74.5v75.5h5.5h5.5v-75.5v-74.5h-5.5h-5.5zM210 -403v55v55h5.5h5.5v-55v-55h-5.5h-5.5zM32 761h105v-10h-105v10z" />
    <glyph glyph-name="uniFB58FB51" unicode="&#xfb58;&#xfb51;" horiz-adv-x="401" 
d="M81 10h125v-10h-125v10zM80 691h10v-691h-10v691zM186 10h135v520h10v-530h-145v10zM135 -293v74.5v75.5h5.5h5.5v-75.5v-74.5h-5.5h-5.5zM285 -293v74.5v75.5h5.5h5.5v-75.5v-74.5h-5.5h-5.5zM210 -403v55v55h5.5h5.5v-55v-55h-5.5h-5.5zM40 809q0 23 10 35t31 12h7
q20 0 31 -12t11 -35v-68h-90v68zM120 751v58q0 18 -8.5 27.5t-23.5 9.5h-7q-16 0 -23.5 -9.5t-7.5 -27.5v-58h70z" />
    <glyph glyph-name="uniFB58FB59" unicode="&#xfb58;&#xfb59;" horiz-adv-x="600" 
d="M385 10h135v520h10v-530h-145v10zM377 -293v74.5v75.5h5.5h5.5v-75.5v-74.5h-5.5h-5.5zM527 -293v74.5v75.5h5.5h5.5v-75.5v-74.5h-5.5h-5.5zM452 -403v55v55h5.5h5.5v-55v-55h-5.5h-5.5zM280 10h125v-10h-125v10zM0 10h135v520h10v-520h155v-10h-300v10zM60 -293v74.5
v75.5h5.5h5.5v-75.5v-74.5h-5.5h-5.5zM210 -293v74.5v75.5h5.5h5.5v-75.5v-74.5h-5.5h-5.5zM135 -403v55v55h5.5h5.5v-55v-55h-5.5h-5.5z" />
    <glyph glyph-name="uniFB59FEAE" unicode="&#xfb59;&#xfeae;" horiz-adv-x="469" 
d="M470 0q-41 0 -70 17.5t-44.5 50.5t-15.5 79v483h10v-482q0 -65 32 -101.5t88 -36.5h19v-10h-19zM120 530h230v-10h-230v10zM45 -220q-29 0 -65 10l3 10q17 -4 32.5 -6.5t29.5 -2.5q38 0 56.5 20t18.5 67v652h10v-653q0 -35 -9.5 -56t-28 -31t-47.5 -10zM214 -293v74.5
v75.5h5.5h5.5v-75.5v-74.5h-5.5h-5.5zM364 -293v74.5v75.5h5.5h5.5v-75.5v-74.5h-5.5h-5.5zM289 -403v55v55h5.5h5.5v-55v-55h-5.5h-5.5z" />
    <glyph glyph-name="uniFB59FEB0" unicode="&#xfb59;&#xfeb0;" horiz-adv-x="469" 
d="M470 0q-41 0 -70 17.5t-44.5 50.5t-15.5 79v483h10v-482q0 -65 32 -101.5t88 -36.5h19v-10h-19zM120 530h230v-10h-230v10zM45 -220q-29 0 -65 10l3 10q17 -4 32.5 -6.5t29.5 -2.5q38 0 56.5 20t18.5 67v652h10v-653q0 -35 -9.5 -56t-28 -31t-47.5 -10zM214 -293v74.5
v75.5h5.5h5.5v-75.5v-74.5h-5.5h-5.5zM364 -293v74.5v75.5h5.5h5.5v-75.5v-74.5h-5.5h-5.5zM289 -403v55v55h5.5h5.5v-55v-55h-5.5h-5.5zM120 639v75.5v74.5h5h5v-74.5v-75.5h-5h-5z" />
    <glyph glyph-name="uniFB59FEE6" unicode="&#xfb59;&#xfee6;" horiz-adv-x="740" 
d="M740 0q-68 0 -115 23.5t-70.5 70.5t-23.5 115v373h10v-371q0 -98 50.5 -149t148.5 -51h20v-11h-20zM316 462h225v-10h-225v10zM218 -125q-53 0 -86.5 18t-50 55.5t-16.5 96.5v417h11v-416q0 -83 35 -122t108 -39h92v577h10v-587h-103zM184 571v75.5v74.5h5h5v-74.5v-75.5
h-5h-5zM392 -293v74.5v75.5h5.5h5.5v-75.5v-74.5h-5.5h-5.5zM542 -293v74.5v75.5h5.5h5.5v-75.5v-74.5h-5.5h-5.5zM467 -403v55v55h5.5h5.5v-55v-55h-5.5h-5.5z" />
    <glyph glyph-name="uniFB59FEF0" unicode="&#xfb59;&#xfef0;" horiz-adv-x="690" 
d="M340 359q0 88 36.5 129.5t115.5 41.5h79v-10h-78q-73 0 -107.5 -39.5t-34.5 -122.5v-483h-11v484zM165 -125q-47 0 -73.5 26t-26.5 73v373h10v-368q0 -44 24.5 -69t67.5 -25h173l11 -10h-186zM691 0q-41 0 -70 17.5t-44.5 50.5t-15.5 79v483h10v-482q0 -65 32 -101.5
t88 -36.5h19v-10h-19zM420 -293v74.5v75.5h5.5h5.5v-75.5v-74.5h-5.5h-5.5zM570 -293v74.5v75.5h5.5h5.5v-75.5v-74.5h-5.5h-5.5zM495 -403v55v55h5.5h5.5v-55v-55h-5.5h-5.5z" />
    <glyph glyph-name="uniFB59FEF2" unicode="&#xfb59;&#xfef2;" horiz-adv-x="690" 
d="M340 359q0 88 36.5 129.5t115.5 41.5h79v-10h-78q-73 0 -107.5 -39.5t-34.5 -122.5v-483h-11v484zM165 -125q-47 0 -73.5 26t-26.5 73v373h10v-368q0 -44 24.5 -69t67.5 -25h173l11 -10h-186zM691 0q-41 0 -70 17.5t-44.5 50.5t-15.5 79v483h10v-482q0 -65 32 -101.5
t88 -36.5h19v-10h-19zM420 -293v74.5v75.5h5.5h5.5v-75.5v-74.5h-5.5h-5.5zM570 -293v74.5v75.5h5.5h5.5v-75.5v-74.5h-5.5h-5.5zM495 -403v55v55h5.5h5.5v-55v-55h-5.5h-5.5zM165 -418v74.5v75.5h5.5h5.5v-75.5v-74.5h-5.5h-5.5zM275 -418v74.5v75.5h5.5h5.5v-75.5v-74.5
h-5.5h-5.5z" />
    <glyph glyph-name="uniFB59FE8A" unicode="&#xfb59;&#xfe8a;" horiz-adv-x="690" 
d="M340 359q0 88 36.5 129.5t115.5 41.5h79v-10h-78q-73 0 -107.5 -39.5t-34.5 -122.5v-483h-11v484zM165 -125q-47 0 -73.5 26t-26.5 73v373h10v-368q0 -44 24.5 -69t67.5 -25h173l11 -10h-186zM691 0q-41 0 -70 17.5t-44.5 50.5t-15.5 79v483h10v-482q0 -65 32 -101.5
t88 -36.5h19v-10h-19zM420 -293v74.5v75.5h5.5h5.5v-75.5v-74.5h-5.5h-5.5zM570 -293v74.5v75.5h5.5h5.5v-75.5v-74.5h-5.5h-5.5zM495 -403v55v55h5.5h5.5v-55v-55h-5.5h-5.5zM28 522q0 38 14 56.5t43 18.5h10v-10h-10q-24 0 -35 -15.5t-11 -49.5v-65h74v-10h-85v75z" />
    <glyph glyph-name="uniFE98FE8A" unicode="&#xfe98;&#xfe8a;" horiz-adv-x="690" 
d="M340 359q0 88 36.5 129.5t115.5 41.5h79v-10h-78q-73 0 -107.5 -39.5t-34.5 -122.5v-483h-11v484zM165 -125q-47 0 -73.5 26t-26.5 73v373h10v-368q0 -44 24.5 -69t67.5 -25h173l11 -10h-186zM691 0q-41 0 -70 17.5t-44.5 50.5t-15.5 79v483h10v-482q0 -65 32 -101.5
t88 -36.5h19v-10h-19zM506 739v75.5v74.5h5.5h5.5v-74.5v-75.5h-5.5h-5.5zM616 739v75.5v74.5h5.5h5.5v-74.5v-75.5h-5.5h-5.5zM28 522q0 38 14 56.5t43 18.5h10v-10h-10q-24 0 -35 -15.5t-11 -49.5v-65h74v-10h-85v75z" />
    <glyph glyph-name="uniFE9CFE8A" unicode="&#xfe9c;&#xfe8a;" horiz-adv-x="690" 
d="M340 359q0 88 36.5 129.5t115.5 41.5h79v-10h-78q-73 0 -107.5 -39.5t-34.5 -122.5v-483h-11v484zM165 -125q-47 0 -73.5 26t-26.5 73v373h10v-368q0 -44 24.5 -69t67.5 -25h173l11 -10h-186zM691 0q-41 0 -70 17.5t-44.5 50.5t-15.5 79v483h10v-482q0 -65 32 -101.5
t88 -36.5h19v-10h-19zM560 889v55v55h5.5h5.5v-55v-55h-5.5h-5.5zM505 739v75.5v74.5h5.5h5.5v-74.5v-75.5h-5.5h-5.5zM615 739v75.5v74.5h5.5h5.5v-74.5v-75.5h-5.5h-5.5zM28 522q0 38 14 56.5t43 18.5h10v-10h-10q-24 0 -35 -15.5t-11 -49.5v-65h74v-10h-85v75z" />
    <glyph glyph-name="uniFEB3FEB0" unicode="&#xfeb3;&#xfeb0;" horiz-adv-x="885" 
d="M45 -220q-29 0 -65 10l3 10q17 -4 32.5 -6.5t29.5 -2.5q38 0 56.5 20t18.5 67v702h10v-703q0 -35 -9.5 -56t-28 -31t-47.5 -10zM705 -10q-41 0 -70 17.5t-44 50.5t-15 79v325h9v-324q0 -64 32 -100.5t88 -36.5q54 0 79.5 33.5t25.5 103.5v403h10v-404q0 -76 -28 -111.5
t-87 -35.5zM120 462h230v-10h-220zM470 -9q-41 0 -70 17.5t-44.5 50.5t-15.5 79v324h10v-323q0 -64 32 -100.5t88 -36.5q54 0 79.5 33.5t25.5 103.5v323h9v-324q0 -51 -12 -83.5t-37 -48t-65 -15.5zM120 689v75.5v74.5h5h5v-74.5v-75.5h-5h-5z" />
    <glyph glyph-name="uniFEB4FEB0" unicode="&#xfeb4;&#xfeb0;" horiz-adv-x="917" 
d="M917 0q-37 0 -60 22t-33.5 63t-9.5 99l6 26q0 -68 10.5 -112t32 -66t54.5 -22h20v-10h-20zM45 -220q-29 0 -65 10l3 10q17 -4 32.5 -6.5t29.5 -2.5q38 0 56.5 20t18.5 67v702h10v-703q0 -35 -9.5 -56t-28 -31t-47.5 -10zM705 -10q-41 0 -70 17.5t-44 50.5t-15 79v325h9
v-324q0 -64 32 -100.5t88 -36.5q54 0 79.5 33.5t25.5 103.5v403h10v-404q0 -76 -28 -111.5t-87 -35.5zM120 462h230v-10h-220zM470 -9q-41 0 -70 17.5t-44.5 50.5t-15.5 79v324h10v-323q0 -64 32 -100.5t88 -36.5q54 0 79.5 33.5t25.5 103.5v323h9v-324q0 -51 -12 -83.5
t-37 -48t-65 -15.5zM120 689v75.5v74.5h5h5v-74.5v-75.5h-5h-5z" />
    <glyph glyph-name="uniFEB3FE8A" unicode="&#xfeb3;&#xfe8a;" horiz-adv-x="1106" 
d="M926 -10q-41 0 -70 17.5t-44 50.5t-15 79v325h9v-324q0 -64 32 -100.5t88 -36.5q54 0 79.5 33.5t25.5 103.5v403h10v-404q0 -76 -28 -111.5t-87 -35.5zM691 -9q-41 0 -70 17.5t-44 50.5t-15 79v492h10v-491q0 -65 31.5 -101t87.5 -36q54 0 79.5 33.5t25.5 103.5v323h9
v-324q0 -51 -12 -83.5t-37 -48t-65 -15.5zM341 459q0 88 36.5 129.5t115.5 41.5h79v-10h-78q-73 0 -107.5 -39.5t-34.5 -122.5v-583h-11v584zM165 -125q-47 0 -73.5 26t-26.5 73v373h10v-368q0 -44 24.5 -69t67.5 -25h185v-10h-187zM436 815q0 47 19.5 66t67.5 19h5v-10h-5
q-43 0 -59.5 -16t-16.5 -59v-95h103v-10h-114v105z" />
    <glyph glyph-name="uniFEB4FE8A" unicode="&#xfeb4;&#xfe8a;" horiz-adv-x="1138" 
d="M1138 0q-37 0 -60 22t-33.5 63t-9.5 99l6 26q0 -68 10.5 -112t32 -66t54.5 -22h20v-10h-20zM926 -10q-41 0 -70 17.5t-44 50.5t-15 79v325h9v-324q0 -64 32 -100.5t88 -36.5q54 0 79.5 33.5t25.5 103.5v403h10v-404q0 -76 -28 -111.5t-87 -35.5zM691 -9q-41 0 -70 17.5
t-44 50.5t-15 79v492h10v-491q0 -65 31.5 -101t87.5 -36q54 0 79.5 33.5t25.5 103.5v323h9v-324q0 -51 -12 -83.5t-37 -48t-65 -15.5zM341 459q0 88 36.5 129.5t115.5 41.5h79v-10h-78q-73 0 -107.5 -39.5t-34.5 -122.5v-583h-11v584zM165 -125q-47 0 -73.5 26t-26.5 73v373
h10v-368q0 -44 24.5 -69t67.5 -25h185v-10h-187zM436 815q0 47 19.5 66t67.5 19h5v-10h-5q-43 0 -59.5 -16t-16.5 -59v-95h103v-10h-114v105z" />
    <glyph glyph-name="uniFEB7FEB0" unicode="&#xfeb7;&#xfeb0;" horiz-adv-x="885" 
d="M45 -220q-29 0 -65 10l3 10q17 -4 32.5 -6.5t29.5 -2.5q38 0 56.5 20t18.5 67v702h10v-703q0 -35 -9.5 -56t-28 -31t-47.5 -10zM705 -10q-41 0 -70 17.5t-44 50.5t-15 79v325h9v-324q0 -64 32 -100.5t88 -36.5q54 0 79.5 33.5t25.5 103.5v403h10v-404q0 -76 -28 -111.5
t-87 -35.5zM120 462h230v-10h-220zM470 -9q-41 0 -70 17.5t-44.5 50.5t-15.5 79v324h10v-323q0 -64 32 -100.5t88 -36.5q54 0 79.5 33.5t25.5 103.5v323h9v-324q0 -51 -12 -83.5t-37 -48t-65 -15.5zM574 721v55v55h5.5h5.5v-55v-55h-5.5h-5.5zM519 571v75.5v74.5h5.5h5.5
v-74.5v-75.5h-5.5h-5.5zM629 571v75.5v74.5h5.5h5.5v-74.5v-75.5h-5.5h-5.5zM120 689v75.5v74.5h5h5v-74.5v-75.5h-5h-5z" />
    <glyph glyph-name="uniFEB8FEB0" unicode="&#xfeb8;&#xfeb0;" horiz-adv-x="917" 
d="M917 0q-37 0 -60 22t-33.5 63t-9.5 99l6 26q0 -68 10.5 -112t32 -66t54.5 -22h20v-10h-20zM45 -220q-29 0 -65 10l3 10q17 -4 32.5 -6.5t29.5 -2.5q38 0 56.5 20t18.5 67v702h10v-703q0 -35 -9.5 -56t-28 -31t-47.5 -10zM705 -10q-41 0 -70 17.5t-44 50.5t-15 79v325h9
v-324q0 -64 32 -100.5t88 -36.5q54 0 79.5 33.5t25.5 103.5v403h10v-404q0 -76 -28 -111.5t-87 -35.5zM120 462h230v-10h-220zM470 -9q-41 0 -70 17.5t-44.5 50.5t-15.5 79v324h10v-323q0 -64 32 -100.5t88 -36.5q54 0 79.5 33.5t25.5 103.5v323h9v-324q0 -51 -12 -83.5
t-37 -48t-65 -15.5zM574 721v55v55h5.5h5.5v-55v-55h-5.5h-5.5zM519 571v75.5v74.5h5.5h5.5v-74.5v-75.5h-5.5h-5.5zM629 571v75.5v74.5h5.5h5.5v-74.5v-75.5h-5.5h-5.5zM120 689v75.5v74.5h5h5v-74.5v-75.5h-5h-5z" />
    <glyph glyph-name="uniFEB7FE8A" unicode="&#xfeb7;&#xfe8a;" horiz-adv-x="1106" 
d="M926 -10q-41 0 -70 17.5t-44 50.5t-15 79v325h9v-324q0 -64 32 -100.5t88 -36.5q54 0 79.5 33.5t25.5 103.5v403h10v-404q0 -76 -28 -111.5t-87 -35.5zM691 -9q-41 0 -70 17.5t-44 50.5t-15 79v492h10v-491q0 -65 31.5 -101t87.5 -36q54 0 79.5 33.5t25.5 103.5v323h9
v-324q0 -51 -12 -83.5t-37 -48t-65 -15.5zM341 459q0 88 36.5 129.5t115.5 41.5h79v-10h-78q-73 0 -107.5 -39.5t-34.5 -122.5v-583h-11v584zM165 -125q-47 0 -73.5 26t-26.5 73v373h10v-368q0 -44 24.5 -69t67.5 -25h185v-10h-187zM795 721v55v55h5.5h5.5v-55v-55h-5.5
h-5.5zM740 571v75.5v74.5h5.5h5.5v-74.5v-75.5h-5.5h-5.5zM850 571v75.5v74.5h5.5h5.5v-74.5v-75.5h-5.5h-5.5zM436 815q0 47 19.5 66t67.5 19h5v-10h-5q-43 0 -59.5 -16t-16.5 -59v-95h103v-10h-114v105z" />
    <glyph glyph-name="uniFEB8FE8A" unicode="&#xfeb8;&#xfe8a;" horiz-adv-x="1138" 
d="M1138 0q-37 0 -60 22t-33.5 63t-9.5 99l6 26q0 -68 10.5 -112t32 -66t54.5 -22h20v-10h-20zM926 -10q-41 0 -70 17.5t-44 50.5t-15 79v325h9v-324q0 -64 32 -100.5t88 -36.5q54 0 79.5 33.5t25.5 103.5v403h10v-404q0 -76 -28 -111.5t-87 -35.5zM691 -9q-41 0 -70 17.5
t-44 50.5t-15 79v492h10v-491q0 -65 31.5 -101t87.5 -36q54 0 79.5 33.5t25.5 103.5v323h9v-324q0 -51 -12 -83.5t-37 -48t-65 -15.5zM341 459q0 88 36.5 129.5t115.5 41.5h79v-10h-78q-73 0 -107.5 -39.5t-34.5 -122.5v-583h-11v584zM165 -125q-47 0 -73.5 26t-26.5 73v373
h10v-368q0 -44 24.5 -69t67.5 -25h185v-10h-187zM795 721v55v55h5.5h5.5v-55v-55h-5.5h-5.5zM740 571v75.5v74.5h5.5h5.5v-74.5v-75.5h-5.5h-5.5zM850 571v75.5v74.5h5.5h5.5v-74.5v-75.5h-5.5h-5.5zM436 815q0 47 19.5 66t67.5 19h5v-10h-5q-43 0 -59.5 -16t-16.5 -59v-95
h103v-10h-114v105z" />
    <glyph glyph-name="uniFEBBFE8A" unicode="&#xfebb;&#xfe8a;" horiz-adv-x="973" 
d="M692 0q-41 0 -70 17.5t-44.5 50.5t-15.5 79v483h10v-482q0 -65 32 -101.5t88 -36.5h206v386q0 64 -31.5 94t-90.5 30h-214v10h216q64 0 97 -33t33 -96v-401h-216zM341 459q0 88 36.5 129.5t115.5 41.5h79v-10h-78q-73 0 -107.5 -39.5t-34.5 -122.5v-583h-11v584z
M165 -125q-47 0 -73.5 26t-26.5 73v373h10v-368q0 -44 24.5 -69t67.5 -25h185v-10h-187zM436 815q0 47 19.5 66t67.5 19h5v-10h-5q-43 0 -59.5 -16t-16.5 -59v-95h103v-10h-114v105z" />
    <glyph glyph-name="uniFEBCFE8A" unicode="&#xfebc;&#xfe8a;" horiz-adv-x="1004" 
d="M899 10h125v-10h-125v10zM692 0q-41 0 -70 17.5t-44.5 50.5t-15.5 79v483h10v-482q0 -65 32 -101.5t88 -36.5h206v386q0 64 -31.5 94t-90.5 30h-214v10h216q64 0 97 -33t33 -96v-401h-216zM341 459q0 88 36.5 129.5t115.5 41.5h79v-10h-78q-73 0 -107.5 -39.5
t-34.5 -122.5v-583h-11v584zM165 -125q-47 0 -73.5 26t-26.5 73v373h10v-368q0 -44 24.5 -69t67.5 -25h185v-10h-187zM436 815q0 47 19.5 66t67.5 19h5v-10h-5q-43 0 -59.5 -16t-16.5 -59v-95h103v-10h-114v105z" />
    <glyph glyph-name="uniFEBFFE8A" unicode="&#xfebf;&#xfe8a;" horiz-adv-x="973" 
d="M692 0q-41 0 -70 17.5t-44.5 50.5t-15.5 79v483h10v-482q0 -65 32 -101.5t88 -36.5h206v386q0 64 -31.5 94t-90.5 30h-214v10h216q64 0 97 -33t33 -96v-401h-216zM341 459q0 88 36.5 129.5t115.5 41.5h79v-10h-78q-73 0 -107.5 -39.5t-34.5 -122.5v-583h-11v584z
M165 -125q-47 0 -73.5 26t-26.5 73v373h10v-368q0 -44 24.5 -69t67.5 -25h185v-10h-187zM764 639v75.5v74.5h5h5v-74.5v-75.5h-5h-5zM436 815q0 47 19.5 66t67.5 19h5v-10h-5q-43 0 -59.5 -16t-16.5 -59v-95h103v-10h-114v105z" />
    <glyph glyph-name="uniFEC0FE8A" unicode="&#xfec0;&#xfe8a;" horiz-adv-x="1004" 
d="M899 10h125v-10h-125v10zM692 0q-41 0 -70 17.5t-44.5 50.5t-15.5 79v483h10v-482q0 -65 32 -101.5t88 -36.5h206v386q0 64 -31.5 94t-90.5 30h-214v10h216q64 0 97 -33t33 -96v-401h-216zM341 459q0 88 36.5 129.5t115.5 41.5h79v-10h-78q-73 0 -107.5 -39.5
t-34.5 -122.5v-583h-11v584zM165 -125q-47 0 -73.5 26t-26.5 73v373h10v-368q0 -44 24.5 -69t67.5 -25h185v-10h-187zM764 639v75.5v74.5h5h5v-74.5v-75.5h-5h-5zM436 815q0 47 19.5 66t67.5 19h5v-10h-5q-43 0 -59.5 -16t-16.5 -59v-95h103v-10h-114v105z" />
    <glyph glyph-name="uniFEE8FE8A" unicode="&#xfee8;&#xfe8a;" horiz-adv-x="690" 
d="M340 359q0 88 36.5 129.5t115.5 41.5h79v-10h-78q-73 0 -107.5 -39.5t-34.5 -122.5v-483h-11v484zM165 -125q-47 0 -73.5 26t-26.5 73v373h10v-368q0 -44 24.5 -69t67.5 -25h173l11 -10h-186zM691 0q-41 0 -70 17.5t-44.5 50.5t-15.5 79v483h10v-482q0 -65 32 -101.5
t88 -36.5h19v-10h-19zM561 739v75.5v74.5h5h5v-74.5v-75.5h-5h-5zM28 522q0 38 14 56.5t43 18.5h10v-10h-10q-24 0 -35 -15.5t-11 -49.5v-65h74v-10h-85v75z" />
    <glyph glyph-name="uniFBE9FEAE" unicode="&#x649;&#xfeae;" horiz-adv-x="469" 
d="M470 0q-41 0 -70 17.5t-44.5 50.5t-15.5 79v483h10v-482q0 -65 32 -101.5t88 -36.5h19v-10h-19zM120 530h230v-10h-230v10zM45 -220q-29 0 -65 10l3 10q17 -4 32.5 -6.5t29.5 -2.5q38 0 56.5 20t18.5 67v652h10v-653q0 -35 -9.5 -56t-28 -31t-47.5 -10z" />
    <glyph glyph-name="uniFBE9FEB0" unicode="&#x649;&#xfeb0;" horiz-adv-x="469" 
d="M470 0q-41 0 -70 17.5t-44.5 50.5t-15.5 79v483h10v-482q0 -65 32 -101.5t88 -36.5h19v-10h-19zM120 530h230v-10h-230v10zM45 -220q-29 0 -65 10l3 10q17 -4 32.5 -6.5t29.5 -2.5q38 0 56.5 20t18.5 67v652h10v-653q0 -35 -9.5 -56t-28 -31t-47.5 -10zM120 639v75.5
v74.5h5h5v-74.5v-75.5h-5h-5z" />
    <glyph glyph-name="uniFBE9FEE6" unicode="&#x649;&#xfee6;" horiz-adv-x="740" 
d="M740 0q-68 0 -115 23.5t-70.5 70.5t-23.5 115v373h10v-371q0 -98 50.5 -149t148.5 -51h20v-11h-20zM316 462h225v-10h-225v10zM218 -125q-53 0 -86.5 18t-50 55.5t-16.5 96.5v417h11v-416q0 -83 35 -122t108 -39h92v577h10v-587h-103zM184 571v75.5v74.5h5h5v-74.5v-75.5
h-5h-5z" />
    <glyph glyph-name="uniFBE9FB9F" unicode="&#x649;&#xfb9f;" horiz-adv-x="740" 
d="M740 0q-68 0 -115 23.5t-70.5 70.5t-23.5 115v373h10v-371q0 -98 50.5 -149t148.5 -51h20v-11h-20zM316 462h225v-10h-225v10zM218 -125q-53 0 -86.5 18t-50 55.5t-16.5 96.5v417h11v-416q0 -83 35 -122t108 -39h92v577h10v-587h-103z" />
    <glyph glyph-name="uniFC5A.init" unicode="&#xfbfe;&#xfbff;" horiz-adv-x="600" 
d="M385 10h135v520h10v-530h-145v10zM397 -293v74.5v75.5h5.5h5.5v-75.5v-74.5h-5.5h-5.5zM507 -293v74.5v75.5h5.5h5.5v-75.5v-74.5h-5.5h-5.5zM280 10h125v-10h-125v10zM0 10h135v520h10v-520h155v-10h-300v10zM80 -293v74.5v75.5h5.5h5.5v-75.5v-74.5h-5.5h-5.5z
M190 -293v74.5v75.5h5.5h5.5v-75.5v-74.5h-5.5h-5.5z" />
    <glyph glyph-name="uniFEF3FE8E" unicode="&#xfef3;&#xfe8e;" horiz-adv-x="401" 
d="M81 10h125v-10h-125v10zM80 811h10v-811h-10v811zM186 10h135v520h10v-530h-145v10zM155 -293v74.5v75.5h5.5h5.5v-75.5v-74.5h-5.5h-5.5zM265 -293v74.5v75.5h5.5h5.5v-75.5v-74.5h-5.5h-5.5z" />
    <glyph glyph-name="uniFEF3FE84" unicode="&#xfef3;&#xfe84;" horiz-adv-x="401" 
d="M81 10h125v-10h-125v10zM80 691h10v-691h-10v691zM186 10h135v520h10v-530h-145v10zM155 -293v74.5v75.5h5.5h5.5v-75.5v-74.5h-5.5h-5.5zM265 -293v74.5v75.5h5.5h5.5v-75.5v-74.5h-5.5h-5.5zM43 866q0 38 14 56.5t43 18.5h10v-10h-10q-24 0 -35 -15.5t-11 -49.5v-65h74
v-10h-85v75z" />
    <glyph glyph-name="uniFEF3FE82" unicode="&#xfef3;&#xfe82;" horiz-adv-x="401" 
d="M81 10h125v-10h-125v10zM80 691h10v-691h-10v691zM186 10h135v520h10v-530h-145v10zM155 -293v74.5v75.5h5.5h5.5v-75.5v-74.5h-5.5h-5.5zM265 -293v74.5v75.5h5.5h5.5v-75.5v-74.5h-5.5h-5.5zM32 761h105v-10h-105v10z" />
    <glyph glyph-name="uniFEF3FB51" unicode="&#xfef3;&#xfb51;" horiz-adv-x="401" 
d="M81 10h125v-10h-125v10zM80 691h10v-691h-10v691zM186 10h135v520h10v-530h-145v10zM155 -293v74.5v75.5h5.5h5.5v-75.5v-74.5h-5.5h-5.5zM265 -293v74.5v75.5h5.5h5.5v-75.5v-74.5h-5.5h-5.5zM40 809q0 23 10 35t31 12h7q20 0 31 -12t11 -35v-68h-90v68zM120 751v58
q0 18 -8.5 27.5t-23.5 9.5h-7q-16 0 -23.5 -9.5t-7.5 -27.5v-58h70z" />
    <glyph glyph-name="uniFE8CFE8A" unicode="&#xfe8c;&#xfe8a;" horiz-adv-x="690" 
d="M340 359q0 88 36.5 129.5t115.5 41.5h79v-10h-78q-73 0 -107.5 -39.5t-34.5 -122.5v-483h-11v484zM165 -125q-47 0 -73.5 26t-26.5 73v373h10v-368q0 -44 24.5 -69t67.5 -25h173l11 -10h-186zM691 0q-41 0 -70 17.5t-44.5 50.5t-15.5 79v483h10v-482q0 -65 32 -101.5
t88 -36.5h19v-10h-19zM28 522q0 38 14 56.5t43 18.5h10v-10h-10q-24 0 -35 -15.5t-11 -49.5v-65h74v-10h-85v75zM524 805q0 38 14 56.5t43 18.5h10v-10h-10q-24 0 -35 -15.5t-11 -49.5v-65h74v-10h-85v75z" />
    <glyph glyph-name="uniFBFEFE8E" unicode="&#xfbfe;&#xfe8e;" horiz-adv-x="401" 
d="M81 10h125v-10h-125v10zM80 811h10v-811h-10v811zM186 10h135v520h10v-530h-145v10zM155 -293v74.5v75.5h5.5h5.5v-75.5v-74.5h-5.5h-5.5zM265 -293v74.5v75.5h5.5h5.5v-75.5v-74.5h-5.5h-5.5z" />
    <glyph glyph-name="uniFBFEFE84" unicode="&#xfbfe;&#xfe84;" horiz-adv-x="401" 
d="M81 10h125v-10h-125v10zM80 691h10v-691h-10v691zM186 10h135v520h10v-530h-145v10zM155 -293v74.5v75.5h5.5h5.5v-75.5v-74.5h-5.5h-5.5zM265 -293v74.5v75.5h5.5h5.5v-75.5v-74.5h-5.5h-5.5zM43 866q0 38 14 56.5t43 18.5h10v-10h-10q-24 0 -35 -15.5t-11 -49.5v-65h74
v-10h-85v75z" />
    <glyph glyph-name="uniFBFEFE82" unicode="&#xfbfe;&#xfe82;" horiz-adv-x="401" 
d="M81 10h125v-10h-125v10zM80 691h10v-691h-10v691zM186 10h135v520h10v-530h-145v10zM155 -293v74.5v75.5h5.5h5.5v-75.5v-74.5h-5.5h-5.5zM265 -293v74.5v75.5h5.5h5.5v-75.5v-74.5h-5.5h-5.5zM32 761h105v-10h-105v10z" />
    <glyph glyph-name="uniFBFEFB51" unicode="&#xfbfe;&#xfb51;" horiz-adv-x="401" 
d="M81 10h125v-10h-125v10zM80 691h10v-691h-10v691zM186 10h135v520h10v-530h-145v10zM155 -293v74.5v75.5h5.5h5.5v-75.5v-74.5h-5.5h-5.5zM265 -293v74.5v75.5h5.5h5.5v-75.5v-74.5h-5.5h-5.5zM40 809q0 23 10 35t31 12h7q20 0 31 -12t11 -35v-68h-90v68zM120 751v58
q0 18 -8.5 27.5t-23.5 9.5h-7q-16 0 -23.5 -9.5t-7.5 -27.5v-58h70z" />
    <glyph glyph-name="uni066E.init" unicode="&#x66e;" horiz-adv-x="175" 
d="M0 10h95v520h10v-530h-105v10z" />
    <glyph glyph-name="uni066E.medi" unicode="&#x66e;" horiz-adv-x="200" 
d="M0 10h95v520h10v-520h115v-10h-220v10z" />
    <glyph glyph-name="uni066E.fina" unicode="&#x66e;" horiz-adv-x="456" 
d="M351 10h125v-10h-125v10zM165 0q-47 0 -73.5 26t-26.5 73v332h10v-327q0 -44 24.5 -69t67.5 -25h183v520h10v-530h-195z" />
    <glyph glyph-name="uni066F.fina" unicode="&#x66f;" horiz-adv-x="566" 
d="M461 10h125v-10h-125v10zM165 -220q-47 0 -73.5 26t-26.5 73v373h10v-368q0 -44 24.5 -69t67.5 -25h293v730l10 10v-750h-305zM385 0q-53 0 -89 18t-54 54t-18 89v202q0 63 15.5 99t50 52t95.5 16h85v-530h-85zM460 10v510h-75q-56 0 -89 -15t-47.5 -49t-14.5 -93v-202
q0 -49 17 -83t51 -51t83 -17h75z" />
    <glyph glyph-name="uni06A1.init" unicode="&#x6a1;" horiz-adv-x="401" 
d="M0 10h331v-10h-331v10zM246 0q-53 0 -89 18t-54 54t-18 89v202q0 63 15.5 99t50 52t95.5 16h85v-520v-10h-85zM246 10h75v510h-75q-56 0 -89 -15t-47.5 -49t-14.5 -93v-202q0 -49 17 -83t51 -51t83 -17z" />
    <glyph glyph-name="uni06A1.medi" unicode="&#x6a1;" horiz-adv-x="427" 
d="M322 10h125v-10h-125v10zM0 10h331v-10h-331v10zM246 0q-53 0 -89 18t-54 54t-18 89v202q0 63 15.5 99t50 52t95.5 16h85v-520v-10h-85zM246 10h75v510h-75q-56 0 -89 -15t-47.5 -49t-14.5 -93v-202q0 -49 17 -83t51 -51t83 -17z" />
    <glyph glyph-name="uni06A1.fina" unicode="&#x6a1;" horiz-adv-x="592" 
d="M487 10h125v-10h-125v10zM165 0q-47 0 -73.5 26t-26.5 73v332h10v-327q0 -44 24.5 -69t67.5 -25h329v-10h-331zM411 0q-53 0 -89 18t-54 54t-18 89v202q0 63 15.5 99t50 52t95.5 16h85v-520v-10h-85zM411 10h75v510h-75q-56 0 -89 -15t-47.5 -49t-14.5 -93v-202
q0 -49 17 -83t51 -51t83 -17z" />
    <glyph glyph-name="uni06C2.fina" unicode="&#x6c2;" horiz-adv-x="410" 
d="M305 520h-108q-59 0 -90.5 -30t-31.5 -95v-297h-10v302q0 64 33 97t97 33h120v-520h115v-10h-125v520zM152 717q0 47 19.5 66t67.5 19h5v-10h-5q-43 0 -59.5 -16t-16.5 -59v-95h103v-10h-114v105z" />
    <glyph glyph-name="uni06C3.fina" unicode="&#x6c3;" horiz-adv-x="410" 
d="M305 520h-108q-59 0 -90.5 -30t-31.5 -95v-297h-10v302q0 64 33 97t97 33h120v-520h115v-10h-125v520zM149 641v75.5v74.5h5.5h5.5v-74.5v-75.5h-5.5h-5.5zM259 641v75.5v74.5h5.5h5.5v-74.5v-75.5h-5.5h-5.5z" />
    <glyph glyph-name="uni06D5.fina" unicode="&#x6d5;" horiz-adv-x="407" 
d="M302 10h125v-10h-125v10zM301 581h10v-581h-10v581zM226 0q-53 0 -89 18t-54 54t-18 89v202q0 63 15.5 99t50 52t95.5 16h85v-520v-10h-85zM226 10h75v510h-75q-56 0 -89 -15t-47.5 -49t-14.5 -93v-202q0 -49 17 -83t51 -51t83 -17z" />
    <glyph glyph-name="uniFB51" unicode="&#x671;" horiz-adv-x="186" arabic-form="final" 
d="M81 10h125v-10h-125v10zM80 691h10v-691h-10v691zM40 808q0 23 10 35t31 12h7q20 0 31 -12t11 -35v-68h-90v68zM120 750v58q0 18 -8.5 27.5t-23.5 9.5h-7q-16 0 -23.5 -9.5t-7.5 -27.5v-58h70z" />
    <glyph glyph-name="uniFB57" unicode="&#x67e;" horiz-adv-x="456" arabic-form="final" 
d="M351 10h125v-10h-125v10zM165 0q-47 0 -73.5 26t-26.5 73v332h10v-327q0 -44 24.5 -69t67.5 -25h183v520h10v-530h-195zM147 -293v74.5v75.5h5.5h5.5v-75.5v-74.5h-5.5h-5.5zM297 -293v74.5v75.5h5.5h5.5v-75.5v-74.5h-5.5h-5.5zM222 -403v55v55h5.5h5.5v-55v-55h-5.5
h-5.5z" />
    <glyph glyph-name="uniFB58" unicode="&#x67e;" horiz-adv-x="215" arabic-form="initial" 
d="M0 10h135v520h10v-530h-145v10zM-8 -293v74.5v75.5h5.5h5.5v-75.5v-74.5h-5.5h-5.5zM142 -293v74.5v75.5h5.5h5.5v-75.5v-74.5h-5.5h-5.5zM67 -403v55v55h5.5h5.5v-55v-55h-5.5h-5.5z" />
    <glyph glyph-name="uniFB59" unicode="&#x67e;" horiz-adv-x="280" arabic-form="medial" 
d="M0 10h135v520h10v-520h155v-10h-300v10zM60 -293v74.5v75.5h5.5h5.5v-75.5v-74.5h-5.5h-5.5zM210 -293v74.5v75.5h5.5h5.5v-75.5v-74.5h-5.5h-5.5zM135 -403v55v55h5.5h5.5v-55v-55h-5.5h-5.5z" />
    <glyph glyph-name="uniFB67" unicode="&#x679;" horiz-adv-x="456" arabic-form="final" 
d="M351 10h125v-10h-125v10zM165 0q-47 0 -73.5 26t-26.5 73v332h10v-327q0 -44 24.5 -69t67.5 -25h183v520h10v-530h-195zM175 734h10v-57h39q20 0 30.5 -12t10.5 -35v-68h-90v172zM255 572v58q0 18 -8 27.5t-23 9.5h-39v-95h70z" />
    <glyph glyph-name="uniFB68" unicode="&#x679;" horiz-adv-x="215" arabic-form="initial" 
d="M0 10h135v520h10v-530h-145v10zM95 802h10v-57h39q20 0 30.5 -12t10.5 -35v-68h-90v172zM175 640v58q0 18 -8 27.5t-23 9.5h-39v-95h70z" />
    <glyph glyph-name="uniFB69" unicode="&#x679;" horiz-adv-x="280" arabic-form="medial" 
d="M0 10h135v520h10v-520h155v-10h-300v10zM95 802h10v-57h39q20 0 30.5 -12t10.5 -35v-68h-90v172zM175 640v58q0 18 -8 27.5t-23 9.5h-39v-95h70z" />
    <glyph glyph-name="uniFB6B" unicode="&#x6a4;" horiz-adv-x="592" arabic-form="final" 
d="M487 10h125v-10h-125v10zM165 0q-47 0 -73.5 26t-26.5 73v332h10v-327q0 -44 24.5 -69t67.5 -25h329v-10h-331zM411 0q-53 0 -89 18t-54 54t-18 89v202q0 63 15.5 99t50 52t95.5 16h85v-520v-10h-85zM411 10h75v510h-75q-56 0 -89 -15t-47.5 -49t-14.5 -93v-202
q0 -49 17 -83t51 -51t83 -17zM405 789v55v55h5.5h5.5v-55v-55h-5.5h-5.5zM350 639v75.5v74.5h5.5h5.5v-74.5v-75.5h-5.5h-5.5zM460 639v75.5v74.5h5.5h5.5v-74.5v-75.5h-5.5h-5.5z" />
    <glyph glyph-name="uniFB6C" unicode="&#x6a4;" horiz-adv-x="401" arabic-form="initial" 
d="M0 10h331v-10h-331v10zM246 0q-53 0 -89 18t-54 54t-18 89v202q0 63 15.5 99t50 52t95.5 16h85v-520v-10h-85zM246 10h75v510h-75q-56 0 -89 -15t-47.5 -49t-14.5 -93v-202q0 -49 17 -83t51 -51t83 -17zM215 789v55v55h5.5h5.5v-55v-55h-5.5h-5.5zM160 639v75.5v74.5h5.5
h5.5v-74.5v-75.5h-5.5h-5.5zM270 639v75.5v74.5h5.5h5.5v-74.5v-75.5h-5.5h-5.5z" />
    <glyph glyph-name="uniFB6D" unicode="&#x6a4;" horiz-adv-x="427" arabic-form="medial" 
d="M322 10h125v-10h-125v10zM0 10h331v-10h-331v10zM246 0q-53 0 -89 18t-54 54t-18 89v202q0 63 15.5 99t50 52t95.5 16h85v-520v-10h-85zM246 10h75v510h-75q-56 0 -89 -15t-47.5 -49t-14.5 -93v-202q0 -49 17 -83t51 -51t83 -17zM215 789v55v55h5.5h5.5v-55v-55h-5.5
h-5.5zM160 639v75.5v74.5h5.5h5.5v-74.5v-75.5h-5.5h-5.5zM270 639v75.5v74.5h5.5h5.5v-74.5v-75.5h-5.5h-5.5z" />
    <glyph glyph-name="uniFB7B" unicode="&#x686;" horiz-adv-x="419" arabic-form="final" 
d="M314 10h125v-10h-125v10zM35 -145l26 52q18 36 39.5 58.5t51 33.5t68.5 11h94v202.5v202.5q0 31 -11.5 54.5t-32.5 36.5t-48 13q-25 0 -50.5 -7.5t-52.5 -22.5l-4 9q31 16 56.5 24t50.5 8q30 0 53 -13.5t36 -38.5t13 -58v-210v-210h-102q-56 0 -91.5 -23t-60.5 -74
l-26 -52zM140 -299v74.5v75.5h5.5h5.5v-75.5v-74.5h-5.5h-5.5zM290 -299v74.5v75.5h5.5h5.5v-75.5v-74.5h-5.5h-5.5zM215 -409v55v55h5.5h5.5v-55v-55h-5.5h-5.5z" />
    <glyph glyph-name="uniFB7C" unicode="&#x686;" horiz-adv-x="303" arabic-form="initial" 
d="M0 10h228v202.5v202.5q0 31 -11.5 54.5t-32.5 36.5t-48 13q-25 0 -50.5 -7.5t-52.5 -22.5l-4 9q31 16 56.5 24t50.5 8q30 0 53 -13.5t36 -38.5t13 -58v-210v-210h-238v10zM46 -293v74.5v75.5h5.5h5.5v-75.5v-74.5h-5.5h-5.5zM196 -293v74.5v75.5h5.5h5.5v-75.5v-74.5
h-5.5h-5.5zM121 -403v55v55h5.5h5.5v-55v-55h-5.5h-5.5z" />
    <glyph glyph-name="uniFB7D" unicode="&#x686;" horiz-adv-x="333" arabic-form="medial" 
d="M228 10h125v-10h-125v10zM0 10h228v202.5v202.5q0 31 -11.5 54.5t-32.5 36.5t-48 13q-25 0 -50.5 -7.5t-52.5 -22.5l-4 9q31 16 56.5 24t50.5 8q30 0 53 -13.5t36 -38.5t13 -58v-210v-210h-238v10zM97 -293v74.5v75.5h5.5h5.5v-75.5v-74.5h-5.5h-5.5zM247 -293v74.5v75.5
h5.5h5.5v-75.5v-74.5h-5.5h-5.5zM172 -403v55v55h5.5h5.5v-55v-55h-5.5h-5.5z" />
    <glyph glyph-name="uniFB89" unicode="&#x688;" horiz-adv-x="369" arabic-form="final" 
d="M264 10h125v-10h-125v10zM35 10h228v386q0 64 -31.5 94t-90.5 30h-12v10h14q64 0 97 -33t33 -96v-401h-238v10zM98 802h10v-57h39q20 0 30.5 -12t10.5 -35v-68h-90v172zM178 640v58q0 18 -8 27.5t-23 9.5h-39v-95h70z" />
    <glyph glyph-name="uniFB8B" unicode="&#x698;" horiz-adv-x="226" arabic-form="final" 
d="M121 10h125v-10h-125v10zM45 -220q-29 0 -65 10l3 10q17 -4 32.5 -6.5t29.5 -2.5q38 0 56.5 20t18.5 67v652h10v-653q0 -35 -9.5 -56t-28 -31t-47.5 -10zM119 789v55v55h5.5h5.5v-55v-55h-5.5h-5.5zM64 639v75.5v74.5h5.5h5.5v-74.5v-75.5h-5.5h-5.5zM174 639v75.5v74.5
h5.5h5.5v-74.5v-75.5h-5.5h-5.5z" />
    <glyph glyph-name="uniFB8D" unicode="&#x691;" horiz-adv-x="226" arabic-form="final" 
d="M121 10h125v-10h-125v10zM45 -220q-29 0 -65 10l3 10q17 -4 32.5 -6.5t29.5 -2.5q38 0 56.5 20t18.5 67v652h10v-653q0 -35 -9.5 -56t-28 -31t-47.5 -10zM80 802h10v-57h39q20 0 30.5 -12t10.5 -35v-68h-90v172zM160 640v58q0 18 -8 27.5t-23 9.5h-39v-95h70z" />
    <glyph glyph-name="uniFB8F" unicode="&#x6a9;" horiz-adv-x="494" arabic-form="final" 
d="M389 10h125v-10h-125v10zM165 0q-47 0 -73.5 26t-26.5 73v332h10v-327q0 -44 24.5 -69t67.5 -25h221v318q0 64 -31.5 94t-90.5 30h-116q-3 2 -5.5 4.5t-4.5 5.5l177 350h12l-177 -350h116q64 0 97 -33t33 -96v-333h-233z" />
    <glyph glyph-name="uniFB90" unicode="&#x6a9;" horiz-adv-x="356" arabic-form="initial" 
d="M0 10h281v318q0 64 -31.5 94t-90.5 30h-106q-3 2 -5.5 4.5t-4.5 5.5l177 349h12l-177 -349h106q64 0 97 -32.5t33 -96.5v-333h-291v10z" />
    <glyph glyph-name="uniFB91" unicode="&#x6a9;" horiz-adv-x="387" arabic-form="medial" 
d="M282 10h125v-10h-125v10zM0 10h281v318q0 64 -31.5 94t-90.5 30h-106q-3 2 -5.5 4.5t-4.5 5.5l177 349h12l-177 -349h106q64 0 97 -32.5t33 -96.5v-333h-291v10z" />
    <glyph glyph-name="uniFB93" unicode="&#x6af;" horiz-adv-x="494" arabic-form="final" 
d="M389 10h125v-10h-125v10zM165 0q-47 0 -73.5 26t-26.5 73v332h10v-327q0 -44 24.5 -69t67.5 -25h221v318q0 64 -31.5 94t-90.5 30h-116q-3 2 -5.5 4.5t-4.5 5.5l177 350h12l-177 -350h116q64 0 97 -33t33 -96v-333h-233zM241 808h12l-175 -350h-12z" />
    <glyph glyph-name="uniFB94" unicode="&#x6af;" horiz-adv-x="422" arabic-form="initial" 
d="M0 10h347v318q0 64 -31.5 94t-90.5 30h-106q-3 2 -5.5 4.5t-4.5 5.5l177 349h12l-177 -349h106q64 0 97 -33t33 -96v-333h-357v10zM211 812h12l-175 -350h-12z" />
    <glyph glyph-name="uniFB95" unicode="&#x6af;" horiz-adv-x="453" arabic-form="medial" 
d="M348 10h125v-10h-125v10zM0 10h347v318q0 64 -31.5 94t-90.5 30h-106q-3 2 -5.5 4.5t-4.5 5.5l177 349h12l-177 -349h106q64 0 97 -33t33 -96v-333h-357v10zM211 812h12l-175 -350h-12z" />
    <glyph glyph-name="uniFB9F" unicode="&#x6ba;" horiz-adv-x="417" arabic-form="final" 
d="M312 10h125v-10h-125v10zM218 -125q-53 0 -86.5 18t-50 55.5t-16.5 96.5v417h11v-416q0 -83 35 -122t108 -39h92v577h10v-587h-103z" />
    <glyph glyph-name="uniFBA5" unicode="&#x6c0;" horiz-adv-x="407" arabic-form="final" 
d="M302 10h125v-10h-125v10zM301 581h10v-581h-10v581zM226 0q-53 0 -89 18t-54 54t-18 89v202q0 63 15.5 99t50 52t95.5 16h85v-520v-10h-85zM226 10h75v510h-75q-56 0 -89 -15t-47.5 -49t-14.5 -93v-202q0 -49 17 -83t51 -51t83 -17zM198 745q0 47 19.5 66t67.5 19h5v-10
h-5q-43 0 -59.5 -16t-16.5 -59v-95h103v-10h-114v105z" />
    <glyph glyph-name="uniFBA7" unicode="&#x6c1;" horiz-adv-x="410" arabic-form="final" 
d="M305 520h-108q-59 0 -90.5 -30t-31.5 -95v-297h-10v302q0 64 33 97t97 33h120v-520h115v-10h-125v520z" />
    <glyph glyph-name="uniFBA8" unicode="&#x6c1;" horiz-adv-x="215" arabic-form="initial" 
d="M60 -220l50 175l10 -2l-51 -176zM0 10h135v520h10v-530h-145v10z" />
    <glyph glyph-name="uniFBA9" unicode="&#x6c1;" horiz-adv-x="441" arabic-form="medial" 
d="M210 -220q-43 0 -72 15t-43.5 43.5t-14.5 71.5v90h-80v10h80v202h10v-297q0 -65 31.5 -95t90.5 -30h108v220h141v-10h-131v-220h-120zM367 -220l50 175l10 -2l-51 -176z" />
    <glyph glyph-name="uniFBAB" unicode="&#x6be;" horiz-adv-x="595" arabic-form="final" 
d="M490 10h125v-10h-125v10zM40 10h124v-10h-129zM40 10h450v218.5v218.5q0 51 -22 90.5t-62.5 61.5t-92.5 22q-36 0 -77.5 -11t-100.5 -36l-5 9q62 26 104.5 37.5t79.5 11.5q55 0 97.5 -22.5t65.5 -63.5t23 -94v-226v-226h-460v10zM155 0v183v169q0 33 13 58t36 38.5
t53 13.5t53.5 -13.5t36.5 -38.5t13 -58v-169v-183h-10v182v165q0 31 -11.5 55t-33 37t-48.5 13t-48 -13t-32.5 -37t-11.5 -55v-165v-182h-10z" />
    <glyph glyph-name="uniFBAC" unicode="&#x6be;" horiz-adv-x="525" arabic-form="initial" 
d="M0 10h450v218.5v218.5q0 51 -22 90.5t-62.5 61.5t-92.5 22q-36 0 -77.5 -11t-100.5 -36l-5 9q62 26 104.5 37.5t79.5 11.5q55 0 97.5 -22.5t65.5 -63.5t23 -94v-226v-226h-460v10zM115 0v183v169q0 33 13 58t36 38.5t53 13.5t53.5 -13.5t36.5 -38.5t13 -58v-169v-183h-10
v182v165q0 31 -11.5 55t-33 37t-48.5 13t-48 -13t-32.5 -37t-11.5 -55v-165v-182h-10z" />
    <glyph glyph-name="uniFBAD" unicode="&#x6be;" horiz-adv-x="555" arabic-form="medial" 
d="M450 10h125v-10h-125v10zM0 10h450v218.5v218.5q0 51 -22 90.5t-62.5 61.5t-92.5 22q-36 0 -77.5 -11t-100.5 -36l-5 9q62 26 104.5 37.5t79.5 11.5q55 0 97.5 -22.5t65.5 -63.5t23 -94v-226v-226h-460v10zM115 0v183v169q0 33 13 58t36 38.5t53 13.5t53.5 -13.5
t36.5 -38.5t13 -58v-169v-183h-10v182v165q0 31 -11.5 55t-33 37t-48.5 13t-48 -13t-32.5 -37t-11.5 -55v-165v-182h-10z" />
    <glyph glyph-name="uniFBAF" unicode="&#x6d2;" horiz-adv-x="393" arabic-form="final" 
d="M165 -220q-43 0 -72 14.5t-43.5 43.5t-14.5 71v101h378v-10h-368v-86q0 -64 31.5 -94t90.5 -30h119v-10h-121z" />
    <glyph glyph-name="uniFBB1" unicode="&#x6d3;" horiz-adv-x="393" arabic-form="final" 
d="M165 -220q-43 0 -72 14.5t-43.5 43.5t-14.5 71v101h378v-10h-368v-86q0 -64 31.5 -94t90.5 -30h119v-10h-121zM168 235q0 47 19.5 66t67.5 19h5v-10h-5q-43 0 -59.5 -16t-16.5 -59v-95h103v-10h-114v105z" />
    <glyph glyph-name="uniFBFD" unicode="&#x6cc;" horiz-adv-x="683" arabic-form="final" 
d="M578 10h125v-10h-125v10zM165 -125q-47 0 -73.5 26t-26.5 73v373h10v-368q0 -44 24.5 -69t67.5 -25h174v474q0 88 36.5 129.5t115.5 41.5h94v-530h-10v520h-83q-73 0 -108 -39.5t-35 -122.5v-483h-186z" />
    <glyph glyph-name="uniFBFE" unicode="&#x6cc;" horiz-adv-x="215" arabic-form="initial" 
d="M0 10h135v520h10v-530h-145v10zM12 -293v74.5v75.5h5.5h5.5v-75.5v-74.5h-5.5h-5.5zM122 -293v74.5v75.5h5.5h5.5v-75.5v-74.5h-5.5h-5.5z" />
    <glyph glyph-name="uniFBFF" unicode="&#x6cc;" horiz-adv-x="280" arabic-form="medial" 
d="M0 10h135v520h10v-520h155v-10h-300v10zM80 -293v74.5v75.5h5.5h5.5v-75.5v-74.5h-5.5h-5.5zM190 -293v74.5v75.5h5.5h5.5v-75.5v-74.5h-5.5h-5.5z" />
    <glyph glyph-name="uniFE82" unicode="&#x622;" horiz-adv-x="186" arabic-form="final" 
d="M81 10h125v-10h-125v10zM80 811h10v-811h-10v811zM32 881h105v-10h-105v10z" />
    <glyph glyph-name="uniFE84" unicode="&#x623;" horiz-adv-x="186" arabic-form="final" 
d="M81 10h125v-10h-125v10zM80 691h10v-691h-10v691zM43 865q0 38 14 56.5t43 18.5h10v-10h-10q-24 0 -35 -15.5t-11 -49.5v-65h74v-10h-85v75z" />
    <glyph glyph-name="uniFE86" unicode="&#x624;" horiz-adv-x="397" arabic-form="final" 
d="M292 10h125v-10h-125v10zM216 0q-53 0 -89 18t-54 54t-18 89v202q0 63 15.5 99t50 52t95.5 16h85v-520v-10h-85zM216 10h75v510h-75q-56 0 -89 -15t-47.5 -49t-14.5 -93v-202q0 -49 17 -83t51 -51t83 -17zM175 -220q-20 0 -44.5 4.5t-45.5 11.5l3 10q24 -8 46 -11.5
t41 -3.5q48 0 72.5 13t34 42.5t9.5 84.5v589l8 10h2v-610q0 -52 -11.5 -82.5t-38.5 -44t-76 -13.5zM141 715q0 47 19.5 66t67.5 19h5v-10h-5q-43 0 -59.5 -16t-16.5 -59v-95h103v-10h-114v105z" />
    <glyph glyph-name="uniFE88" unicode="&#x625;" horiz-adv-x="186" arabic-form="final" 
d="M81 10h125v-10h-125v10zM80 811h10v-811h-10v811zM98 -155q0 38 14 56.5t43 18.5h10v-10h-10q-24 0 -35 -15.5t-11 -49.5v-65h74v-10h-85v75z" />
    <glyph glyph-name="uniFE8A" unicode="&#x626;" horiz-adv-x="683" arabic-form="final" 
d="M578 10h125v-10h-125v10zM165 -125q-47 0 -73.5 26t-26.5 73v373h10v-368q0 -44 24.5 -69t67.5 -25h174v474q0 88 36.5 129.5t115.5 41.5h94v-530h-10v520h-83q-73 0 -108 -39.5t-35 -122.5v-483h-186zM436 715q0 47 19.5 66t67.5 19h5v-10h-5q-43 0 -59.5 -16t-16.5 -59
v-95h103v-10h-114v105z" />
    <glyph glyph-name="uniFE8B" unicode="&#x626;" horiz-adv-x="175" arabic-form="initial" 
d="M0 10h95v520h10v-530h-105v10zM38 705q0 38 14 56.5t43 18.5h10v-10h-10q-24 0 -35 -15.5t-11 -49.5v-65h74v-10h-85v75z" />
    <glyph glyph-name="uniFE8C" unicode="&#x626;" horiz-adv-x="200" arabic-form="medial" 
d="M0 10h95v520h10v-520h115v-10h-220v10zM58 705q0 38 14 56.5t43 18.5h10v-10h-10q-24 0 -35 -15.5t-11 -49.5v-65h74v-10h-85v75z" />
    <glyph glyph-name="uniFE8E" unicode="&#x627;" horiz-adv-x="186" arabic-form="final" 
d="M81 10h125v-10h-125v10zM80 811h10v-811h-10v811z" />
    <glyph glyph-name="uniFE90" unicode="&#x628;" horiz-adv-x="456" arabic-form="final" 
d="M351 10h125v-10h-125v10zM165 0q-47 0 -73.5 26t-26.5 73v332h10v-327q0 -44 24.5 -69t67.5 -25h183v520h10v-530h-195zM221 -293v74.5v75.5h5.5h5.5v-75.5v-74.5h-5.5h-5.5z" />
    <glyph glyph-name="uniFE91" unicode="&#x628;" horiz-adv-x="175" arabic-form="initial" 
d="M0 10h95v520h10v-530h-105v10zM46 -293v74.5v75.5h5.5h5.5v-75.5v-74.5h-5.5h-5.5z" />
    <glyph glyph-name="uniFE92" unicode="&#x628;" horiz-adv-x="200" arabic-form="medial" 
d="M0 10h95v520h10v-520h115v-10h-220v10zM94 -293v74.5v75.5h5.5h5.5v-75.5v-74.5h-5.5h-5.5z" />
    <glyph glyph-name="uniFE94" unicode="&#x629;" horiz-adv-x="407" arabic-form="final" 
d="M302 10h125v-10h-125v10zM301 581h10v-581h-10v581zM226 0q-53 0 -89 18t-54 54t-18 89v202q0 63 15.5 99t50 52t95.5 16h85v-520v-10h-85zM226 10h75v510h-75q-56 0 -89 -15t-47.5 -49t-14.5 -93v-202q0 -49 17 -83t51 -51t83 -17zM170 639v75.5v74.5h5.5h5.5v-74.5
v-75.5h-5.5h-5.5zM280 639v75.5v74.5h5.5h5.5v-74.5v-75.5h-5.5h-5.5z" />
    <glyph glyph-name="uniFE96" unicode="&#x62a;" horiz-adv-x="456" arabic-form="final" 
d="M351 10h125v-10h-125v10zM165 0q-47 0 -73.5 26t-26.5 73v332h10v-327q0 -44 24.5 -69t67.5 -25h183v520h10v-530h-195zM160 571v75.5v74.5h5.5h5.5v-74.5v-75.5h-5.5h-5.5zM270 571v75.5v74.5h5.5h5.5v-74.5v-75.5h-5.5h-5.5z" />
    <glyph glyph-name="uniFE97" unicode="&#x62a;" horiz-adv-x="215" arabic-form="initial" 
d="M0 10h135v520h10v-530h-145v10zM80 639v75.5v74.5h5.5h5.5v-74.5v-75.5h-5.5h-5.5zM190 639v75.5v74.5h5.5h5.5v-74.5v-75.5h-5.5h-5.5z" />
    <glyph glyph-name="uniFE98" unicode="&#x62a;" horiz-adv-x="280" arabic-form="medial" 
d="M0 10h135v520h10v-520h155v-10h-300v10zM80 639v75.5v74.5h5.5h5.5v-74.5v-75.5h-5.5h-5.5zM190 639v75.5v74.5h5.5h5.5v-74.5v-75.5h-5.5h-5.5z" />
    <glyph glyph-name="uniFE9A" unicode="&#x62b;" horiz-adv-x="456" arabic-form="final" 
d="M351 10h125v-10h-125v10zM165 0q-47 0 -73.5 26t-26.5 73v332h10v-327q0 -44 24.5 -69t67.5 -25h183v520h10v-530h-195zM214 721v55v55h5.5h5.5v-55v-55h-5.5h-5.5zM159 571v75.5v74.5h5.5h5.5v-74.5v-75.5h-5.5h-5.5zM269 571v75.5v74.5h5.5h5.5v-74.5v-75.5h-5.5h-5.5z
" />
    <glyph glyph-name="uniFE9B" unicode="&#x62b;" horiz-adv-x="215" arabic-form="initial" 
d="M0 10h135v520h10v-530h-145v10zM134 789v55v55h5.5h5.5v-55v-55h-5.5h-5.5zM79 639v75.5v74.5h5.5h5.5v-74.5v-75.5h-5.5h-5.5zM189 639v75.5v74.5h5.5h5.5v-74.5v-75.5h-5.5h-5.5z" />
    <glyph glyph-name="uniFE9C" unicode="&#x62b;" horiz-adv-x="280" arabic-form="medial" 
d="M0 10h135v520h10v-520h155v-10h-300v10zM134 789v55v55h5.5h5.5v-55v-55h-5.5h-5.5zM79 639v75.5v74.5h5.5h5.5v-74.5v-75.5h-5.5h-5.5zM189 639v75.5v74.5h5.5h5.5v-74.5v-75.5h-5.5h-5.5z" />
    <glyph glyph-name="uniFE9E" unicode="&#x62c;" horiz-adv-x="395" arabic-form="final" 
d="M290 10h125v-10h-125v10zM65 -109q0 41 14 67.5t40.5 39t65.5 12.5h105v202.5v202.5q0 31 -11.5 54.5t-32.5 36.5t-48 13q-25 0 -50.5 -7.5t-52.5 -22.5l-4 9q31 16 56.5 24t50.5 8q30 0 53 -13.5t36 -38.5t13 -58v-210v-210h-113q-54 0 -83 -25.5t-29 -88.5v-106h-10
v111zM201 -293v74.5v75.5h5.5h5.5v-75.5v-74.5h-5.5h-5.5z" />
    <glyph glyph-name="uniFE9F" unicode="&#x62c;" horiz-adv-x="303" arabic-form="initial" 
d="M0 10h228v202.5v202.5q0 31 -11.5 54.5t-32.5 36.5t-48 13q-25 0 -50.5 -7.5t-52.5 -22.5l-4 9q31 16 56.5 24t50.5 8q30 0 53 -13.5t36 -38.5t13 -58v-210v-210h-238v10zM120 -293v74.5v75.5h5.5h5.5v-75.5v-74.5h-5.5h-5.5z" />
    <glyph glyph-name="uniFEA0" unicode="&#x62c;" horiz-adv-x="333" arabic-form="medial" 
d="M228 10h125v-10h-125v10zM0 10h228v202.5v202.5q0 31 -11.5 54.5t-32.5 36.5t-48 13q-25 0 -50.5 -7.5t-52.5 -22.5l-4 9q31 16 56.5 24t50.5 8q30 0 53 -13.5t36 -38.5t13 -58v-210v-210h-238v10zM171 -293v74.5v75.5h5.5h5.5v-75.5v-74.5h-5.5h-5.5z" />
    <glyph glyph-name="uniFEA2" unicode="&#x62d;" horiz-adv-x="395" arabic-form="final" 
d="M290 10h125v-10h-125v10zM65 -109q0 41 14 67.5t40.5 39t65.5 12.5h105v202.5v202.5q0 31 -11.5 54.5t-32.5 36.5t-48 13q-25 0 -50.5 -7.5t-52.5 -22.5l-4 9q31 16 56.5 24t50.5 8q30 0 53 -13.5t36 -38.5t13 -58v-210v-210h-113q-54 0 -83 -25.5t-29 -88.5v-106h-10
v111z" />
    <glyph glyph-name="uniFEA3" unicode="&#x62d;" horiz-adv-x="303" arabic-form="initial" 
d="M0 10h228v202.5v202.5q0 31 -11.5 54.5t-32.5 36.5t-48 13q-25 0 -50.5 -7.5t-52.5 -22.5l-4 9q31 16 56.5 24t50.5 8q30 0 53 -13.5t36 -38.5t13 -58v-210v-210h-238v10z" />
    <glyph glyph-name="uniFEA4" unicode="&#x62d;" horiz-adv-x="333" arabic-form="medial" 
d="M228 10h125v-10h-125v10zM0 10h228v202.5v202.5q0 31 -11.5 54.5t-32.5 36.5t-48 13q-25 0 -50.5 -7.5t-52.5 -22.5l-4 9q31 16 56.5 24t50.5 8q30 0 53 -13.5t36 -38.5t13 -58v-210v-210h-238v10z" />
    <glyph glyph-name="uniFEA6" unicode="&#x62e;" horiz-adv-x="395" arabic-form="final" 
d="M290 10h125v-10h-125v10zM65 -109q0 41 14 67.5t40.5 39t65.5 12.5h105v202.5v202.5q0 31 -11.5 54.5t-32.5 36.5t-48 13q-25 0 -50.5 -7.5t-52.5 -22.5l-4 9q31 16 56.5 24t50.5 8q30 0 53 -13.5t36 -38.5t13 -58v-210v-210h-113q-54 0 -83 -25.5t-29 -88.5v-106h-10
v111zM193 639v75.5v74.5h5h5v-74.5v-75.5h-5h-5z" />
    <glyph glyph-name="uniFEA7" unicode="&#x62e;" horiz-adv-x="303" arabic-form="initial" 
d="M0 10h228v202.5v202.5q0 31 -11.5 54.5t-32.5 36.5t-48 13q-25 0 -50.5 -7.5t-52.5 -22.5l-4 9q31 16 56.5 24t50.5 8q30 0 53 -13.5t36 -38.5t13 -58v-210v-210h-238v10zM131 639v75.5v74.5h5h5v-74.5v-75.5h-5h-5z" />
    <glyph glyph-name="uniFEA8" unicode="&#x62e;" horiz-adv-x="333" arabic-form="medial" 
d="M228 10h125v-10h-125v10zM0 10h228v202.5v202.5q0 31 -11.5 54.5t-32.5 36.5t-48 13q-25 0 -50.5 -7.5t-52.5 -22.5l-4 9q31 16 56.5 24t50.5 8q30 0 53 -13.5t36 -38.5t13 -58v-210v-210h-238v10zM131 639v75.5v74.5h5h5v-74.5v-75.5h-5h-5z" />
    <glyph glyph-name="uniFEAA" unicode="&#x62f;" horiz-adv-x="369" arabic-form="final" 
d="M264 10h125v-10h-125v10zM35 10h228v386q0 64 -31.5 94t-90.5 30h-12v10h14q64 0 97 -33t33 -96v-401h-238v10z" />
    <glyph glyph-name="uniFEAC" unicode="&#x630;" horiz-adv-x="369" arabic-form="final" 
d="M264 10h125v-10h-125v10zM35 10h228v386q0 64 -31.5 94t-90.5 30h-12v10h14q64 0 97 -33t33 -96v-401h-238v10zM138 639v75.5v74.5h5h5v-74.5v-75.5h-5h-5z" />
    <glyph glyph-name="uniFEAE" unicode="&#x631;" horiz-adv-x="226" arabic-form="final" 
d="M121 10h125v-10h-125v10zM45 -220q-29 0 -65 10l3 10q17 -4 32.5 -6.5t29.5 -2.5q38 0 56.5 20t18.5 67v652h10v-653q0 -35 -9.5 -56t-28 -31t-47.5 -10z" />
    <glyph glyph-name="uniFEB0" unicode="&#x632;" horiz-adv-x="226" arabic-form="final" 
d="M121 10h125v-10h-125v10zM45 -220q-29 0 -65 10l3 10q17 -4 32.5 -6.5t29.5 -2.5q38 0 56.5 20t18.5 67v652h10v-653q0 -35 -9.5 -56t-28 -31t-47.5 -10zM120 639v75.5v74.5h5h5v-74.5v-75.5h-5h-5z" />
    <glyph glyph-name="uniFEB2" unicode="&#x633;" horiz-adv-x="868" arabic-form="final" 
d="M868 0q-37 0 -60 22t-33.5 63t-9.5 99l6 26q0 -68 10.5 -112t32 -66t54.5 -22h20v-10h-20zM656 -10q-33 0 -60.5 14t-44.5 41.5t-19 65.5q-6 -54 -40.5 -82.5t-109.5 -28.5h-71v10h70q79 0 112 35t33 112v305h10v-305q0 -56 16.5 -91t43.5 -50t60 -15q52 0 78.5 33.5
t26.5 103.5v403h10v-403q0 -76 -29 -112t-86 -36zM218 -125q-53 0 -86.5 18t-50 55.5t-16.5 96.5v417h11v-416q0 -83 35 -122t108 -39h92v577h10v-587h-103z" />
    <glyph glyph-name="uniFEB3" unicode="&#x633;" horiz-adv-x="640" arabic-form="initial" 
d="M0 10h115v452h10v-462h-125v10zM460 -10q-33 0 -60.5 14t-44.5 41.5t-19 65.5q-6 -54 -40.5 -82.5t-109.5 -28.5h-71v10h70q79 0 112 35t33 112v305h10v-305q0 -56 16.5 -91t43.5 -50t60 -15q52 0 78.5 33.5t26.5 103.5v403h10v-403q0 -76 -29 -112t-86 -36z" />
    <glyph glyph-name="uniFEB4" unicode="&#x633;" horiz-adv-x="672" arabic-form="medial" 
d="M672 0q-37 0 -60 22t-33.5 63t-9.5 99l6 26q0 -68 10.5 -112t32 -66t54.5 -22h20v-10h-20zM0 10h115v452h10v-462h-125v10zM460 -10q-33 0 -60.5 14t-44.5 41.5t-19 65.5q-6 -54 -40.5 -82.5t-109.5 -28.5h-71v10h70q79 0 112 35t33 112v305h10v-305q0 -56 16.5 -91
t43.5 -50t60 -15q52 0 78.5 33.5t26.5 103.5v403h10v-403q0 -76 -29 -112t-86 -36z" />
    <glyph glyph-name="uniFEB6" unicode="&#x634;" horiz-adv-x="868" arabic-form="final" 
d="M868 0q-37 0 -60 22t-33.5 63t-9.5 99l6 26q0 -68 10.5 -112t32 -66t54.5 -22h20v-10h-20zM656 -10q-33 0 -60.5 14t-44.5 41.5t-19 65.5q-6 -54 -40.5 -82.5t-109.5 -28.5h-71v10h70q79 0 112 35t33 112v305h10v-305q0 -56 16.5 -91t43.5 -50t60 -15q52 0 78.5 33.5
t26.5 103.5v403h10v-403q0 -76 -29 -112t-86 -36zM218 -125q-53 0 -86.5 18t-50 55.5t-16.5 96.5v417h11v-416q0 -83 35 -122t108 -39h92v577h10v-587h-103zM525 721v55v55h5.5h5.5v-55v-55h-5.5h-5.5zM470 571v75.5v74.5h5.5h5.5v-74.5v-75.5h-5.5h-5.5zM580 571v75.5v74.5
h5.5h5.5v-74.5v-75.5h-5.5h-5.5z" />
    <glyph glyph-name="uniFEB7" unicode="&#x634;" horiz-adv-x="640" arabic-form="initial" 
d="M0 10h115v452h10v-462h-125v10zM460 -10q-33 0 -60.5 14t-44.5 41.5t-19 65.5q-6 -54 -40.5 -82.5t-109.5 -28.5h-71v10h70q79 0 112 35t33 112v305h10v-305q0 -56 16.5 -91t43.5 -50t60 -15q52 0 78.5 33.5t26.5 103.5v403h10v-403q0 -76 -29 -112t-86 -36zM329 721v55
v55h5.5h5.5v-55v-55h-5.5h-5.5zM274 571v75.5v74.5h5.5h5.5v-74.5v-75.5h-5.5h-5.5zM384 571v75.5v74.5h5.5h5.5v-74.5v-75.5h-5.5h-5.5z" />
    <glyph glyph-name="uniFEB8" unicode="&#x634;" horiz-adv-x="672" arabic-form="medial" 
d="M672 0q-37 0 -60 22t-33.5 63t-9.5 99l6 26q0 -68 10.5 -112t32 -66t54.5 -22h20v-10h-20zM0 10h115v452h10v-462h-125v10zM460 -10q-33 0 -60.5 14t-44.5 41.5t-19 65.5q-6 -54 -40.5 -82.5t-109.5 -28.5h-71v10h70q79 0 112 35t33 112v305h10v-305q0 -56 16.5 -91
t43.5 -50t60 -15q52 0 78.5 33.5t26.5 103.5v403h10v-403q0 -76 -29 -112t-86 -36zM329 721v55v55h5.5h5.5v-55v-55h-5.5h-5.5zM274 571v75.5v74.5h5.5h5.5v-74.5v-75.5h-5.5h-5.5zM384 571v75.5v74.5h5.5h5.5v-74.5v-75.5h-5.5h-5.5z" />
    <glyph glyph-name="uniFEBA" unicode="&#x635;" horiz-adv-x="692" arabic-form="final" 
d="M587 10h125v-10h-125v10zM218 -125q-53 0 -86.5 18t-50 55.5t-16.5 96.5v417h11v-416q0 -83 35 -122t108 -39h92v696h10v-706h-103zM311 581h10v-51h145q43 0 72 -14.5t43.5 -43.5t14.5 -71v-401h-285v581zM586 10v386q0 64 -31.5 94t-90.5 30h-143v-510h265z" />
    <glyph glyph-name="uniFEBB" unicode="&#x635;" horiz-adv-x="465" arabic-form="initial" 
d="M0 10h120v-10h-120v10zM115 581h10v-51h145q43 0 72 -14.5t43.5 -43.5t14.5 -71v-401h-285v581zM390 10v386q0 64 -31.5 94t-90.5 30h-143v-510h265z" />
    <glyph glyph-name="uniFEBC" unicode="&#x635;" horiz-adv-x="496" arabic-form="medial" 
d="M391 10h125v-10h-125v10zM0 10h120v-10h-120v10zM115 581h10v-51h145q43 0 72 -14.5t43.5 -43.5t14.5 -71v-401h-285v581zM390 10v386q0 64 -31.5 94t-90.5 30h-143v-510h265z" />
    <glyph glyph-name="uniFEBE" unicode="&#x636;" horiz-adv-x="692" arabic-form="final" 
d="M587 10h125v-10h-125v10zM218 -125q-53 0 -86.5 18t-50 55.5t-16.5 96.5v417h11v-416q0 -83 35 -122t108 -39h92v696h10v-706h-103zM311 581h10v-51h145q43 0 72 -14.5t43.5 -43.5t14.5 -71v-401h-285v581zM586 10v386q0 64 -31.5 94t-90.5 30h-143v-510h265zM442 639
v75.5v74.5h5h5v-74.5v-75.5h-5h-5z" />
    <glyph glyph-name="uniFEBF" unicode="&#x636;" horiz-adv-x="465" arabic-form="initial" 
d="M0 10h120v-10h-120v10zM115 581h10v-51h145q43 0 72 -14.5t43.5 -43.5t14.5 -71v-401h-285v581zM390 10v386q0 64 -31.5 94t-90.5 30h-143v-510h265zM242 639v75.5v74.5h5h5v-74.5v-75.5h-5h-5z" />
    <glyph glyph-name="uniFEC0" unicode="&#x636;" horiz-adv-x="496" arabic-form="medial" 
d="M391 10h125v-10h-125v10zM0 10h120v-10h-120v10zM115 581h10v-51h145q43 0 72 -14.5t43.5 -43.5t14.5 -71v-401h-285v581zM390 10v386q0 64 -31.5 94t-90.5 30h-143v-510h265zM242 639v75.5v74.5h5h5v-74.5v-75.5h-5h-5z" />
    <glyph glyph-name="uniFEC2" unicode="&#x637;" horiz-adv-x="495" arabic-form="final" 
d="M390 10h125v-10h-125v10zM40 10h74v801h10v-811h-89zM114 581h10v-51h145q43 0 72 -14.5t43.5 -43.5t14.5 -71v-401h-285v581zM389 10v386q0 64 -31.5 94t-90.5 30h-143v-510h265z" />
    <glyph glyph-name="uniFEC3" unicode="&#x637;" horiz-adv-x="445" arabic-form="initial" 
d="M0 10h95v801h10v-811h-105v10zM95 581h10v-51h145q43 0 72 -14.5t43.5 -43.5t14.5 -71v-401h-285v581zM370 10v386q0 64 -31.5 94t-90.5 30h-143v-510h265z" />
    <glyph glyph-name="uniFEC4" unicode="&#x637;" horiz-adv-x="476" arabic-form="medial" 
d="M371 10h125v-10h-125v10zM0 10h95v801h10v-811h-105v10zM95 581h10v-51h145q43 0 72 -14.5t43.5 -43.5t14.5 -71v-401h-285v581zM370 10v386q0 64 -31.5 94t-90.5 30h-143v-510h265z" />
    <glyph glyph-name="uniFEC6" unicode="&#x638;" horiz-adv-x="495" arabic-form="final" 
d="M390 10h125v-10h-125v10zM40 10h74v801h10v-811h-89zM114 581h10v-51h145q43 0 72 -14.5t43.5 -43.5t14.5 -71v-401h-285v581zM389 10v386q0 64 -31.5 94t-90.5 30h-143v-510h265zM269 639v75.5v74.5h5h5v-74.5v-75.5h-5h-5z" />
    <glyph glyph-name="uniFEC7" unicode="&#x638;" horiz-adv-x="445" arabic-form="initial" 
d="M0 10h95v801h10v-811h-105v10zM95 581h10v-51h145q43 0 72 -14.5t43.5 -43.5t14.5 -71v-401h-285v581zM370 10v386q0 64 -31.5 94t-90.5 30h-143v-510h265zM250 639v75.5v74.5h5h5v-74.5v-75.5h-5h-5z" />
    <glyph glyph-name="uniFEC8" unicode="&#x638;" horiz-adv-x="476" arabic-form="medial" 
d="M371 10h125v-10h-125v10zM0 10h95v801h10v-811h-105v10zM95 581h10v-51h145q43 0 72 -14.5t43.5 -43.5t14.5 -71v-401h-285v581zM370 10v386q0 64 -31.5 94t-90.5 30h-143v-510h265zM250 639v75.5v74.5h5h5v-74.5v-75.5h-5h-5z" />
    <glyph glyph-name="uniFECA" unicode="&#x639;" horiz-adv-x="491" arabic-form="final" 
d="M105 485q48 24 87.5 34.5t81.5 10.5q41 0 80.5 -10.5t88.5 -34.5l-119 -485h-107zM65 -109q0 41 14 67.5t40.5 39t65.5 12.5h326v-10h-324q-54 0 -83 -25.5t-29 -88.5v-106h-10v111zM317 10l114 469q-42 22 -78.5 31t-78.5 9q-38 0 -74.5 -9t-82.5 -30l107 -470h93z" />
    <glyph glyph-name="uniFECB" unicode="&#x639;" horiz-adv-x="375" arabic-form="initial" 
d="M0 10h97v205v205q0 33 13 58t36 38.5t53 13.5q25 0 49.5 -5.5t57.5 -16.5l-4 -9q-29 10 -54 15t-49 5q-41 0 -66.5 -28.5t-25.5 -75.5v-202.5v-202.5h223v-10h-330v10z" />
    <glyph glyph-name="uniFECC" unicode="&#x639;" horiz-adv-x="434" arabic-form="medial" 
d="M49 485q48 24 87.5 34.5t81.5 10.5q41 0 80.5 -10.5t88.5 -34.5l-119 -485h-107zM261 10l114 469q-42 22 -78.5 31t-78.5 9q-38 0 -74.5 -9t-82.5 -30l107 -470h93zM0 10h454v-10h-454v10z" />
    <glyph glyph-name="uniFECE" unicode="&#x63a;" horiz-adv-x="491" arabic-form="final" 
d="M105 485q48 24 87.5 34.5t81.5 10.5q41 0 80.5 -10.5t88.5 -34.5l-119 -485h-107zM65 -109q0 41 14 67.5t40.5 39t65.5 12.5h326v-10h-324q-54 0 -83 -25.5t-29 -88.5v-106h-10v111zM317 10l114 469q-42 22 -78.5 31t-78.5 9q-38 0 -74.5 -9t-82.5 -30l107 -470h93z
M269 639v75.5v74.5h5h5v-74.5v-75.5h-5h-5z" />
    <glyph glyph-name="uniFECF" unicode="&#x63a;" horiz-adv-x="375" arabic-form="initial" 
d="M0 10h97v205v205q0 33 13 58t36 38.5t53 13.5q25 0 49.5 -5.5t57.5 -16.5l-4 -9q-29 10 -54 15t-49 5q-41 0 -66.5 -28.5t-25.5 -75.5v-202.5v-202.5h223v-10h-330v10zM194 639v75.5v74.5h5h5v-74.5v-75.5h-5h-5z" />
    <glyph glyph-name="uniFED0" unicode="&#x63a;" horiz-adv-x="434" arabic-form="medial" 
d="M49 485q48 24 87.5 34.5t81.5 10.5q41 0 80.5 -10.5t88.5 -34.5l-119 -485h-107zM261 10l114 469q-42 22 -78.5 31t-78.5 9q-38 0 -74.5 -9t-82.5 -30l107 -470h93zM0 10h454v-10h-454v10zM213 639v75.5v74.5h5h5v-74.5v-75.5h-5h-5z" />
    <glyph glyph-name="uniFED2" unicode="&#x641;" horiz-adv-x="592" arabic-form="final" 
d="M487 10h125v-10h-125v10zM165 0q-47 0 -73.5 26t-26.5 73v332h10v-327q0 -44 24.5 -69t67.5 -25h329v-10h-331zM411 0q-53 0 -89 18t-54 54t-18 89v202q0 63 15.5 99t50 52t95.5 16h85v-520v-10h-85zM411 10h75v510h-75q-56 0 -89 -15t-47.5 -49t-14.5 -93v-202
q0 -49 17 -83t51 -51t83 -17zM406 639v75.5v74.5h5h5v-74.5v-75.5h-5h-5z" />
    <glyph glyph-name="uniFED3" unicode="&#x641;" horiz-adv-x="401" arabic-form="initial" 
d="M0 10h331v-10h-331v10zM246 0q-53 0 -89 18t-54 54t-18 89v202q0 63 15.5 99t50 52t95.5 16h85v-520v-10h-85zM246 10h75v510h-75q-56 0 -89 -15t-47.5 -49t-14.5 -93v-202q0 -49 17 -83t51 -51t83 -17zM216 639v75.5v74.5h5h5v-74.5v-75.5h-5h-5z" />
    <glyph glyph-name="uniFED4" unicode="&#x641;" horiz-adv-x="427" arabic-form="medial" 
d="M322 10h125v-10h-125v10zM0 10h331v-10h-331v10zM246 0q-53 0 -89 18t-54 54t-18 89v202q0 63 15.5 99t50 52t95.5 16h85v-520v-10h-85zM246 10h75v510h-75q-56 0 -89 -15t-47.5 -49t-14.5 -93v-202q0 -49 17 -83t51 -51t83 -17zM216 639v75.5v74.5h5h5v-74.5v-75.5h-5
h-5z" />
    <glyph glyph-name="uniFED6" unicode="&#x642;" horiz-adv-x="566" arabic-form="final" 
d="M461 10h125v-10h-125v10zM165 -220q-47 0 -73.5 26t-26.5 73v373h10v-368q0 -44 24.5 -69t67.5 -25h293v730l10 10v-750h-305zM385 0q-53 0 -89 18t-54 54t-18 89v202q0 63 15.5 99t50 52t95.5 16h85v-530h-85zM460 10v510h-75q-56 0 -89 -15t-47.5 -49t-14.5 -93v-202
q0 -49 17 -83t51 -51t83 -17h75zM325 639v75.5v74.5h5.5h5.5v-74.5v-75.5h-5.5h-5.5zM435 639v75.5v74.5h5.5h5.5v-74.5v-75.5h-5.5h-5.5z" />
    <glyph glyph-name="uniFED7" unicode="&#x642;" horiz-adv-x="401" arabic-form="initial" 
d="M0 10h331v-10h-331v10zM246 0q-53 0 -89 18t-54 54t-18 89v202q0 63 15.5 99t50 52t95.5 16h85v-520v-10h-85zM246 10h75v510h-75q-56 0 -89 -15t-47.5 -49t-14.5 -93v-202q0 -49 17 -83t51 -51t83 -17zM161 639v75.5v74.5h5.5h5.5v-74.5v-75.5h-5.5h-5.5zM271 639v75.5
v74.5h5.5h5.5v-74.5v-75.5h-5.5h-5.5z" />
    <glyph glyph-name="uniFED8" unicode="&#x642;" horiz-adv-x="427" arabic-form="medial" 
d="M322 10h125v-10h-125v10zM0 10h331v-10h-331v10zM246 0q-53 0 -89 18t-54 54t-18 89v202q0 63 15.5 99t50 52t95.5 16h85v-520v-10h-85zM246 10h75v510h-75q-56 0 -89 -15t-47.5 -49t-14.5 -93v-202q0 -49 17 -83t51 -51t83 -17zM161 639v75.5v74.5h5.5h5.5v-74.5v-75.5
h-5.5h-5.5zM271 639v75.5v74.5h5.5h5.5v-74.5v-75.5h-5.5h-5.5z" />
    <glyph glyph-name="uniFEDA" unicode="&#x643;" horiz-adv-x="456" arabic-form="final" 
d="M351 10h125v-10h-125v10zM165 0q-47 0 -73.5 26t-26.5 73v332h10v-327q0 -44 24.5 -69t67.5 -25h183v801h10v-811h-195zM156 540h103v30q0 21 -12 33t-34 12h-45q-5 3 -8 10l67 96h13l-70 -100l-4 4h47q28 0 42.5 -14.5t14.5 -40.5v-40h-114v10z" />
    <glyph glyph-name="uniFEDB" unicode="&#x643;" horiz-adv-x="356" arabic-form="initial" 
d="M0 10h281v318q0 64 -31.5 94t-90.5 30h-106q-3 2 -5.5 4.5t-4.5 5.5l177 349h12l-177 -349h106q64 0 97 -32.5t33 -96.5v-333h-291v10z" />
    <glyph glyph-name="uniFEDC" unicode="&#x643;" horiz-adv-x="387" arabic-form="medial" 
d="M282 10h125v-10h-125v10zM0 10h281v318q0 64 -31.5 94t-90.5 30h-106q-3 2 -5.5 4.5t-4.5 5.5l177 349h12l-177 -349h106q64 0 97 -32.5t33 -96.5v-333h-291v10z" />
    <glyph glyph-name="uniFEDE" unicode="&#x644;" horiz-adv-x="417" arabic-form="final" 
d="M312 10h125v-10h-125v10zM218 -125q-53 0 -86.5 18t-50 55.5t-16.5 96.5v417h11v-416q0 -83 35 -122t108 -39h92v926h10v-936h-103z" />
    <glyph glyph-name="uniFEDF" unicode="&#x644;" horiz-adv-x="185" arabic-form="initial" 
d="M0 10h95l10 -10h-105v10zM95 811h10v-811h-10v811z" />
    <glyph glyph-name="uniFEE0" unicode="&#x644;" horiz-adv-x="200" arabic-form="medial" 
d="M0 10h220v-10h-220v10zM95 811h10v-811h-10v811z" />
    <glyph glyph-name="uniFEE2" unicode="&#x645;" horiz-adv-x="521" arabic-form="final" 
d="M415 10h126v-10h-126v10zM303 -104q-43 0 -70 19.5t-40.5 59.5t-13.5 103v272q0 62 13.5 101.5t40.5 59t70 19.5h1q42 0 69 -19.5t40 -59t13 -101.5v-272q0 -63 -13 -103t-40 -59.5t-69 -19.5h-1zM304 -94q39 0 63.5 18.5t36.5 56.5t12 97v272q0 59 -12 96.5t-36.5 55.5
t-63.5 18h-1q-39 0 -64 -18t-37.5 -55.5t-12.5 -96.5v-272q0 -59 12.5 -97t37.5 -56.5t64 -18.5h1zM65 100q0 62 30.5 90.5t89.5 28.5h4v-10h-2q-54 0 -83 -25.5t-29 -88.5v-315h-10v320z" />
    <glyph glyph-name="uniFEE3" unicode="&#x645;" horiz-adv-x="421" arabic-form="initial" 
d="M0 10h125v-10h-125v10zM238 -104q-43 0 -70 19.5t-40.5 59.5t-13.5 103v272q0 62 13.5 101.5t40.5 59t70 19.5h1q42 0 69 -19.5t40 -59t13 -101.5v-272q0 -63 -13 -103t-40 -59.5t-69 -19.5h-1zM239 -94q39 0 63.5 18.5t36.5 56.5t12 97v272q0 59 -12 96.5t-36.5 55.5
t-63.5 18h-1q-39 0 -64 -18t-37.5 -55.5t-12.5 -96.5v-272q0 -59 12.5 -97t37.5 -56.5t64 -18.5h1z" />
    <glyph glyph-name="uniFEE4" unicode="&#x645;" horiz-adv-x="475" arabic-form="medial" 
d="M350 10h145v-10h-145v10zM0 10h125v-10h-125v10zM238 -104q-43 0 -70 19.5t-40.5 59.5t-13.5 103v272q0 62 13.5 101.5t40.5 59t70 19.5h1q42 0 69 -19.5t40 -59t13 -101.5v-272q0 -63 -13 -103t-40 -59.5t-69 -19.5h-1zM239 -94q39 0 63.5 18.5t36.5 56.5t12 97v272
q0 59 -12 96.5t-36.5 55.5t-63.5 18h-1q-39 0 -64 -18t-37.5 -55.5t-12.5 -96.5v-272q0 -59 12.5 -97t37.5 -56.5t64 -18.5h1z" />
    <glyph glyph-name="uniFEE6" unicode="&#x646;" horiz-adv-x="417" arabic-form="final" 
d="M312 10h125v-10h-125v10zM218 -125q-53 0 -86.5 18t-50 55.5t-16.5 96.5v417h11v-416q0 -83 35 -122t108 -39h92v577h10v-587h-103zM184 571v75.5v74.5h5h5v-74.5v-75.5h-5h-5z" />
    <glyph glyph-name="uniFEE7" unicode="&#x646;" horiz-adv-x="175" arabic-form="initial" 
d="M0 10h95v520h10v-530h-105v10zM95 639v75.5v74.5h5h5v-74.5v-75.5h-5h-5z" />
    <glyph glyph-name="uniFEE8" unicode="&#x646;" horiz-adv-x="200" arabic-form="medial" 
d="M0 10h95v520h10v-520h115v-10h-220v10zM95 639v75.5v74.5h5h5v-74.5v-75.5h-5h-5z" />
    <glyph glyph-name="uniFEE9" unicode="&#x647;" horiz-adv-x="565" arabic-form="isolated" 
d="M40 10h124v-10h-129zM40 10h450v218.5v218.5q0 51 -22 90.5t-62.5 61.5t-92.5 22q-36 0 -77.5 -11t-100.5 -36l-5 9q62 26 104.5 37.5t79.5 11.5q55 0 97.5 -22.5t65.5 -63.5t23 -94v-226v-226h-460v10zM155 0v183v169q0 33 13 58t36 38.5t53 13.5t53.5 -13.5t36.5 -38.5
t13 -58v-169v-183h-10v182v165q0 31 -11.5 55t-33 37t-48.5 13t-48 -13t-32.5 -37t-11.5 -55v-165v-182h-10z" />
    <glyph glyph-name="uniFEEA" unicode="&#x647;" horiz-adv-x="407" arabic-form="final" 
d="M302 10h125v-10h-125v10zM301 581h10v-581h-10v581zM226 0q-53 0 -89 18t-54 54t-18 89v202q0 63 15.5 99t50 52t95.5 16h85v-520v-10h-85zM226 10h75v510h-75q-56 0 -89 -15t-47.5 -49t-14.5 -93v-202q0 -49 17 -83t51 -51t83 -17z" />
    <glyph glyph-name="uniFEEB" unicode="&#x647;" horiz-adv-x="525" arabic-form="initial" 
d="M0 10h450v218.5v218.5q0 51 -22 90.5t-62.5 61.5t-92.5 22q-36 0 -77.5 -11t-100.5 -36l-5 9q62 26 104.5 37.5t79.5 11.5q55 0 97.5 -22.5t65.5 -63.5t23 -94v-226v-226h-460v10zM115 0v183v169q0 33 13 58t36 38.5t53 13.5t53.5 -13.5t36.5 -38.5t13 -58v-169v-183h-10
v182v165q0 31 -11.5 55t-33 37t-48.5 13t-48 -13t-32.5 -37t-11.5 -55v-165v-182h-10z" />
    <glyph glyph-name="uniFEEC" unicode="&#x647;" horiz-adv-x="555" arabic-form="medial" 
d="M450 10h125v-10h-125v10zM0 10h450v218.5v218.5q0 51 -22 90.5t-62.5 61.5t-92.5 22q-36 0 -77.5 -11t-100.5 -36l-5 9q62 26 104.5 37.5t79.5 11.5q55 0 97.5 -22.5t65.5 -63.5t23 -94v-226v-226h-460v10zM115 0v183v169q0 33 13 58t36 38.5t53 13.5t53.5 -13.5
t36.5 -38.5t13 -58v-169v-183h-10v182v165q0 31 -11.5 55t-33 37t-48.5 13t-48 -13t-32.5 -37t-11.5 -55v-165v-182h-10z" />
    <glyph glyph-name="uniFEEE" unicode="&#x648;" horiz-adv-x="397" arabic-form="final" 
d="M292 10h125v-10h-125v10zM216 0q-53 0 -89 18t-54 54t-18 89v202q0 63 15.5 99t50 52t95.5 16h85v-520v-10h-85zM216 10h75v510h-75q-56 0 -89 -15t-47.5 -49t-14.5 -93v-202q0 -49 17 -83t51 -51t83 -17zM175 -220q-20 0 -44.5 4.5t-45.5 11.5l3 10q24 -8 46 -11.5
t41 -3.5q48 0 72.5 13t34 42.5t9.5 84.5v589l8 10h2v-610q0 -52 -11.5 -82.5t-38.5 -44t-76 -13.5z" />
    <glyph glyph-name="uniFEF0" unicode="&#x649;" horiz-adv-x="683" arabic-form="final" 
d="M578 10h125v-10h-125v10zM165 -125q-47 0 -73.5 26t-26.5 73v373h10v-368q0 -44 24.5 -69t67.5 -25h174v474q0 88 36.5 129.5t115.5 41.5h94v-530h-10v520h-83q-73 0 -108 -39.5t-35 -122.5v-483h-186z" />
    <glyph glyph-name="uniFEF2" unicode="&#x64a;" horiz-adv-x="683" arabic-form="final" 
d="M578 10h125v-10h-125v10zM165 -125q-47 0 -73.5 26t-26.5 73v373h10v-368q0 -44 24.5 -69t67.5 -25h174v474q0 88 36.5 129.5t115.5 41.5h94v-530h-10v520h-83q-73 0 -108 -39.5t-35 -122.5v-483h-186zM165 -418v74.5v75.5h5.5h5.5v-75.5v-74.5h-5.5h-5.5zM275 -418v74.5
v75.5h5.5h5.5v-75.5v-74.5h-5.5h-5.5z" />
    <glyph glyph-name="uniFEF3" unicode="&#x64a;" horiz-adv-x="215" arabic-form="initial" 
d="M0 10h135v520h10v-530h-145v10zM12 -293v74.5v75.5h5.5h5.5v-75.5v-74.5h-5.5h-5.5zM122 -293v74.5v75.5h5.5h5.5v-75.5v-74.5h-5.5h-5.5z" />
    <glyph glyph-name="uniFEF4" unicode="&#x64a;" horiz-adv-x="280" arabic-form="medial" 
d="M0 10h135v520h10v-520h155v-10h-300v10zM80 -293v74.5v75.5h5.5h5.5v-75.5v-74.5h-5.5h-5.5zM190 -293v74.5v75.5h5.5h5.5v-75.5v-74.5h-5.5h-5.5z" />
    <glyph glyph-name=".notdef" horiz-adv-x="500" 
 />
    <glyph glyph-name=".null" horiz-adv-x="500" 
 />
    <glyph glyph-name="nonmarkingreturn" unicode="&#xd;" horiz-adv-x="500" 
 />
    <glyph glyph-name="space" unicode=" " horiz-adv-x="165" 
 />
    <glyph glyph-name="exclam" unicode="!" horiz-adv-x="141" 
d="M66 811h10v-561h-10v561zM65 0v75.5v74.5h5.5h5.5v-74.5v-75.5h-5.5h-5.5z" />
    <glyph glyph-name="quotedbl" unicode="&#x22;" horiz-adv-x="260" 
d="M70 812h12l-1 -274h-10zM178 812h12l-1 -274h-10z" />
    <glyph glyph-name="numbersign" unicode="#" horiz-adv-x="596" 
d="M176 262h-111l2 12h111l39 283h-110l2 11h110l34 243h12l-34 -243h190l33 243h12l-33 -243h98l-2 -11h-98l-38 -283h96l-2 -12h-96l-36 -262h-12l36 262h-191l-36 -262h-12zM381 274l38 283h-190l-39 -283h191z" />
    <glyph glyph-name="dollar" unicode="$" horiz-adv-x="398" 
d="M189 419h11v-513h-11v513zM189 903h11v-484h-11v484zM195 -10q-47 0 -83 13.5t-68 41.5l4 10q31 -29 65.5 -41.5t81.5 -12.5q42 0 76 22t53 63t19 94v28q0 49 -13 82.5t-44 62.5t-90 62q-64 36 -97.5 67.5t-46 66.5t-12.5 86v25q0 46 18.5 83t54.5 58t88 21
q34 0 67.5 -9.5t65.5 -27.5l-3 -10q-31 18 -63.5 27.5t-66.5 9.5q-49 0 -83 -20t-51 -54.5t-17 -77.5v-27q0 -50 14 -84t46.5 -62.5t92.5 -62.5q61 -34 93.5 -65.5t44.5 -66.5t12 -84v-28q0 -56 -20.5 -99t-56.5 -67t-81 -24z" />
    <glyph glyph-name="percent" unicode="%" horiz-adv-x="687" 
d="M173 350q-55 0 -86.5 30.5t-31.5 90.5v230q0 60 31.5 90.5t86.5 30.5q54 0 85.5 -30.5t31.5 -90.5v-230q0 -56 -28.5 -88.5t-88.5 -32.5zM173 361q50 0 78 27.5t28 82.5v230q0 51 -25.5 80.5t-80.5 29.5t-81 -29.5t-26 -80.5v-230q0 -51 26 -80.5t81 -29.5zM542 811h12
l-435 -811h-12zM515 -3q-36 0 -62.5 13t-41 40t-14.5 68v230q0 40 14.5 67.5t41 40.5t62.5 13t62 -13t40.5 -40t14.5 -68v-230q0 -37 -12 -64t-38 -42t-67 -15zM515 8q50 0 78 27.5t28 82.5v230q0 51 -25.5 80.5t-80.5 29.5t-81 -29.5t-26 -80.5v-230q0 -51 26 -80.5
t81 -29.5z" />
    <glyph glyph-name="ampersand" unicode="&#x26;" horiz-adv-x="436" 
d="M206 -11q-58 0 -93.5 23t-51.5 67.5t-16 113.5v67q0 43 11 72.5t39 55.5t82 59l-2 -3q-29 53 -43.5 89t-20 62.5t-5.5 56.5v33q0 48 13.5 78t38 44t59.5 14q32 0 55 -14t35.5 -44t12.5 -78v-36q0 -50 -11 -82.5t-39 -61t-83 -64.5l-2 6l162 -322v1q1 7 1 25v71.5v149.5
h10v-101t-1 -101t-3 -61l-2 6l59 -115h-12l-52 104l7 -6q-10 -55 -48.5 -82t-99.5 -27zM206 -1q60 0 96 28t44 85l-1 -7l-168 335l8 1q-53 -34 -80.5 -59.5t-38.5 -53t-11 -67.5v-68q0 -72 18 -114.5t51 -61t82 -18.5zM179 448q55 37 82 63.5t38 58.5t11 83v32
q0 60 -22.5 93.5t-70.5 33.5q-53 0 -77 -33.5t-24 -93.5v-33q0 -31 5.5 -57.5t20 -60t42.5 -86.5h-5z" />
    <glyph glyph-name="quotesingle" unicode="'" horiz-adv-x="152" 
d="M70 812h12l-1 -274h-10z" />
    <glyph glyph-name="parenleft" unicode="(" horiz-adv-x="203" 
d="M185 -160q-37 62 -67 139t-49 169.5t-19 192.5t19 192.5t49 169t67 138.5h8q-61 -113 -96 -234t-35 -266t35 -266t96 -235h-8z" />
    <glyph glyph-name="parenright" unicode=")" horiz-adv-x="203" 
d="M10 -160q61 114 96 235t35 266t-35 266t-96 234h8q37 -62 67 -138.5t49 -169t19 -192.5t-19 -192.5t-49 -169.5t-67 -139h-8z" />
    <glyph glyph-name="asterisk" unicode="*" horiz-adv-x="387" 
d="M80 517l95 131l-155 53l3 8l155 -53v155h9v-154l157 50l3 -8l-156 -51l96 -130l-8 -6l-96 132l-95 -132z" />
    <glyph glyph-name="plus" unicode="+" horiz-adv-x="436" 
d="M219 277h-174v10h174v245h10v-245h162v-10h-162v-277h-10v277z" />
    <glyph glyph-name="comma" unicode="," horiz-adv-x="121" 
d="M75 74h12l-88 -240h-11z" />
    <glyph glyph-name="hyphen" unicode="-" horiz-adv-x="320" 
d="M45 273h230v-11h-230v11z" />
    <glyph glyph-name="period" unicode="." horiz-adv-x="150" 
d="M70 0v75.5v74.5h5h5v-74.5v-75.5h-5h-5z" />
    <glyph glyph-name="slash" unicode="/" horiz-adv-x="319" 
d="M323 811h11l-338 -961h-11z" />
    <glyph glyph-name="zero" unicode="0" horiz-adv-x="409" 
d="M205 -10q-52 0 -86.5 18t-54 63.5t-19.5 125.5v418q0 80 19.5 125.5t54 63.5t86.5 18q51 0 85.5 -18t54 -63.5t19.5 -125.5v-418q0 -80 -19.5 -125.5t-54 -63.5t-85.5 -18zM205 0q57 0 90 24t46 67t13 106v418q0 65 -13 107.5t-45.5 66t-90.5 23.5t-91 -24t-46 -67
t-13 -106v-418q0 -64 13 -107t46 -66.5t91 -23.5z" />
    <glyph glyph-name="one" unicode="1" horiz-adv-x="319" 
d="M229 798l-214 -62v10l224 66v-812h-10v798z" />
    <glyph glyph-name="two" unicode="2" horiz-adv-x="388" 
d="M30 12l45 67q91 137 141.5 227.5t74 166.5t23.5 154v13q0 81 -38.5 126.5t-112.5 45.5q-34 0 -66.5 -9.5t-63.5 -27.5l-3 10q32 18 65.5 27.5t67.5 9.5q53 0 89 -22t54 -63t18 -97v-13q0 -92 -34 -185t-91 -187.5t-161 -247.5l-2 3h302v-10h-308v12z" />
    <glyph glyph-name="three" unicode="3" horiz-adv-x="364" 
d="M163 -10q-34 0 -67.5 9.5t-65.5 27.5l3 10q31 -18 63.5 -27.5t66.5 -9.5q73 0 112 42.5t39 109.5v108q0 69 -43 115.5t-128 46.5h-37v10h37q58 0 96 24.5t56.5 63.5t18.5 84v56q0 67 -39 109.5t-112 42.5q-34 0 -66.5 -9.5t-63.5 -27.5l-3 10q32 18 65.5 27.5t67.5 9.5
q52 0 88 -21t54.5 -58t18.5 -83v-56q0 -41 -14.5 -78t-44.5 -63.5t-74 -36.5l-1 2q45 -9 75 -33t44.5 -59t14.5 -76v-108q0 -46 -18.5 -83t-54.5 -58t-88 -21z" />
    <glyph glyph-name="four" unicode="4" horiz-adv-x="403" 
d="M301 233h-291v11l290 567h11v-568h82v-10h-82v-233h-10v233zM17 243h284v556l2 -5l-284 -555z" />
    <glyph glyph-name="five" unicode="5" horiz-adv-x="388" 
d="M178 -10q-36 0 -69 10.5t-58 26.5l4 10q25 -17 56 -27t67 -10q78 0 121.5 45t43.5 142v113q0 65 -17 105.5t-51 60t-87 19.5q-43 0 -77 -17t-61 -47l31 390h255v-10h-245l-28 -359l-2 2q21 23 53 37t74 14q62 0 98.5 -24.5t51.5 -67.5t15 -103v-113q0 -61 -18 -105
t-57 -68t-100 -24z" />
    <glyph glyph-name="six" unicode="6" horiz-adv-x="419" 
d="M210 -10q-52 0 -86.5 18t-54 63.5t-19.5 125.5v91q0 50 5 79.5t17 55.5q42 95 85.5 193t88.5 195h11l-156 -352v2q20 19 47 26.5t62 7.5q51 0 85.5 -18t54 -63.5t19.5 -125.5v-91q0 -80 -19.5 -125.5t-54 -63.5t-85.5 -18zM210 0q57 0 90 24t46 67t13 106v91
q0 65 -13 107.5t-45.5 66t-90.5 23.5t-91 -24t-46 -67t-13 -106v-91q0 -64 13 -107t46 -66.5t91 -23.5z" />
    <glyph glyph-name="seven" unicode="7" horiz-adv-x="403" 
d="M352 804l2 -3h-314v10h323v-8l-235 -803h-11z" />
    <glyph glyph-name="eight" unicode="8" horiz-adv-x="402" 
d="M201 -10q-52 0 -88 21t-54.5 58t-18.5 83v120q0 40 13.5 72.5t40 55t65.5 30.5v-2q-37 8 -62.5 30.5t-38.5 55.5t-13 72v74q0 46 18 83t53 58t85 21t85 -21t53 -58t18 -83v-74q0 -39 -13 -72t-38.5 -55.5t-62.5 -30.5v2q39 -8 65.5 -30.5t40 -55t13.5 -72.5v-120
q0 -46 -18.5 -83t-54.5 -58t-88 -21zM201 0q73 0 112 42.5t39 109.5v120q0 43 -17 77.5t-51 54.5t-83 20t-83 -20t-51 -54.5t-17 -77.5v-120q0 -67 39 -109.5t112 -42.5zM201 434q47 0 79.5 20t49.5 54.5t17 77.5v74q0 67 -38 109.5t-108 42.5t-108 -42.5t-38 -109.5v-74
q0 -43 17 -77.5t49.5 -54.5t79.5 -20z" />
    <glyph glyph-name="nine" unicode="9" horiz-adv-x="419" 
d="M209 821q52 0 86.5 -18t54 -63.5t19.5 -125.5v-91q0 -50 -5 -79.5t-17 -55.5q-42 -95 -85.5 -193t-88.5 -195h-11l156 352v-2q-20 -19 -47 -26.5t-62 -7.5q-51 0 -85.5 18t-54 63.5t-19.5 125.5v91q0 80 19.5 125.5t54 63.5t85.5 18zM209 811q-57 0 -90 -24t-46 -67
t-13 -106v-91q0 -65 13 -107.5t45.5 -66t90.5 -23.5t91 24t46 67t13 106v91q0 64 -13 107t-46 66.5t-91 23.5z" />
    <glyph glyph-name="colon" unicode=":" horiz-adv-x="150" 
d="M70 0v75.5v74.5h5h5v-74.5v-75.5h-5h-5zM70 380v75.5v74.5h5h5v-74.5v-75.5h-5h-5z" />
    <glyph glyph-name="semicolon" unicode=";" horiz-adv-x="151" 
d="M75 74h12l-88 -240h-11zM78 380v75.5v74.5h5h5v-74.5v-75.5h-5h-5z" />
    <glyph glyph-name="less" unicode="&#x3c;" horiz-adv-x="420" 
d="M50 262v0l320 268v-13l-302 -255l302 -249v-13z" />
    <glyph glyph-name="equal" unicode="=" horiz-adv-x="417" 
d="M45 373h327v-10h-327v10zM45 173h327v-10h-327v10z" />
    <glyph glyph-name="greater" unicode="&#x3e;" horiz-adv-x="420" 
d="M50 13l302 249l-302 255v13l320 -268v0l-320 -262v13z" />
    <glyph glyph-name="question" unicode="?" horiz-adv-x="350" 
d="M151 421q40 43 65 76.5t42 77.5t17 98v6q0 63 -30 96.5t-90 33.5q-29 0 -56.5 -9t-51.5 -28l-3 10q24 18 52.5 27.5t58.5 9.5q43 0 72 -17t43.5 -48t14.5 -75v-6q0 -54 -17 -99t-42 -78.5t-64 -77.5v-168h-11v171zM152 0v75.5v74.5h5.5h5.5v-74.5v-75.5h-5.5h-5.5z" />
    <glyph glyph-name="at" unicode="@" horiz-adv-x="462" 
d="M296 -126q-76 0 -131 36t-85 113.5t-30 197.5q0 139 23 225.5t69 126t115 39.5v-10q-75 0 -118.5 -46t-61 -129.5t-17.5 -205.5q0 -104 24 -179t77 -116.5t136 -41.5q37 0 69.5 7.5t61.5 21.5l7 -9q-31 -15 -65.5 -22.5t-73.5 -7.5zM295 64q-45 0 -78.5 18t-51.5 54.5
t-18 90.5v5q0 79 40.5 119t111.5 40q22 0 49 -5t53 -15l-3 -3v98q0 42 -16.5 72.5t-48 47t-76.5 16.5v10q42 0 76 -15t54.5 -48t20.5 -83v-379q-26 -10 -57 -16.5t-56 -6.5zM398 361q-25 10 -51.5 15t-47.5 5q-47 0 -79 -18.5t-47.5 -52t-15.5 -78.5v-5q0 -71 34.5 -112
t103.5 -41q24 0 53 5.5t53 15.5l-3 -5v271z" />
    <glyph glyph-name="A" unicode="A" horiz-adv-x="449" 
d="M218 811h10l201 -811h-11l-76 306l5 -4h-247l5 4l-74 -306h-11zM102 312h243l-3 -4l-119 483l-118 -483z" />
    <glyph glyph-name="B" unicode="B" horiz-adv-x="431" 
d="M68 10h156q71 0 111.5 50.5t40.5 135.5v36q0 56 -17.5 98t-51.5 65t-81 23h-158v10h158q46 0 79 21t50 58.5t17 88.5v37q0 51 -17 88.5t-50 58.5t-79 21h-158v10h158q49 0 84 -22t53.5 -62t18.5 -94v-37q0 -53 -18.5 -93t-53.5 -62t-84 -22v8q50 0 86 -24t55 -68t19 -103
v-36q0 -59 -19.5 -103t-56 -68.5t-86.5 -24.5h-156v10zM65 811h10v-811h-10v811z" />
    <glyph glyph-name="C" unicode="C" horiz-adv-x="361" 
d="M208 -10q-53 0 -88.5 18t-55 63t-19.5 125v420q0 80 20 125t56 63t90 18q27 0 54 -8.5t61 -28.5l-3 -10q-32 19 -57.5 28t-54.5 9q-60 0 -94.5 -23.5t-48 -66.5t-13.5 -106v-420q0 -63 13.5 -106t47 -66.5t92.5 -23.5q46 0 71 8t53 29l4 -10q-28 -20 -55 -28.5t-73 -8.5z
" />
    <glyph glyph-name="D" unicode="D" horiz-adv-x="431" 
d="M67 10h132q57 0 95.5 17t60 60t21.5 119v398q0 76 -21.5 119.5t-60 60.5t-95.5 17h-132v10h131q72 0 113.5 -25t58 -70t16.5 -112v-398q0 -67 -16 -111.5t-57.5 -69.5t-113.5 -25h-132v10zM65 811h10v-811h-10v811z" />
    <glyph glyph-name="E" unicode="E" horiz-adv-x="370" 
d="M65 811h274v-10h-264v-372h222v-10h-222v-409h270v-10h-280v811z" />
    <glyph glyph-name="F" unicode="F" horiz-adv-x="364" 
d="M65 811h274v-10h-264v-372h222v-10h-222v-419h-10v811z" />
    <glyph glyph-name="G" unicode="G" horiz-adv-x="422" 
d="M220 -10q-52 0 -91 19.5t-61.5 65.5t-22.5 121v420q0 64 19 110t59 71t101 25q31 0 65 -8.5t67 -28.5l-3 -10q-30 18 -63 27.5t-63 9.5q-51 0 -89.5 -19t-60.5 -62.5t-22 -114.5v-420q0 -64 18 -107.5t55 -66t94 -22.5q37 0 73.5 7.5t63.5 22.5l-3 -7v399l4 -4h-140v10
h147v-406q-32 -16 -69.5 -24t-77.5 -8z" />
    <glyph glyph-name="H" unicode="H" horiz-adv-x="442" 
d="M65 811h10v-383h292v383h10v-811h-10v418h-292v-418h-10v811z" />
    <glyph glyph-name="I" unicode="I" horiz-adv-x="140" 
d="M65 811h10v-811h-10v811z" />
    <glyph glyph-name="J" unicode="J" horiz-adv-x="316" 
d="M120 -10q-26 0 -51.5 5t-58.5 17l4 8q26 -10 51.5 -15t51.5 -5q46 0 73.5 23.5t39 67t11.5 105.5v615h10v-615q0 -73 -15 -118.5t-44 -66.5t-72 -21z" />
    <glyph glyph-name="K" unicode="K" horiz-adv-x="383" 
d="M65 811h10v-404l282 404h11l-285 -408l1 5l284 -408h-13l-280 403v-403h-10v811z" />
    <glyph glyph-name="L" unicode="L" horiz-adv-x="370" 
d="M65 811h10v-801h280v-10h-290v811z" />
    <glyph glyph-name="M" unicode="M" horiz-adv-x="506" 
d="M65 811h13l176 -796h-2l176 796h13v-811h-10v780l1 1l-173 -781h-12l-174 780l2 -2v-778h-10v811z" />
    <glyph glyph-name="N" unicode="N" horiz-adv-x="465" 
d="M65 811h17l310 -804h-2v804h10v-811h-17l-310 804h2v-804h-10v811z" />
    <glyph glyph-name="O" unicode="O" horiz-adv-x="409" 
d="M205 -10q-52 0 -86.5 18t-54 63.5t-19.5 125.5v418q0 80 19.5 125.5t54 63.5t86.5 18q51 0 85.5 -18t54 -63.5t19.5 -125.5v-418q0 -80 -19.5 -125.5t-54 -63.5t-85.5 -18zM205 0q57 0 90 24t46 67t13 106v418q0 65 -13 107.5t-45.5 66t-90.5 23.5t-91 -24t-46 -67
t-13 -106v-418q0 -64 13 -107t46 -66.5t91 -23.5z" />
    <glyph glyph-name="P" unicode="P" horiz-adv-x="402" 
d="M68 364h106q78 0 118.5 21t55 63.5t14.5 116.5v41q0 78 -18.5 120t-59 58.5t-110.5 16.5h-106v10h102q83 0 126.5 -21.5t59.5 -64.5t16 -118v-41q0 -85 -20 -130.5t-63 -63.5t-119 -18h-102v10zM65 811h10v-811h-10v811z" />
    <glyph glyph-name="Q" unicode="Q" horiz-adv-x="409" 
d="M183 185l9 5l175 -306l-9 -5zM205 -10q-52 0 -86.5 18t-54 63.5t-19.5 125.5v418q0 80 19.5 125.5t54 63.5t86.5 18q51 0 85.5 -18t54 -63.5t19.5 -125.5v-418q0 -80 -19.5 -125.5t-54 -63.5t-85.5 -18zM205 0q57 0 90 24t46 67t13 106v418q0 65 -13 107.5t-45.5 66
t-90.5 23.5t-91 -24t-46 -67t-13 -106v-418q0 -64 13 -107t46 -66.5t91 -23.5z" />
    <glyph glyph-name="R" unicode="R" horiz-adv-x="443" 
d="M65 374h99q78 0 121 21.5t60 64.5t17 115v31q0 77 -21 119.5t-63.5 59t-113.5 16.5h-99v10h95q84 0 130 -21.5t64 -65.5t18 -117v-31q0 -84 -22.5 -130t-68 -64t-121.5 -18h-95v10zM65 811h10v-811h-10v811zM230 370l11 1l172 -371h-13z" />
    <glyph glyph-name="S" unicode="S" horiz-adv-x="398" 
d="M195 -10q-47 0 -83 13.5t-68 41.5l4 10q31 -29 65.5 -41.5t81.5 -12.5q42 0 76 22t53 63t19 94v28q0 49 -13 82.5t-44 62.5t-90 62q-64 36 -97.5 67.5t-46 66.5t-12.5 86v25q0 46 18.5 83t54.5 58t88 21q34 0 67.5 -9.5t65.5 -27.5l-3 -10q-31 18 -63.5 27.5t-66.5 9.5
q-49 0 -83 -20t-51 -54.5t-17 -77.5v-27q0 -50 14 -84t46.5 -62.5t92.5 -62.5q61 -34 93.5 -65.5t44.5 -66.5t12 -84v-28q0 -56 -20.5 -99t-56.5 -67t-81 -24z" />
    <glyph glyph-name="T" unicode="T" horiz-adv-x="404" 
d="M197 801h-187v10h384v-10h-187v-801h-10v801z" />
    <glyph glyph-name="U" unicode="U" horiz-adv-x="438" 
d="M220 -10q-80 0 -117.5 46.5t-37.5 160.5v614h10v-614q0 -74 16 -117t47.5 -61.5t81.5 -18.5q58 0 89 23.5t42.5 66t11.5 107.5v614h10v-614q0 -114 -37 -160.5t-116 -46.5z" />
    <glyph glyph-name="V" unicode="V" horiz-adv-x="393" 
d="M20 811h11l164 -795h-2l169 795h11l-173 -811h-12z" />
    <glyph glyph-name="W" unicode="W" horiz-adv-x="585" 
d="M20 811h11l123 -795h-2l134 795h14l133 -795h-2l123 795h11l-128 -811h-12l-133 799h2l-134 -799h-12z" />
    <glyph glyph-name="X" unicode="X" horiz-adv-x="399" 
d="M194 422l-159 389h11l154 -377l153 377h11l-159 -389l174 -422h-11l-168 410l-169 -410h-11z" />
    <glyph glyph-name="Y" unicode="Y" horiz-adv-x="408" 
d="M199 340l-179 471h11l175 -462h-4l175 462h11l-179 -471v-340h-10v340z" />
    <glyph glyph-name="Z" unicode="Z" horiz-adv-x="392" 
d="M25 10l331 794l2 -3h-333v10h342v-8l-331 -794l-2 1h325v-10h-334v10z" />
    <glyph glyph-name="bracketleft" unicode="[" horiz-adv-x="212" 
d="M70 841h132v-10h-122v-981h122v-10h-132v1001z" />
    <glyph glyph-name="backslash" unicode="\" horiz-adv-x="319" 
d="M323 -150l-338 961h11l338 -961h-11z" />
    <glyph glyph-name="bracketright" unicode="]" horiz-adv-x="212" 
d="M10 -150h122v981h-122v10h132v-1001h-132v10z" />
    <glyph glyph-name="asciicircum" unicode="^" horiz-adv-x="595" 
d="M290 811h14l241 -440h-11l-237 434l-237 -434h-10z" />
    <glyph glyph-name="underscore" unicode="_" horiz-adv-x="490" 
d="M45 0h400v-10h-400v10z" />
    <glyph glyph-name="grave" unicode="`" horiz-adv-x="182" 
d="M140 630l-110 144h13l109 -144h-12z" />
    <glyph glyph-name="a" unicode="a" horiz-adv-x="346" 
d="M178 -10q-45 0 -78.5 18t-51.5 54.5t-18 90.5v5q0 79 40.5 119t111.5 40q22 0 49 -5t53 -15l-3 -3v98q0 43 -12 73t-39 46.5t-70 16.5q-28 0 -58 -8t-57 -25l2 13q26 15 55.5 22.5t57.5 7.5q41 0 70 -15t45 -47.5t16 -83.5v-379q-26 -10 -57 -16.5t-56 -6.5zM178 0
q24 0 53 5.5t53 15.5l-3 -5v271q-25 10 -51.5 15t-47.5 5q-47 0 -79 -18.5t-47.5 -52t-15.5 -78.5v-5q0 -71 34.5 -112t103.5 -41z" />
    <glyph glyph-name="b" unicode="b" horiz-adv-x="381" 
d="M203 -11q-30 0 -64.5 6.5t-68.5 19.5v796h10v-293q31 12 62.5 17.5t60.5 5.5q40 0 68.5 -15t44 -47.5t15.5 -84.5v-258q0 -52 -15.5 -84.5t-44 -47.5t-68.5 -15zM203 -1q41 0 67.5 17t38.5 47.5t12 72.5v258q0 42 -12 72.5t-38.5 47.5t-67.5 17q-29 0 -60.5 -6t-62.5 -17
v-486q29 -11 61.5 -17t61.5 -6z" />
    <glyph glyph-name="c" unicode="c" horiz-adv-x="315" 
d="M181 -10q-41 0 -70 15t-45 47.5t-16 83.5v259q0 51 16 83.5t45 47.5t70 15q28 0 53 -8.5t50 -26.5l-4 -9q-27 19 -50 26.5t-49 7.5q-43 0 -70 -16.5t-39 -46.5t-12 -73v-259q0 -43 12 -73t39 -46.5t70 -16.5q27 0 53.5 8t49.5 25l4 -9q-21 -17 -50 -25.5t-57 -8.5z" />
    <glyph glyph-name="d" unicode="d" horiz-adv-x="381" 
d="M178 -11q-40 0 -68.5 15t-44 47.5t-15.5 84.5v258q0 52 15.5 84.5t44 47.5t68.5 15q29 0 60.5 -5.5t62.5 -17.5v293h10v-796q-34 -13 -68.5 -19.5t-64.5 -6.5zM178 -1q29 0 61.5 6t61.5 17v486q-31 11 -62.5 17t-60.5 6q-41 0 -67.5 -17t-38.5 -47.5t-12 -72.5v-258
q0 -42 12 -72.5t38.5 -47.5t67.5 -17z" />
    <glyph glyph-name="e" unicode="e" horiz-adv-x="361" 
d="M194 -10q-56 0 -88 20t-44 56t-12 90v238q0 52 16 85t44.5 47.5t69.5 14.5t69.5 -14.5t44.5 -47.5t16 -85v-119h-252v10h246l-4 -4v113q0 40 -10.5 70.5t-37 48.5t-72.5 18t-72.5 -18t-37 -48.5t-10.5 -70.5v-238q0 -61 15.5 -95t44.5 -47.5t74 -13.5q32 0 61 10.5
t52 32.5l4 -9q-21 -22 -52.5 -33t-64.5 -11z" />
    <glyph glyph-name="f" unicode="f" horiz-adv-x="247" 
d="M98 520h-78v10h78v135q0 69 30.5 107.5t96.5 38.5h2v-10h-2q-55 0 -86 -32.5t-31 -103.5v-135h119v-10h-119v-520h-10v520z" />
    <glyph glyph-name="g" unicode="g" horiz-adv-x="381" 
d="M180 -227q-28 0 -57 8.5t-50 25.5l4 9q23 -17 49.5 -25t53.5 -8q43 0 70 16.5t39 46.5t12 73v95l3 -3q-25 -11 -60 -16.5t-63 -5.5q-41 0 -70 15t-45 47.5t-16 84.5v259q0 51 16 83.5t45 47.5t70 15q27 0 65 -7.5t65 -18.5v-596q0 -51 -16 -83.5t-45 -47.5t-70 -15z
M181 -1q25 0 61 6.5t59 15.5v487q-27 9 -62 16t-58 7q-42 0 -69 -16.5t-39.5 -47t-12.5 -73.5v-258q0 -43 12.5 -73.5t39.5 -47t69 -16.5z" />
    <glyph glyph-name="h" unicode="h" horiz-adv-x="379" 
d="M314 439q0 32 -14.5 52.5t-40 30t-59.5 9.5q-28 0 -60.5 -7t-60.5 -21l-8 6q27 15 63.5 23.5t65.5 8.5q36 0 64 -11t44 -33.5t16 -57.5v-439h-10v439zM70 811h10v-811h-10v811z" />
    <glyph glyph-name="i" unicode="i" horiz-adv-x="150" 
d="M70 530h10v-530h-10v530zM69 618v75.5v74.5h5h5v-74.5v-75.5h-5h-5z" />
    <glyph glyph-name="j" unicode="j" horiz-adv-x="143" 
d="M-47 -226q-6 0 -13 0.5t-14 1.5l-1 10q6 -1 13.5 -1.5t14.5 -0.5q42 0 66.5 16.5t34 46t9.5 73.5v610h10v-610q0 -56 -14.5 -88.5t-40.5 -45t-65 -12.5zM61 618v75.5v74.5h5h5v-74.5v-75.5h-5h-5z" />
    <glyph glyph-name="k" unicode="k" horiz-adv-x="346" 
d="M70 810h10v-545l-3 1l238 264h11l-240 -268v6l240 -268h-11l-238 265l3 1v-267h-10v811z" />
    <glyph glyph-name="l" unicode="l" horiz-adv-x="150" 
d="M70 811h10v-811h-10v811z" />
    <glyph glyph-name="m" unicode="m" horiz-adv-x="602" 
d="M70 515q26 12 60 19t62 7q50 0 79.5 -19t39.5 -65q9 39 39 61.5t79 22.5q40 0 66.5 -12t41.5 -42.5t15 -83.5v-403h-10v403q0 41 -10 69t-35 43.5t-68 15.5q-36 0 -61.5 -14t-38.5 -39t-13 -57v-421h-10v403q0 44 -10.5 72t-35.5 42t-68 14q-24 0 -55.5 -6t-56.5 -16
v-509h-10v515z" />
    <glyph glyph-name="n" unicode="n" horiz-adv-x="373" 
d="M70 509q31 16 65.5 24t63.5 8q36 0 64 -11t44 -33.5t16 -57.5v-439h-10v439q0 32 -14.5 52.5t-40 30t-59.5 9.5q-28 0 -59 -7t-60 -20v-504h-10v509z" />
    <glyph glyph-name="o" unicode="o" horiz-adv-x="360" 
d="M180 -10q-41 0 -70 15t-44.5 47.5t-15.5 84.5v257q0 52 15.5 84.5t44.5 47.5t70 15t70 -15t44.5 -47.5t15.5 -84.5v-257q0 -52 -15.5 -84.5t-44.5 -47.5t-70 -15zM180 0q42 0 68.5 16.5t39 46.5t12.5 74v257q0 44 -12.5 74t-39 46.5t-68.5 16.5t-69 -16.5t-39 -47
t-12 -73.5v-257q0 -43 12 -73.5t39 -47t69 -16.5z" />
    <glyph glyph-name="p" unicode="p" horiz-adv-x="380" 
d="M70 515q34 13 68 19.5t64 6.5q40 0 68.5 -15t44 -47.5t15.5 -84.5v-258q0 -52 -15.5 -84t-44 -47t-68.5 -15q-28 0 -59.5 5.5t-62.5 16.5v-232h-10v735zM202 0q41 0 67.5 16.5t38.5 47t12 72.5v258q0 42 -12 72.5t-38.5 47.5t-67.5 17q-28 0 -60 -6t-62 -16v-487
q31 -10 62.5 -16t59.5 -6z" />
    <glyph glyph-name="q" unicode="q" horiz-adv-x="380" 
d="M300 -220v232q-31 -11 -62.5 -16.5t-59.5 -5.5q-40 0 -68.5 15t-44 47t-15.5 84v258q0 52 15.5 84.5t44 47.5t68.5 15q30 0 64 -6.5t68 -19.5v-735h-10zM178 0q28 0 59.5 6t62.5 16v487q-30 10 -62 16t-60 6q-41 0 -67.5 -17t-38.5 -47.5t-12 -72.5v-258q0 -42 12 -72.5
t38.5 -47t67.5 -16.5z" />
    <glyph glyph-name="r" unicode="r" horiz-adv-x="260" 
d="M70 511q25 15 63 22.5t69 7.5h38v-10h-38q-29 0 -63.5 -6t-58.5 -20v-505h-10v511z" />
    <glyph glyph-name="s" unicode="s" horiz-adv-x="334" 
d="M154 -10q-33 0 -63 8.5t-51 25.5l4 9q23 -17 50.5 -25t59.5 -8q56 0 90.5 29.5t34.5 91.5q0 38 -13 63t-36.5 42t-65.5 36l-33 15q-31 14 -49.5 33t-26.5 44.5t-8 60.5q0 56 34 88.5t89 32.5q28 0 53 -8.5t50 -26.5l-4 -9q-27 19 -50 26.5t-49 7.5q-50 0 -81.5 -29.5
t-31.5 -81.5q0 -34 7.5 -57.5t25.5 -41.5t49 -32l28 -13q44 -21 68.5 -37.5t39 -43t14.5 -69.5q0 -63 -35 -97t-100 -34z" />
    <glyph glyph-name="t" unicode="t" horiz-adv-x="261" 
d="M220 0q-40 0 -66 10t-40.5 36.5t-14.5 73.5v400h-79v10h79v201h10v-201h117v-10h-117v-400q0 -58 25 -84t83 -26h9v-10h-6z" />
    <glyph glyph-name="u" unicode="u" horiz-adv-x="393" 
d="M194 -10q-36 0 -64 11t-44 33.5t-16 57.5v438h10v-438q0 -32 14.5 -52.5t40 -30t59.5 -9.5q28 0 59 7t60 20v503h10v-508q-31 -16 -65.5 -24t-63.5 -8z" />
    <glyph glyph-name="v" unicode="v" horiz-adv-x="312" 
d="M10 530h11l137 -524h-4l137 524h11l-139 -530h-14z" />
    <glyph glyph-name="w" unicode="w" horiz-adv-x="491" 
d="M25 530h11l48 -244q7 -35 13.5 -69.5t13.5 -69.5t13.5 -69.5t13.5 -69.5h-4l53 279l47 243h13l56 -245l65 -280l-5 1l12 70t13 70l12 70l12 70l43 244h11l-94 -530h-14l-65 286q-7 31 -13.5 61t-13.5 60t-14 60.5t-14 60.5h6q-5 -30 -11 -60l-12 -60q-6 -31 -11.5 -61
t-11.5 -60l-55 -287h-14z" />
    <glyph glyph-name="x" unicode="x" horiz-adv-x="276" 
d="M133 279v-8l-113 259h12l108 -249h-4l108 249h12l-112 -259v8l122 -279h-12l-118 268h4l-118 -268h-12z" />
    <glyph glyph-name="y" unicode="y" horiz-adv-x="384" 
d="M182 -227q-28 0 -57 8.5t-50 25.5l4 9q23 -17 49.5 -25t53.5 -8q43 0 70 16.5t39 46.5t12 73v611h10v-611q0 -51 -16 -83.5t-45 -47.5t-70 -15zM184 -10q-36 0 -64 11t-44 33.5t-16 57.5v438h10v-438q0 -32 14.5 -52.5t40 -30t59.5 -9.5q28 0 59 7t60 20l11 -5
q-31 -16 -66 -24t-64 -8z" />
    <glyph glyph-name="z" unicode="z" horiz-adv-x="318" 
d="M24 10l249 512l2 -2h-231v10h240v-10l-250 -514l-2 4h256v-10h-264v10z" />
    <glyph glyph-name="braceleft" unicode="{" horiz-adv-x="262" 
d="M249 -160q-50 0 -74.5 10t-34 35.5t-9.5 78.5v213q0 72 -19.5 111t-61.5 48v10q42 9 61.5 48t19.5 111v212q0 53 9.5 78.5t34 35.5t74.5 10h3v-9h-3q-51 0 -73 -10t-28.5 -34t-6.5 -78v-206q0 -49 -9.5 -83.5t-27.5 -54t-44 -26.5v2q3 -1 6 -1.5t5 -1.5q22 -9 38 -29.5
t24 -53.5t8 -78v-207q0 -54 6.5 -78t28.5 -34t73 -10h3v-9h-3z" />
    <glyph glyph-name="bar" unicode="|" horiz-adv-x="110" 
d="M50 811h10v-1031h-10v1031z" />
    <glyph glyph-name="braceright" unicode="}" horiz-adv-x="262" 
d="M10 -160v9h3q51 0 73 10t28.5 34t6.5 78v207q0 45 8 78t24 53.5t38 29.5q2 1 5 1.5t6 1.5v-2q-26 7 -44 26.5t-27.5 54t-9.5 83.5v206q0 54 -6.5 78t-28.5 34t-73 10h-3v9h3q50 0 74.5 -10t34 -35.5t9.5 -78.5v-212q0 -72 19.5 -111t61.5 -48v-10q-42 -9 -61.5 -48
t-19.5 -111v-213q0 -53 -9.5 -78.5t-34 -35.5t-74.5 -10h-3z" />
    <glyph glyph-name="asciitilde" unicode="~" horiz-adv-x="435" 
d="M45 215q7 46 28.5 71.5t53.5 25.5q24 0 45 -11.5t53 -34.5q26 -21 44.5 -31t37.5 -10q29 0 47 22t26 64l10 1q-5 -31 -16.5 -53t-28.5 -33.5t-38 -11.5t-41 11t-48 32q-29 22 -49 33t-42 11q-29 0 -47.5 -23t-24.5 -63h-10z" />
    <glyph glyph-name="exclamdown" unicode="&#xa1;" horiz-adv-x="140" 
d="M75 420v-559h-10v559h10zM65 541v75.5v74.5h5h5v-74.5v-75.5h-5h-5z" />
    <glyph glyph-name="cent" unicode="&#xa2;" horiz-adv-x="315" 
d="M165 265h11v-359h-11v359zM165 623h11v-358h-11v358zM181 -10q-41 0 -70 15t-45 47.5t-16 83.5v259q0 51 16 83.5t45 47.5t70 15q28 0 53 -8.5t50 -26.5l-4 -9q-27 19 -50 26.5t-49 7.5q-43 0 -70 -16.5t-39 -46.5t-12 -73v-259q0 -43 12 -73t39 -46.5t70 -16.5
q27 0 53.5 8t49.5 25l4 -9q-21 -17 -50 -25.5t-57 -8.5z" />
    <glyph glyph-name="sterling" unicode="&#xa3;" horiz-adv-x="393" 
d="M46 7l2 2l2 2q31 32 53 73t33.5 89.5t11.5 100.5q0 50 -10 89t-31 95q-20 51 -30 90t-10 88q0 56 19 98t53.5 65t79.5 23q38 0 69 -15t63 -46l-3 -10q-32 30 -63 45t-66 15q-66 0 -103.5 -46.5t-37.5 -127.5q0 -48 10.5 -87.5t30.5 -91.5q20 -54 30 -92.5t10 -85.5
t-8 -89t-22.5 -76t-34.5 -63q-4 -7 -9.5 -14t-10.5 -13l9 4l4 2l4 2q14 6 30.5 9t30.5 3q16 0 29.5 -4.5t41.5 -16.5q23 -11 40.5 -17t35.5 -6q16 0 31.5 4t31.5 12q1 1 1.5 1t1.5 1l3 -10q-16 -9 -34 -14t-35 -5t-33.5 5.5t-40.5 15.5q-29 12 -45.5 17.5t-35.5 5.5
q-22 0 -47 -9.5t-49 -25.5zM275 430v-11h-230v11h230z" />
    <glyph glyph-name="currency" unicode="&#xa4;" horiz-adv-x="362" 
d="M181 90q-41 0 -70 15t-44.5 47.5t-15.5 84.5v157q0 52 15.5 84.5t44.5 47.5t70 15t70 -15t44.5 -47.5t15.5 -84.5v-157q0 -52 -15.5 -84.5t-44.5 -47.5t-70 -15zM50 24l38 104l7 -7l-36 -100zM266 124l7 7l39 -107l-9 -3zM181 100q42 0 68.5 16.5t39 46.5t12.5 74v157
q0 44 -12.5 74t-39 46.5t-68.5 16.5t-69 -16.5t-39 -47t-12 -73.5v-157q0 -43 12 -73.5t39 -47t69 -16.5zM50 617l9 3l39 -108l-7 -7zM263 511l40 109l9 -3l-41 -112z" />
    <glyph glyph-name="yen" unicode="&#xa5;" horiz-adv-x="458" 
d="M97 336h284v-11h-284v11zM97 220h284v-11h-284v11zM224 340l-179 471h11l175 -462h-4l175 462h11l-179 -471v-340h-10v340z" />
    <glyph glyph-name="brokenbar" unicode="&#xa6;" horiz-adv-x="110" 
d="M50 811h10v-400h-10v400zM50 180h10v-400h-10v400z" />
    <glyph glyph-name="section" unicode="&#xa7;" horiz-adv-x="467" 
d="M196 -226q-47 0 -83 13.5t-68 41.5l4 10q31 -29 65.5 -41.5t81.5 -12.5t83 22.5t55.5 63t19.5 93.5v28q0 52 -12 84.5t-41 57.5t-86 56q-16 9 -32 16q-59 27 -89.5 54.5t-42 64t-11.5 94.5v25q0 44 17 80t50 57v-13q-27 -20 -41.5 -52t-14.5 -72v-27q0 -54 11.5 -87.5
t40 -59.5t85.5 -54l16 -8l16 -8q60 -30 90.5 -57.5t42.5 -61.5t12 -89v-28q0 -56 -21 -99.5t-59.5 -67t-88.5 -23.5zM357 40q26 24 40 60.5t14 80.5v28q0 52 -12 84.5t-41 57.5t-86 56l-16 8l-16 8q-59 27 -89.5 54.5t-42 64t-11.5 94.5v25q0 46 18.5 83t55 58t88.5 21
q34 0 67.5 -9.5t65.5 -27.5l-3 -10q-31 18 -63.5 27.5t-66.5 9.5q-49 0 -83 -20t-51 -54.5t-17 -77.5v-27q0 -54 11.5 -87.5t40 -59.5t85.5 -54l16 -8l16 -8q60 -30 90.5 -57.5t42.5 -61.5t12 -89v-28q0 -51 -17 -91t-48 -65v15z" />
    <glyph glyph-name="dieresis" unicode="&#xa8;" horiz-adv-x="121" 
d="M20 638v75.5v74.5h5h5v-74.5v-75.5h-5h-5zM91 638v75.5v74.5h5h5v-74.5v-75.5h-5h-5z" />
    <glyph glyph-name="copyright" unicode="&#xa9;" horiz-adv-x="476" 
d="M238 -10q-59 0 -101 42.5t-64.5 134.5t-22.5 237v1q0 146 22.5 238.5t64.5 135.5t101 43q58 0 100 -42.5t65 -135.5t23 -239v-1q0 -145 -23 -237t-65 -134.5t-100 -42.5zM238 0q62 0 101.5 49.5t58 139t18.5 214.5v1q0 127 -18.5 217.5t-58 140.5t-101.5 50t-101.5 -50
t-58 -140.5t-18.5 -217.5v-1q0 -125 18.5 -214.5t58 -139t101.5 -49.5zM247 126q-34 0 -58.5 15t-38 47.5t-13.5 83.5v259q0 51 13.5 83.5t38 47.5t58.5 15q23 0 43.5 -8.5t41.5 -26.5l-3 -9q-23 19 -41.5 26.5t-40.5 7.5q-36 0 -58 -16.5t-32 -46.5t-10 -73v-259
q0 -43 10 -73t32 -46.5t58 -16.5q23 0 44.5 8t40.5 25l3 -9q-17 -17 -40.5 -25.5t-47.5 -8.5z" />
    <glyph glyph-name="ordfeminine" unicode="&#xaa;" horiz-adv-x="285" 
d="M156 359q-53 0 -82 36t-29 102v5q0 64 29.5 99t84.5 35q16 0 37 -4.5t40 -13.5l-5 -5v85q0 36 -9 61t-29 39t-51 14q-21 0 -43.5 -7t-42.5 -23l2 15q20 12 42 18.5t42 6.5q33 0 54.5 -13.5t32.5 -41.5t11 -69v-320q-20 -8 -43 -13.5t-41 -5.5zM156 369q19 0 41 4.5
t39 14.5l-5 -10v231q-18 8 -37.5 12.5t-34.5 4.5q-51 0 -78 -32.5t-27 -91.5v-5q0 -62 26.5 -95t75.5 -33z" />
    <glyph glyph-name="guillemotleft" unicode="&#xab;" horiz-adv-x="368" 
d="M56 275l108 255h11l-105 -254l106 -256h-11zM192 274l108 255h11l-105 -254l106 -256h-11z" />
    <glyph glyph-name="logicalnot" unicode="&#xac;" horiz-adv-x="349" 
d="M304 385v-229h-11v229h11zM45 385h254v-11h-254v11z" />
    <glyph glyph-name="registered" unicode="&#xae;" horiz-adv-x="476" 
d="M238 -10q-59 0 -101 42.5t-64.5 134.5t-22.5 237v1q0 146 22.5 238.5t64.5 135.5t101 43q58 0 100 -42.5t65 -135.5t23 -239v-1q0 -145 -23 -237t-65 -134.5t-100 -42.5zM136 670h10v-541h-10v541zM253 359l10 1l92 -231h-11zM238 0q62 0 101.5 49.5t58 139t18.5 214.5v1
q0 127 -18.5 217.5t-58 140.5t-101.5 50t-101.5 -50t-58 -140.5t-18.5 -217.5v-1q0 -125 18.5 -214.5t58 -139t101.5 -49.5zM141 362h67q66 0 103 34t37 107v21q0 71 -36 103.5t-104 32.5h-67v10h64q79 0 116 -38t37 -107v-21q0 -72 -37 -112t-116 -40h-64v10z" />
    <glyph glyph-name="macron" unicode="&#xaf;" horiz-adv-x="265" 
d="M30 673h205v-10h-205v10z" />
    <glyph glyph-name="degree" unicode="&#xb0;" horiz-adv-x="453" 
d="M226 500q-44 0 -81 21.5t-58.5 58.5t-21.5 81t21.5 81t58.5 58.5t81 21.5q45 0 82 -21t58.5 -58t21.5 -82t-21.5 -82t-58.5 -58t-82 -21zM226 510q43 0 77 20.5t53.5 55t19.5 75.5t-19.5 75.5t-53.5 55t-77 20.5t-77 -20.5t-53 -55.5t-19 -75t19 -75t53 -55.5t77 -20.5z
" />
    <glyph glyph-name="plusminus" unicode="&#xb1;" horiz-adv-x="427" 
d="M219 427h-174v10h174v195h10v-195h162v-10h-162v-227h-10v227zM45 17h337v-10h-337v10z" />
    <glyph glyph-name="uni00B2" unicode="&#xb2;" horiz-adv-x="328" 
d="M59 369q74 82 111.5 129t60 96t22.5 102v23q0 46 -24 69.5t-70 23.5q-30 0 -54 -8t-46 -25l-4 12q23 16 48.5 24t55.5 8q51 0 78 -26.5t27 -77.5v-21q0 -55 -22 -105t-59.5 -97.5t-109.5 -125.5h200v-11h-214v10z" />
    <glyph glyph-name="uni00B3" unicode="&#xb3;" horiz-adv-x="298" 
d="M122 349q-22 0 -41 5.5t-36 16.5l3 11q16 -11 33.5 -16.5t39.5 -5.5q54 0 82.5 24t28.5 72v42q0 50 -27.5 70.5t-92.5 20.5h-8v10h8q51 0 77.5 23t26.5 68v39q0 43 -24 63.5t-70 20.5q-22 0 -39.5 -5t-33.5 -16l-1 11q15 11 34 16t42 5q51 0 77 -24.5t26 -70.5v-39
q0 -32 -12.5 -53.5t-36.5 -32.5t-58 -11l3 3q42 0 68.5 -10t39 -31.5t12.5 -56.5v-42q0 -50 -31.5 -78.5t-89.5 -28.5z" />
    <glyph glyph-name="acute" unicode="&#xb4;" horiz-adv-x="182" 
d="M139 774h13l-110 -144h-12z" />
    <glyph glyph-name="uni00B5" unicode="&#xb5;" horiz-adv-x="478" 
d="M70 530h10v-750h-10v750zM336 530v-430q0 -33 -12.5 -57.5t-42 -38.5t-78.5 -14t-78.5 14t-42 38.5t-12.5 57.5v430h11v-425q0 -38 15.5 -61t42.5 -33t64 -10t64 10t42.5 33t15.5 61v425h11zM458 -10q-49 0 -78.5 14t-42 38.5t-12.5 57.5v430h11v-425q0 -38 15.5 -61
t42.5 -33t64 -10v-11z" />
    <glyph glyph-name="paragraph" unicode="&#xb6;" horiz-adv-x="526" 
d="M268 425q-63 0 -113 24t-77.5 67.5t-27.5 99.5q0 60 28.5 104t82 67.5t127.5 23.5h189v-894h-11v883h-187v-883h-11v508z" />
    <glyph glyph-name="periodcentered" unicode="&#xb7;" horiz-adv-x="91" 
d="M40 300v75.5v74.5h5.5h5.5v-74.5v-75.5h-5.5h-5.5z" />
    <glyph glyph-name="cedilla" unicode="&#xb8;" horiz-adv-x="162" 
d="M74 -213q-13 0 -27.5 4t-24.5 11l2 9q11 -8 24 -11.5t26 -3.5q30 0 44 14.5t14 40.5v26q0 25 -14 39.5t-44 14.5q-23 0 -48 -15l-2 9q12 8 24.5 11.5t25.5 3.5q32 0 50 -15.5t18 -47.5v-26q0 -33 -18 -48.5t-50 -15.5zM20 -76l55 76h11l-60 -84z" />
    <glyph glyph-name="uni00B9" unicode="&#xb9;" horiz-adv-x="230" 
d="M151 804l-126 -35v12l137 38v-462h-11v447z" />
    <glyph glyph-name="ordmasculine" unicode="&#xba;" horiz-adv-x="284" 
d="M142 356q-32 0 -53.5 14t-32.5 42t-11 70v216q0 41 11 69t32.5 42t53.5 14q33 0 54.5 -14t32 -41.5t10.5 -69.5v-216q0 -42 -10.5 -70t-32 -42t-54.5 -14zM142 366q29 0 48.5 13t29.5 38.5t10 64.5v216q0 58 -22 87t-66 29t-66 -29t-22 -87v-216q0 -39 10 -64.5
t29.5 -38.5t48.5 -13z" />
    <glyph glyph-name="guillemotright" unicode="&#xbb;" horiz-adv-x="368" 
d="M192 20l106 256l-105 254h11l108 -255l-109 -255h-11zM56 19l106 256l-105 254h11l108 -255l-109 -255h-11z" />
    <glyph glyph-name="onequarter" unicode="&#xbc;" horiz-adv-x="618" 
d="M151 804l-126 -35v12l137 38v-462h-11v447zM514 811h12l-435 -811h-12zM512 130h-190v10l187 315h14v-314h55v-11h-55v-132h-11v132zM512 141v296l-178 -296h178z" />
    <glyph glyph-name="onehalf" unicode="&#xbd;" horiz-adv-x="695" 
d="M151 804l-126 -35v12l137 38v-462h-11v447zM514 811h12l-435 -811h-12zM426 10q74 82 111.5 129t60 96t22.5 102v23q0 46 -24 69.5t-70 23.5q-30 0 -54 -8t-46 -25l-4 12q23 16 48.5 24t55.5 8q51 0 78 -26.5t27 -77.5v-21q0 -55 -22 -105t-59.5 -97.5t-109.5 -125.5h200
v-11h-214v10z" />
    <glyph glyph-name="threequarters" unicode="&#xbe;" horiz-adv-x="659" 
d="M122 349q-22 0 -41 5.5t-36 16.5l3 11q16 -11 33.5 -16.5t39.5 -5.5q54 0 82.5 24t28.5 72v42q0 50 -27.5 70.5t-92.5 20.5h-8v10h8q51 0 77.5 23t26.5 68v39q0 43 -24 63.5t-70 20.5q-22 0 -39.5 -5t-33.5 -16l-1 11q15 11 34 16t42 5q51 0 77 -24.5t26 -70.5v-39
q0 -32 -12.5 -53.5t-36.5 -32.5t-58 -11l3 3q42 0 68.5 -10t39 -31.5t12.5 -56.5v-42q0 -50 -31.5 -78.5t-89.5 -28.5zM555 811h12l-435 -811h-12zM553 130h-190v10l187 315h14v-314h55v-11h-55v-132h-11v132zM553 141v296l-178 -296h178z" />
    <glyph glyph-name="questiondown" unicode="&#xbf;" horiz-adv-x="309" 
d="M174 -149q-43 0 -72 17t-43.5 48t-14.5 75v6q0 54 17 99t42 78.5t64 77.5v168h11v-171q-39 -42 -64.5 -76.5t-42.5 -79t-17 -96.5v-6q0 -63 30 -96.5t90 -33.5q17 0 32 2.5t29 8.5l4 -9q-16 -6 -32 -9t-33 -3zM168 541v75.5v74.5h5h5v-74.5v-75.5h-5h-5z" />
    <glyph glyph-name="Agrave" unicode="&#xc0;" horiz-adv-x="449" 
d="M218 811h10l201 -811h-11l-76 306l5 -4h-247l5 4l-74 -306h-11zM102 312h243l-3 -4l-119 483l-118 -483zM231 883l-62 144h12l61 -144h-11z" />
    <glyph glyph-name="Aacute" unicode="&#xc1;" horiz-adv-x="449" 
d="M218 811h10l201 -811h-11l-76 306l5 -4h-247l5 4l-74 -306h-11zM102 312h243l-3 -4l-119 483l-118 -483zM267 1027h12l-62 -144h-11z" />
    <glyph glyph-name="Acircumflex" unicode="&#xc2;" horiz-adv-x="449" 
d="M218 811h10l201 -811h-11l-76 306l5 -4h-247l5 4l-74 -306h-11zM102 312h243l-3 -4l-119 483l-118 -483zM218 1027h10l107 -144h-11l-101 135l-98 -135h-11z" />
    <glyph glyph-name="Atilde" unicode="&#xc3;" horiz-adv-x="449" 
d="M218 811h10l201 -811h-11l-76 306l5 -4h-247l5 4l-74 -306h-11zM102 312h243l-3 -4l-119 483l-118 -483zM107 883q2 32 7.5 49.5t17 25t30.5 7.5q17 0 31 -9.5t33 -27.5q20 -19 32.5 -27.5t27.5 -8.5q22 0 32.5 17.5t13.5 55.5h9q-2 -31 -8.5 -49t-17.5 -25.5t-29 -7.5
q-17 0 -32 10t-33 28q-19 18 -32 26.5t-28 8.5q-24 0 -33 -17t-12 -56h-9z" />
    <glyph glyph-name="Adieresis" unicode="&#xc4;" horiz-adv-x="449" 
d="M218 811h10l201 -811h-11l-76 306l5 -4h-247l5 4l-74 -306h-11zM102 312h243l-3 -4l-119 483l-118 -483zM183 883v75.5v74.5h5h5v-74.5v-75.5h-5h-5zM254 883v75.5v74.5h5h5v-74.5v-75.5h-5h-5z" />
    <glyph glyph-name="Aring" unicode="&#xc5;" horiz-adv-x="449" 
d="M218 811h10l201 -811h-11l-76 306l5 -4h-247l5 4l-74 -306h-11zM102 312h243l-3 -4l-119 483l-118 -483zM226 883q-22 0 -38 12t-24.5 33.5t-7.5 49.5q0 28 7.5 48t23 31.5t38.5 11.5q21 0 36.5 -12.5t23.5 -34t9 -48.5q0 -28 -7.5 -48.5t-22.5 -31.5t-38 -11zM225 893
q31 0 45 22t13 61q0 38 -14.5 60.5t-42.5 22.5q-32 0 -45.5 -22t-14.5 -61q0 -38 15 -60.5t44 -22.5z" />
    <glyph glyph-name="AE" unicode="&#xc6;" horiz-adv-x="652" 
d="M341 811h16v-811h-10v305l5 -3h-220l7 3l-128 -305h-11zM347 805h2l-208 -497l-6 4h217l-5 -3v496zM347 811h274v-10h-264v-372h222v-10h-222v-409h270v-10h-280v811z" />
    <glyph glyph-name="Ccedilla" unicode="&#xc7;" horiz-adv-x="361" 
d="M208 -10q-53 0 -88.5 18t-55 63t-19.5 125v420q0 80 20 125t56 63t90 18q27 0 54 -8.5t61 -28.5l-3 -10q-32 19 -57.5 28t-54.5 9q-60 0 -94.5 -23.5t-48 -66.5t-13.5 -106v-420q0 -63 13.5 -106t47 -66.5t92.5 -23.5q46 0 71 8t53 29l4 -10q-28 -20 -55 -28.5t-73 -8.5z
M204 -213q-13 0 -27.5 4t-24.5 11l2 9q11 -8 24 -11.5t26 -3.5q30 0 44 14.5t14 40.5v26q0 25 -14 39.5t-44 14.5q-23 0 -48 -15l-2 9q12 8 24.5 11.5t25.5 3.5q32 0 50 -15.5t18 -47.5v-26q0 -33 -18 -48.5t-50 -15.5zM150 -76l55 76h11l-60 -84z" />
    <glyph glyph-name="Egrave" unicode="&#xc8;" horiz-adv-x="370" 
d="M65 811h274v-10h-264v-372h222v-10h-222v-409h270v-10h-280v811zM211 883l-62 144h12l61 -144h-11z" />
    <glyph glyph-name="Eacute" unicode="&#xc9;" horiz-adv-x="370" 
d="M65 811h274v-10h-264v-372h222v-10h-222v-409h270v-10h-280v811zM247 1027h12l-62 -144h-11z" />
    <glyph glyph-name="Ecircumflex" unicode="&#xca;" horiz-adv-x="370" 
d="M65 811h274v-10h-264v-372h222v-10h-222v-409h270v-10h-280v811zM198 1027h10l107 -144h-11l-101 135l-98 -135h-11z" />
    <glyph glyph-name="Edieresis" unicode="&#xcb;" horiz-adv-x="370" 
d="M65 811h274v-10h-264v-372h222v-10h-222v-409h270v-10h-280v811zM163 883v75.5v74.5h5h5v-74.5v-75.5h-5h-5zM234 883v75.5v74.5h5h5v-74.5v-75.5h-5h-5z" />
    <glyph glyph-name="Igrave" unicode="&#xcc;" horiz-adv-x="140" 
d="M65 811h10v-811h-10v811zM77 883l-62 144h12l61 -144h-11z" />
    <glyph glyph-name="Iacute" unicode="&#xcd;" horiz-adv-x="140" 
d="M65 811h10v-811h-10v811zM113 1027h12l-62 -144h-11z" />
    <glyph glyph-name="Icircumflex" unicode="&#xce;" horiz-adv-x="140" 
d="M65 811h10v-811h-10v811zM64 1027h10l107 -144h-11l-101 135l-98 -135h-11z" />
    <glyph glyph-name="Idieresis" unicode="&#xcf;" horiz-adv-x="140" 
d="M65 811h10v-811h-10v811zM29 883v75.5v74.5h5h5v-74.5v-75.5h-5h-5zM100 883v75.5v74.5h5h5v-74.5v-75.5h-5h-5z" />
    <glyph glyph-name="Eth" unicode="&#xd0;" horiz-adv-x="431" 
d="M67 10h132q57 0 95.5 17t60 60t21.5 119v398q0 76 -21.5 119.5t-60 60.5t-95.5 17h-132v10h131q72 0 113.5 -25t58 -70t16.5 -112v-398q0 -67 -16 -111.5t-57.5 -69.5t-113.5 -25h-132v10zM65 811h10v-811h-10v811zM231 413v-10h-235v10h235z" />
    <glyph glyph-name="Ntilde" unicode="&#xd1;" horiz-adv-x="465" 
d="M65 811h17l310 -804h-2v804h10v-811h-17l-310 804h2v-804h-10v811zM115 883q2 32 7.5 49.5t17 25t30.5 7.5q17 0 31 -9.5t33 -27.5q20 -19 32.5 -27.5t27.5 -8.5q22 0 32.5 17.5t13.5 55.5h9q-2 -31 -8.5 -49t-17.5 -25.5t-29 -7.5q-17 0 -32 10t-33 28q-19 18 -32 26.5
t-28 8.5q-24 0 -33 -17t-12 -56h-9z" />
    <glyph glyph-name="Ograve" unicode="&#xd2;" horiz-adv-x="409" 
d="M205 -10q-52 0 -86.5 18t-54 63.5t-19.5 125.5v418q0 80 19.5 125.5t54 63.5t86.5 18q51 0 85.5 -18t54 -63.5t19.5 -125.5v-418q0 -80 -19.5 -125.5t-54 -63.5t-85.5 -18zM205 0q57 0 90 24t46 67t13 106v418q0 65 -13 107.5t-45.5 66t-90.5 23.5t-91 -24t-46 -67
t-13 -106v-418q0 -64 13 -107t46 -66.5t91 -23.5zM211 883l-62 144h12l61 -144h-11z" />
    <glyph glyph-name="Oacute" unicode="&#xd3;" horiz-adv-x="409" 
d="M205 -10q-52 0 -86.5 18t-54 63.5t-19.5 125.5v418q0 80 19.5 125.5t54 63.5t86.5 18q51 0 85.5 -18t54 -63.5t19.5 -125.5v-418q0 -80 -19.5 -125.5t-54 -63.5t-85.5 -18zM205 0q57 0 90 24t46 67t13 106v418q0 65 -13 107.5t-45.5 66t-90.5 23.5t-91 -24t-46 -67
t-13 -106v-418q0 -64 13 -107t46 -66.5t91 -23.5zM247 1027h12l-62 -144h-11z" />
    <glyph glyph-name="Ocircumflex" unicode="&#xd4;" horiz-adv-x="409" 
d="M205 -10q-52 0 -86.5 18t-54 63.5t-19.5 125.5v418q0 80 19.5 125.5t54 63.5t86.5 18q51 0 85.5 -18t54 -63.5t19.5 -125.5v-418q0 -80 -19.5 -125.5t-54 -63.5t-85.5 -18zM205 0q57 0 90 24t46 67t13 106v418q0 65 -13 107.5t-45.5 66t-90.5 23.5t-91 -24t-46 -67
t-13 -106v-418q0 -64 13 -107t46 -66.5t91 -23.5zM198 1027h10l107 -144h-11l-101 135l-98 -135h-11z" />
    <glyph glyph-name="Otilde" unicode="&#xd5;" horiz-adv-x="409" 
d="M205 -10q-52 0 -86.5 18t-54 63.5t-19.5 125.5v418q0 80 19.5 125.5t54 63.5t86.5 18q51 0 85.5 -18t54 -63.5t19.5 -125.5v-418q0 -80 -19.5 -125.5t-54 -63.5t-85.5 -18zM205 0q57 0 90 24t46 67t13 106v418q0 65 -13 107.5t-45.5 66t-90.5 23.5t-91 -24t-46 -67
t-13 -106v-418q0 -64 13 -107t46 -66.5t91 -23.5zM87 883q2 32 7.5 49.5t17 25t30.5 7.5q17 0 31 -9.5t33 -27.5q20 -19 32.5 -27.5t27.5 -8.5q22 0 32.5 17.5t13.5 55.5h9q-2 -31 -8.5 -49t-17.5 -25.5t-29 -7.5q-17 0 -32 10t-33 28q-19 18 -32 26.5t-28 8.5
q-24 0 -33 -17t-12 -56h-9z" />
    <glyph glyph-name="Odieresis" unicode="&#xd6;" horiz-adv-x="409" 
d="M205 -10q-52 0 -86.5 18t-54 63.5t-19.5 125.5v418q0 80 19.5 125.5t54 63.5t86.5 18q51 0 85.5 -18t54 -63.5t19.5 -125.5v-418q0 -80 -19.5 -125.5t-54 -63.5t-85.5 -18zM205 0q57 0 90 24t46 67t13 106v418q0 65 -13 107.5t-45.5 66t-90.5 23.5t-91 -24t-46 -67
t-13 -106v-418q0 -64 13 -107t46 -66.5t91 -23.5zM163 883v75.5v74.5h5h5v-74.5v-75.5h-5h-5zM234 883v75.5v74.5h5h5v-74.5v-75.5h-5h-5z" />
    <glyph glyph-name="multiply" unicode="&#xd7;" horiz-adv-x="411" 
d="M366 492l-8 6l-313 -471l8 -6zM366 27l-313 473l-8 -8l313 -473z" />
    <glyph glyph-name="Oslash" unicode="&#xd8;" horiz-adv-x="409" 
d="M205 -10q-52 0 -86.5 18t-54 63.5t-19.5 125.5v418q0 80 19.5 125.5t54 63.5t86.5 18q51 0 85.5 -18t54 -63.5t19.5 -125.5v-418q0 -80 -19.5 -125.5t-54 -63.5t-85.5 -18zM205 0q57 0 90 24t46 67t13 106v418q0 65 -13 107.5t-45.5 66t-90.5 23.5t-91 -24t-46 -67
t-13 -106v-418q0 -64 13 -107t46 -66.5t91 -23.5zM300 848h11l-209 -888h-11z" />
    <glyph glyph-name="Ugrave" unicode="&#xd9;" horiz-adv-x="438" 
d="M220 -10q-80 0 -117.5 46.5t-37.5 160.5v614h10v-614q0 -74 16 -117t47.5 -61.5t81.5 -18.5q58 0 89 23.5t42.5 66t11.5 107.5v614h10v-614q0 -114 -37 -160.5t-116 -46.5zM226 883l-62 144h12l61 -144h-11z" />
    <glyph glyph-name="Uacute" unicode="&#xda;" horiz-adv-x="438" 
d="M220 -10q-80 0 -117.5 46.5t-37.5 160.5v614h10v-614q0 -74 16 -117t47.5 -61.5t81.5 -18.5q58 0 89 23.5t42.5 66t11.5 107.5v614h10v-614q0 -114 -37 -160.5t-116 -46.5zM262 1027h12l-62 -144h-11z" />
    <glyph glyph-name="Ucircumflex" unicode="&#xdb;" horiz-adv-x="438" 
d="M220 -10q-80 0 -117.5 46.5t-37.5 160.5v614h10v-614q0 -74 16 -117t47.5 -61.5t81.5 -18.5q58 0 89 23.5t42.5 66t11.5 107.5v614h10v-614q0 -114 -37 -160.5t-116 -46.5zM213 1027h10l107 -144h-11l-101 135l-98 -135h-11z" />
    <glyph glyph-name="Udieresis" unicode="&#xdc;" horiz-adv-x="438" 
d="M220 -10q-80 0 -117.5 46.5t-37.5 160.5v614h10v-614q0 -74 16 -117t47.5 -61.5t81.5 -18.5q58 0 89 23.5t42.5 66t11.5 107.5v614h10v-614q0 -114 -37 -160.5t-116 -46.5zM178 883v75.5v74.5h5h5v-74.5v-75.5h-5h-5zM249 883v75.5v74.5h5h5v-74.5v-75.5h-5h-5z" />
    <glyph glyph-name="Yacute" unicode="&#xdd;" horiz-adv-x="408" 
d="M199 340l-179 471h11l175 -462h-4l175 462h11l-179 -471v-340h-10v340zM247 1027h12l-62 -144h-11z" />
    <glyph glyph-name="Thorn" unicode="&#xde;" horiz-adv-x="417" 
d="M68 187h106q78 0 118.5 21t55 63.5t14.5 116.5v41q0 78 -18.5 120t-59 58.5t-110.5 16.5h-106v10h102q83 0 126.5 -21.5t59.5 -64.5t16 -118v-41q0 -85 -20 -130.5t-63 -63.5t-119 -18h-102v10zM65 811h10v-811h-10v811z" />
    <glyph glyph-name="germandbls" unicode="&#xdf;" horiz-adv-x="380" 
d="M199 -9q-19 0 -39.5 4t-38.5 12l5 9q17 -8 35.5 -11.5t37.5 -3.5q43 0 70 16.5t39 46.5t12 73v157q0 44 -12.5 74t-39 46.5t-68.5 16.5h-22v10h22q56 0 83 35.5t27 101.5v102q0 43 -12 73.5t-36.5 47t-61.5 16.5q-63 0 -91.5 -35.5t-28.5 -101.5v-680h-10v680
q0 52 15.5 84.5t44.5 47.5t70 15q36 0 63 -15t42 -48t15 -84v-102q0 -41 -10 -70.5t-27.5 -47t-40.5 -25.5l-1 2q29 -8 48.5 -25.5t30 -46.5t10.5 -71v-157q0 -51 -16 -83.5t-45 -47.5t-70 -15z" />
    <glyph glyph-name="agrave" unicode="&#xe0;" horiz-adv-x="346" 
d="M178 -10q-45 0 -78.5 18t-51.5 54.5t-18 90.5v5q0 79 40.5 119t111.5 40q22 0 49 -5t53 -15l-3 -3v98q0 43 -12 73t-39 46.5t-70 16.5q-28 0 -58 -8t-57 -25l2 13q26 15 55.5 22.5t57.5 7.5q41 0 70 -15t45 -47.5t16 -83.5v-379q-26 -10 -57 -16.5t-56 -6.5zM178 0
q24 0 53 5.5t53 15.5l-3 -5v271q-25 10 -51.5 15t-47.5 5q-47 0 -79 -18.5t-47.5 -52t-15.5 -78.5v-5q0 -71 34.5 -112t103.5 -41zM178 618l-62 144h12l61 -144h-11z" />
    <glyph glyph-name="aacute" unicode="&#xe1;" horiz-adv-x="346" 
d="M178 -10q-45 0 -78.5 18t-51.5 54.5t-18 90.5v5q0 79 40.5 119t111.5 40q22 0 49 -5t53 -15l-3 -3v98q0 43 -12 73t-39 46.5t-70 16.5q-28 0 -58 -8t-57 -25l2 13q26 15 55.5 22.5t57.5 7.5q41 0 70 -15t45 -47.5t16 -83.5v-379q-26 -10 -57 -16.5t-56 -6.5zM178 0
q24 0 53 5.5t53 15.5l-3 -5v271q-25 10 -51.5 15t-47.5 5q-47 0 -79 -18.5t-47.5 -52t-15.5 -78.5v-5q0 -71 34.5 -112t103.5 -41zM214 762h12l-62 -144h-11z" />
    <glyph glyph-name="acircumflex" unicode="&#xe2;" horiz-adv-x="346" 
d="M178 -10q-45 0 -78.5 18t-51.5 54.5t-18 90.5v5q0 79 40.5 119t111.5 40q22 0 49 -5t53 -15l-3 -3v98q0 43 -12 73t-39 46.5t-70 16.5q-28 0 -58 -8t-57 -25l2 13q26 15 55.5 22.5t57.5 7.5q41 0 70 -15t45 -47.5t16 -83.5v-379q-26 -10 -57 -16.5t-56 -6.5zM178 0
q24 0 53 5.5t53 15.5l-3 -5v271q-25 10 -51.5 15t-47.5 5q-47 0 -79 -18.5t-47.5 -52t-15.5 -78.5v-5q0 -71 34.5 -112t103.5 -41zM165 762h10l107 -144h-11l-101 135l-98 -135h-11z" />
    <glyph glyph-name="atilde" unicode="&#xe3;" horiz-adv-x="346" 
d="M178 -10q-45 0 -78.5 18t-51.5 54.5t-18 90.5v5q0 79 40.5 119t111.5 40q22 0 49 -5t53 -15l-3 -3v98q0 43 -12 73t-39 46.5t-70 16.5q-28 0 -58 -8t-57 -25l2 13q26 15 55.5 22.5t57.5 7.5q41 0 70 -15t45 -47.5t16 -83.5v-379q-26 -10 -57 -16.5t-56 -6.5zM178 0
q24 0 53 5.5t53 15.5l-3 -5v271q-25 10 -51.5 15t-47.5 5q-47 0 -79 -18.5t-47.5 -52t-15.5 -78.5v-5q0 -71 34.5 -112t103.5 -41zM54 618q2 32 7.5 49.5t17 25t30.5 7.5q17 0 31 -9.5t33 -27.5q20 -19 32.5 -27.5t27.5 -8.5q22 0 32.5 17.5t13.5 55.5h9q-2 -31 -8.5 -49
t-17.5 -25.5t-29 -7.5q-17 0 -32 10t-33 28q-19 18 -32 26.5t-28 8.5q-24 0 -33 -17t-12 -56h-9z" />
    <glyph glyph-name="adieresis" unicode="&#xe4;" horiz-adv-x="346" 
d="M178 -10q-45 0 -78.5 18t-51.5 54.5t-18 90.5v5q0 79 40.5 119t111.5 40q22 0 49 -5t53 -15l-3 -3v98q0 43 -12 73t-39 46.5t-70 16.5q-28 0 -58 -8t-57 -25l2 13q26 15 55.5 22.5t57.5 7.5q41 0 70 -15t45 -47.5t16 -83.5v-379q-26 -10 -57 -16.5t-56 -6.5zM178 0
q24 0 53 5.5t53 15.5l-3 -5v271q-25 10 -51.5 15t-47.5 5q-47 0 -79 -18.5t-47.5 -52t-15.5 -78.5v-5q0 -71 34.5 -112t103.5 -41zM130 618v75.5v74.5h5h5v-74.5v-75.5h-5h-5zM201 618v75.5v74.5h5h5v-74.5v-75.5h-5h-5z" />
    <glyph glyph-name="aring" unicode="&#xe5;" horiz-adv-x="346" 
d="M178 -10q-45 0 -78.5 18t-51.5 54.5t-18 90.5v5q0 79 40.5 119t111.5 40q22 0 49 -5t53 -15l-3 -3v98q0 43 -12 73t-39 46.5t-70 16.5q-28 0 -58 -8t-57 -25l2 13q26 15 55.5 22.5t57.5 7.5q41 0 70 -15t45 -47.5t16 -83.5v-379q-26 -10 -57 -16.5t-56 -6.5zM178 0
q24 0 53 5.5t53 15.5l-3 -5v271q-25 10 -51.5 15t-47.5 5q-47 0 -79 -18.5t-47.5 -52t-15.5 -78.5v-5q0 -71 34.5 -112t103.5 -41zM173 618q-22 0 -38 12t-24.5 33.5t-7.5 49.5q0 28 7.5 48t23 31.5t38.5 11.5q21 0 36.5 -12.5t23.5 -34t9 -48.5q0 -28 -7.5 -48.5
t-22.5 -31.5t-38 -11zM172 628q31 0 45 22t13 61q0 38 -14.5 60.5t-42.5 22.5q-32 0 -45.5 -22t-14.5 -61q0 -38 15 -60.5t44 -22.5z" />
    <glyph glyph-name="ae" unicode="&#xe6;" horiz-adv-x="592" 
d="M178 -10q-45 0 -78.5 18t-51.5 54.5t-18 90.5v5q0 79 40.5 119t111.5 40q22 0 49 -5t53 -15l-3 -3v98q0 43 -12 73t-39 46.5t-70 16.5q-28 0 -58 -8t-57 -25l2 13q26 15 55.5 22.5t57.5 7.5q41 0 70 -15t45 -47.5t16 -83.5v-379q-26 -10 -57 -16.5t-56 -6.5zM178 0
q24 0 53 5.5t53 15.5l-3 -5v271q-25 10 -51.5 15t-47.5 5q-47 0 -79 -18.5t-47.5 -52t-15.5 -78.5v-5q0 -71 34.5 -112t103.5 -41zM425 -10q-56 0 -88 20t-44 56t-12 90v238q0 52 16 85t44.5 47.5t69.5 14.5t69.5 -14.5t44.5 -47.5t16 -85v-119h-252v10h246l-4 -4v113
q0 40 -10.5 70.5t-37 48.5t-72.5 18t-72.5 -18t-37 -48.5t-10.5 -70.5v-238q0 -61 15.5 -95t44.5 -47.5t74 -13.5q32 0 61 10.5t52 32.5l4 -9q-21 -22 -52.5 -33t-64.5 -11z" />
    <glyph glyph-name="ccedilla" unicode="&#xe7;" horiz-adv-x="315" 
d="M181 -10q-41 0 -70 15t-45 47.5t-16 83.5v259q0 51 16 83.5t45 47.5t70 15q28 0 53 -8.5t50 -26.5l-4 -9q-27 19 -50 26.5t-49 7.5q-43 0 -70 -16.5t-39 -46.5t-12 -73v-259q0 -43 12 -73t39 -46.5t70 -16.5q27 0 53.5 8t49.5 25l4 -9q-21 -17 -50 -25.5t-57 -8.5z
M175 -213q-13 0 -27.5 4t-24.5 11l2 9q11 -8 24 -11.5t26 -3.5q30 0 44 14.5t14 40.5v26q0 25 -14 39.5t-44 14.5q-23 0 -48 -15l-2 9q12 8 24.5 11.5t25.5 3.5q32 0 50 -15.5t18 -47.5v-26q0 -33 -18 -48.5t-50 -15.5zM121 -76l55 76h11l-60 -84z" />
    <glyph glyph-name="egrave" unicode="&#xe8;" horiz-adv-x="361" 
d="M194 -10q-56 0 -88 20t-44 56t-12 90v238q0 52 16 85t44.5 47.5t69.5 14.5t69.5 -14.5t44.5 -47.5t16 -85v-119h-252v10h246l-4 -4v113q0 40 -10.5 70.5t-37 48.5t-72.5 18t-72.5 -18t-37 -48.5t-10.5 -70.5v-238q0 -61 15.5 -95t44.5 -47.5t74 -13.5q32 0 61 10.5
t52 32.5l4 -9q-21 -22 -52.5 -33t-64.5 -11zM191 618l-62 144h12l61 -144h-11z" />
    <glyph glyph-name="eacute" unicode="&#xe9;" horiz-adv-x="361" 
d="M194 -10q-56 0 -88 20t-44 56t-12 90v238q0 52 16 85t44.5 47.5t69.5 14.5t69.5 -14.5t44.5 -47.5t16 -85v-119h-252v10h246l-4 -4v113q0 40 -10.5 70.5t-37 48.5t-72.5 18t-72.5 -18t-37 -48.5t-10.5 -70.5v-238q0 -61 15.5 -95t44.5 -47.5t74 -13.5q32 0 61 10.5
t52 32.5l4 -9q-21 -22 -52.5 -33t-64.5 -11zM227 762h12l-62 -144h-11z" />
    <glyph glyph-name="ecircumflex" unicode="&#xea;" horiz-adv-x="361" 
d="M194 -10q-56 0 -88 20t-44 56t-12 90v238q0 52 16 85t44.5 47.5t69.5 14.5t69.5 -14.5t44.5 -47.5t16 -85v-119h-252v10h246l-4 -4v113q0 40 -10.5 70.5t-37 48.5t-72.5 18t-72.5 -18t-37 -48.5t-10.5 -70.5v-238q0 -61 15.5 -95t44.5 -47.5t74 -13.5q32 0 61 10.5
t52 32.5l4 -9q-21 -22 -52.5 -33t-64.5 -11zM178 762h10l107 -144h-11l-101 135l-98 -135h-11z" />
    <glyph glyph-name="edieresis" unicode="&#xeb;" horiz-adv-x="361" 
d="M194 -10q-56 0 -88 20t-44 56t-12 90v238q0 52 16 85t44.5 47.5t69.5 14.5t69.5 -14.5t44.5 -47.5t16 -85v-119h-252v10h246l-4 -4v113q0 40 -10.5 70.5t-37 48.5t-72.5 18t-72.5 -18t-37 -48.5t-10.5 -70.5v-238q0 -61 15.5 -95t44.5 -47.5t74 -13.5q32 0 61 10.5
t52 32.5l4 -9q-21 -22 -52.5 -33t-64.5 -11zM143 618v75.5v74.5h5h5v-74.5v-75.5h-5h-5zM214 618v75.5v74.5h5h5v-74.5v-75.5h-5h-5z" />
    <glyph glyph-name="igrave" unicode="&#xec;" horiz-adv-x="150" 
d="M70 530h10v-530h-10v530zM81 618l-62 144h12l61 -144h-11z" />
    <glyph glyph-name="iacute" unicode="&#xed;" horiz-adv-x="150" 
d="M70 530h10v-530h-10v530zM117 762h12l-62 -144h-11z" />
    <glyph glyph-name="icircumflex" unicode="&#xee;" horiz-adv-x="150" 
d="M70 530h10v-530h-10v530zM68 762h10l107 -144h-11l-101 135l-98 -135h-11z" />
    <glyph glyph-name="idieresis" unicode="&#xef;" horiz-adv-x="150" 
d="M70 530h10v-530h-10v530zM33 618v75.5v74.5h5h5v-74.5v-75.5h-5h-5zM104 618v75.5v74.5h5h5v-74.5v-75.5h-5h-5z" />
    <glyph glyph-name="eth" unicode="&#xf0;" horiz-adv-x="379" 
d="M180 -10q-41 0 -70 15t-44.5 47.5t-15.5 84.5v257q0 52 15.5 84.5t44.5 47.5t70 15q46 0 77 -19t44 -60l-1 -1q0 111 -12.5 176t-51 106t-116.5 59v9q88 -19 128.5 -66.5t51 -121.5t10.5 -216v-270q0 -52 -15.5 -84.5t-44.5 -47.5t-70 -15zM180 0q42 0 68.5 16.5t39 46.5
t12.5 74v257q0 44 -12.5 74t-39 46.5t-68.5 16.5t-69 -16.5t-39 -47t-12 -73.5v-257q0 -43 12 -73.5t39 -47t69 -16.5zM193 667l131 93l5 -8l-131 -93z" />
    <glyph glyph-name="ntilde" unicode="&#xf1;" horiz-adv-x="373" 
d="M70 509q31 16 65.5 24t63.5 8q36 0 64 -11t44 -33.5t16 -57.5v-439h-10v439q0 32 -14.5 52.5t-40 30t-59.5 9.5q-28 0 -59 -7t-60 -20v-504h-10v509zM82 618q2 32 7.5 49.5t17 25t30.5 7.5q17 0 31 -9.5t33 -27.5q20 -19 32.5 -27.5t27.5 -8.5q22 0 32.5 17.5t13.5 55.5
h9q-2 -31 -8.5 -49t-17.5 -25.5t-29 -7.5q-17 0 -32 10t-33 28q-19 18 -32 26.5t-28 8.5q-24 0 -33 -17t-12 -56h-9z" />
    <glyph glyph-name="ograve" unicode="&#xf2;" horiz-adv-x="360" 
d="M180 -10q-41 0 -70 15t-44.5 47.5t-15.5 84.5v257q0 52 15.5 84.5t44.5 47.5t70 15t70 -15t44.5 -47.5t15.5 -84.5v-257q0 -52 -15.5 -84.5t-44.5 -47.5t-70 -15zM180 0q42 0 68.5 16.5t39 46.5t12.5 74v257q0 44 -12.5 74t-39 46.5t-68.5 16.5t-69 -16.5t-39 -47
t-12 -73.5v-257q0 -43 12 -73.5t39 -47t69 -16.5zM187 618l-62 144h12l61 -144h-11z" />
    <glyph glyph-name="oacute" unicode="&#xf3;" horiz-adv-x="360" 
d="M180 -10q-41 0 -70 15t-44.5 47.5t-15.5 84.5v257q0 52 15.5 84.5t44.5 47.5t70 15t70 -15t44.5 -47.5t15.5 -84.5v-257q0 -52 -15.5 -84.5t-44.5 -47.5t-70 -15zM180 0q42 0 68.5 16.5t39 46.5t12.5 74v257q0 44 -12.5 74t-39 46.5t-68.5 16.5t-69 -16.5t-39 -47
t-12 -73.5v-257q0 -43 12 -73.5t39 -47t69 -16.5zM223 762h12l-62 -144h-11z" />
    <glyph glyph-name="ocircumflex" unicode="&#xf4;" horiz-adv-x="360" 
d="M180 -10q-41 0 -70 15t-44.5 47.5t-15.5 84.5v257q0 52 15.5 84.5t44.5 47.5t70 15t70 -15t44.5 -47.5t15.5 -84.5v-257q0 -52 -15.5 -84.5t-44.5 -47.5t-70 -15zM180 0q42 0 68.5 16.5t39 46.5t12.5 74v257q0 44 -12.5 74t-39 46.5t-68.5 16.5t-69 -16.5t-39 -47
t-12 -73.5v-257q0 -43 12 -73.5t39 -47t69 -16.5zM174 762h10l107 -144h-11l-101 135l-98 -135h-11z" />
    <glyph glyph-name="otilde" unicode="&#xf5;" horiz-adv-x="360" 
d="M180 -10q-41 0 -70 15t-44.5 47.5t-15.5 84.5v257q0 52 15.5 84.5t44.5 47.5t70 15t70 -15t44.5 -47.5t15.5 -84.5v-257q0 -52 -15.5 -84.5t-44.5 -47.5t-70 -15zM180 0q42 0 68.5 16.5t39 46.5t12.5 74v257q0 44 -12.5 74t-39 46.5t-68.5 16.5t-69 -16.5t-39 -47
t-12 -73.5v-257q0 -43 12 -73.5t39 -47t69 -16.5zM63 618q2 32 7.5 49.5t17 25t30.5 7.5q17 0 31 -9.5t33 -27.5q20 -19 32.5 -27.5t27.5 -8.5q22 0 32.5 17.5t13.5 55.5h9q-2 -31 -8.5 -49t-17.5 -25.5t-29 -7.5q-17 0 -32 10t-33 28q-19 18 -32 26.5t-28 8.5
q-24 0 -33 -17t-12 -56h-9z" />
    <glyph glyph-name="odieresis" unicode="&#xf6;" horiz-adv-x="360" 
d="M180 -10q-41 0 -70 15t-44.5 47.5t-15.5 84.5v257q0 52 15.5 84.5t44.5 47.5t70 15t70 -15t44.5 -47.5t15.5 -84.5v-257q0 -52 -15.5 -84.5t-44.5 -47.5t-70 -15zM180 0q42 0 68.5 16.5t39 46.5t12.5 74v257q0 44 -12.5 74t-39 46.5t-68.5 16.5t-69 -16.5t-39 -47
t-12 -73.5v-257q0 -43 12 -73.5t39 -47t69 -16.5zM139 618v75.5v74.5h5h5v-74.5v-75.5h-5h-5zM210 618v75.5v74.5h5h5v-74.5v-75.5h-5h-5z" />
    <glyph glyph-name="divide" unicode="&#xf7;" horiz-adv-x="428" 
d="M45 290h338v-10h-338v10zM210 411v75.5v74.5h5h5v-74.5v-75.5h-5h-5zM210 -9v75.5v74.5h5h5v-74.5v-75.5h-5h-5z" />
    <glyph glyph-name="oslash" unicode="&#xf8;" horiz-adv-x="360" 
d="M180 -10q-41 0 -70 15t-44.5 47.5t-15.5 84.5v257q0 52 15.5 84.5t44.5 47.5t70 15t70 -15t44.5 -47.5t15.5 -84.5v-257q0 -52 -15.5 -84.5t-44.5 -47.5t-70 -15zM180 0q42 0 68.5 16.5t39 46.5t12.5 74v257q0 44 -12.5 74t-39 46.5t-68.5 16.5t-69 -16.5t-39 -47
t-12 -73.5v-257q0 -43 12 -73.5t39 -47t69 -16.5zM282 548h11l-216 -574h-11z" />
    <glyph glyph-name="ugrave" unicode="&#xf9;" horiz-adv-x="393" 
d="M194 -10q-36 0 -64 11t-44 33.5t-16 57.5v438h10v-438q0 -32 14.5 -52.5t40 -30t59.5 -9.5q28 0 59 7t60 20v503h10v-508q-31 -16 -65.5 -24t-63.5 -8zM204 618l-62 144h12l61 -144h-11z" />
    <glyph glyph-name="uacute" unicode="&#xfa;" horiz-adv-x="393" 
d="M194 -10q-36 0 -64 11t-44 33.5t-16 57.5v438h10v-438q0 -32 14.5 -52.5t40 -30t59.5 -9.5q28 0 59 7t60 20v503h10v-508q-31 -16 -65.5 -24t-63.5 -8zM240 762h12l-62 -144h-11z" />
    <glyph glyph-name="ucircumflex" unicode="&#xfb;" horiz-adv-x="393" 
d="M194 -10q-36 0 -64 11t-44 33.5t-16 57.5v438h10v-438q0 -32 14.5 -52.5t40 -30t59.5 -9.5q28 0 59 7t60 20v503h10v-508q-31 -16 -65.5 -24t-63.5 -8zM191 762h10l107 -144h-11l-101 135l-98 -135h-11z" />
    <glyph glyph-name="udieresis" unicode="&#xfc;" horiz-adv-x="393" 
d="M194 -10q-36 0 -64 11t-44 33.5t-16 57.5v438h10v-438q0 -32 14.5 -52.5t40 -30t59.5 -9.5q28 0 59 7t60 20v503h10v-508q-31 -16 -65.5 -24t-63.5 -8zM156 618v75.5v74.5h5h5v-74.5v-75.5h-5h-5zM227 618v75.5v74.5h5h5v-74.5v-75.5h-5h-5z" />
    <glyph glyph-name="yacute" unicode="&#xfd;" horiz-adv-x="384" 
d="M182 -227q-28 0 -57 8.5t-50 25.5l4 9q23 -17 49.5 -25t53.5 -8q43 0 70 16.5t39 46.5t12 73v611h10v-611q0 -51 -16 -83.5t-45 -47.5t-70 -15zM184 -10q-36 0 -64 11t-44 33.5t-16 57.5v438h10v-438q0 -32 14.5 -52.5t40 -30t59.5 -9.5q28 0 59 7t60 20l11 -5
q-31 -16 -66 -24t-64 -8zM229 762h12l-62 -144h-11z" />
    <glyph glyph-name="thorn" unicode="&#xfe;" horiz-adv-x="380" 
d="M70 811h10v-292q65 22 122 22q40 0 68.5 -15t44 -47.5t15.5 -84.5v-258q0 -52 -15.5 -84t-44 -47t-68.5 -15q-28 0 -59.5 5.5t-62.5 16.5v-232h-10v1031zM202 0q41 0 67.5 16.5t38.5 47t12 72.5v258q0 42 -12 72.5t-38.5 47.5t-67.5 17q-28 0 -60 -6t-62 -16v-487
q31 -10 62.5 -16t59.5 -6z" />
    <glyph glyph-name="ydieresis" unicode="&#xff;" horiz-adv-x="384" 
d="M182 -227q-28 0 -57 8.5t-50 25.5l4 9q23 -17 49.5 -25t53.5 -8q43 0 70 16.5t39 46.5t12 73v611h10v-611q0 -51 -16 -83.5t-45 -47.5t-70 -15zM184 -10q-36 0 -64 11t-44 33.5t-16 57.5v438h10v-438q0 -32 14.5 -52.5t40 -30t59.5 -9.5q28 0 59 7t60 20l11 -5
q-31 -16 -66 -24t-64 -8zM145 618v75.5v74.5h5h5v-74.5v-75.5h-5h-5zM216 618v75.5v74.5h5h5v-74.5v-75.5h-5h-5z" />
    <glyph glyph-name="Amacron" unicode="&#x100;" horiz-adv-x="449" 
d="M218 811h10l201 -811h-11l-76 306l5 -4h-247l5 4l-74 -306h-11zM102 312h243l-3 -4l-119 483l-118 -483zM121 916h205v-10h-205v10z" />
    <glyph glyph-name="amacron" unicode="&#x101;" horiz-adv-x="346" 
d="M178 -10q-45 0 -78.5 18t-51.5 54.5t-18 90.5v5q0 79 40.5 119t111.5 40q22 0 49 -5t53 -15l-3 -3v98q0 43 -12 73t-39 46.5t-70 16.5q-28 0 -58 -8t-57 -25l2 13q26 15 55.5 22.5t57.5 7.5q41 0 70 -15t45 -47.5t16 -83.5v-379q-26 -10 -57 -16.5t-56 -6.5zM178 0
q24 0 53 5.5t53 15.5l-3 -5v271q-25 10 -51.5 15t-47.5 5q-47 0 -79 -18.5t-47.5 -52t-15.5 -78.5v-5q0 -71 34.5 -112t103.5 -41zM82 658h177v-10h-177v10z" />
    <glyph glyph-name="Abreve" unicode="&#x102;" horiz-adv-x="449" 
d="M218 811h10l201 -811h-11l-76 306l5 -4h-247l5 4l-74 -306h-11zM102 312h243l-3 -4l-119 483l-118 -483zM215 883q-50 0 -71 34t-23 94h10q0 -48 17.5 -83t66.5 -35t66.5 35t17.5 83h10q-2 -60 -23 -94t-71 -34z" />
    <glyph glyph-name="abreve" unicode="&#x103;" horiz-adv-x="346" 
d="M178 -10q-45 0 -78.5 18t-51.5 54.5t-18 90.5v5q0 79 40.5 119t111.5 40q22 0 49 -5t53 -15l-3 -3v98q0 43 -12 73t-39 46.5t-70 16.5q-28 0 -58 -8t-57 -25l2 13q26 15 55.5 22.5t57.5 7.5q41 0 70 -15t45 -47.5t16 -83.5v-379q-26 -10 -57 -16.5t-56 -6.5zM178 0
q24 0 53 5.5t53 15.5l-3 -5v271q-25 10 -51.5 15t-47.5 5q-47 0 -79 -18.5t-47.5 -52t-15.5 -78.5v-5q0 -71 34.5 -112t103.5 -41zM162 618q-50 0 -71 34t-23 94h10q0 -48 17.5 -83t66.5 -35t66.5 35t17.5 83h10q-2 -60 -23 -94t-71 -34z" />
    <glyph glyph-name="Aogonek" unicode="&#x104;" horiz-adv-x="449" 
d="M218 811h10l201 -811h-11l-76 306l5 -4h-247l5 4l-74 -306h-11zM102 312h243l-3 -4l-119 483l-118 -483zM406 -184q-35 0 -57 18t-22 52q0 32 31 64t67 56l4 -6q-32 -24 -61.5 -54t-29.5 -61q0 -29 18 -43.5t47 -14.5q9 0 21 2v-11q-6 -2 -18 -2z" />
    <glyph glyph-name="aogonek" unicode="&#x105;" horiz-adv-x="346" 
d="M178 -10q-45 0 -78.5 18t-51.5 54.5t-18 90.5v5q0 79 40.5 119t111.5 40q22 0 49 -5t53 -15l-3 -3v98q0 43 -12 73t-39 46.5t-70 16.5q-28 0 -58 -8t-57 -25l2 13q26 15 55.5 22.5t57.5 7.5q41 0 70 -15t45 -47.5t16 -83.5v-379q-26 -10 -57 -16.5t-56 -6.5zM178 0
q24 0 53 5.5t53 15.5l-3 -5v271q-25 10 -51.5 15t-47.5 5q-47 0 -79 -18.5t-47.5 -52t-15.5 -78.5v-5q0 -71 34.5 -112t103.5 -41zM268 -171q-35 0 -57 18t-22 52q0 32 31 64t67 56l4 -6q-32 -24 -61.5 -54t-29.5 -61q0 -29 18 -43.5t47 -14.5q9 0 21 2v-11q-6 -2 -18 -2z
" />
    <glyph glyph-name="Cacute" unicode="&#x106;" horiz-adv-x="361" 
d="M208 -10q-53 0 -88.5 18t-55 63t-19.5 125v420q0 80 20 125t56 63t90 18q27 0 54 -8.5t61 -28.5l-3 -10q-32 19 -57.5 28t-54.5 9q-60 0 -94.5 -23.5t-48 -66.5t-13.5 -106v-420q0 -63 13.5 -106t47 -66.5t92.5 -23.5q46 0 71 8t53 29l4 -10q-28 -20 -55 -28.5t-73 -8.5z
M241 1027h12l-62 -144h-11z" />
    <glyph glyph-name="cacute" unicode="&#x107;" horiz-adv-x="315" 
d="M181 -10q-41 0 -70 15t-45 47.5t-16 83.5v259q0 51 16 83.5t45 47.5t70 15q28 0 53 -8.5t50 -26.5l-4 -9q-27 19 -50 26.5t-49 7.5q-43 0 -70 -16.5t-39 -46.5t-12 -73v-259q0 -43 12 -73t39 -46.5t70 -16.5q27 0 53.5 8t49.5 25l4 -9q-21 -17 -50 -25.5t-57 -8.5z
M225 762h12l-62 -144h-11z" />
    <glyph glyph-name="Ccircumflex" unicode="&#x108;" horiz-adv-x="361" 
d="M208 -10q-53 0 -88.5 18t-55 63t-19.5 125v420q0 80 20 125t56 63t90 18q27 0 54 -8.5t61 -28.5l-3 -10q-32 19 -57.5 28t-54.5 9q-60 0 -94.5 -23.5t-48 -66.5t-13.5 -106v-420q0 -63 13.5 -106t47 -66.5t92.5 -23.5q46 0 71 8t53 29l4 -10q-28 -20 -55 -28.5t-73 -8.5z
M192 1027h10l107 -144h-11l-101 135l-98 -135h-11z" />
    <glyph glyph-name="ccircumflex" unicode="&#x109;" horiz-adv-x="315" 
d="M181 -10q-41 0 -70 15t-45 47.5t-16 83.5v259q0 51 16 83.5t45 47.5t70 15q28 0 53 -8.5t50 -26.5l-4 -9q-27 19 -50 26.5t-49 7.5q-43 0 -70 -16.5t-39 -46.5t-12 -73v-259q0 -43 12 -73t39 -46.5t70 -16.5q27 0 53.5 8t49.5 25l4 -9q-21 -17 -50 -25.5t-57 -8.5z
M176 762h10l107 -144h-11l-101 135l-98 -135h-11z" />
    <glyph glyph-name="Cdotaccent" unicode="&#x10a;" horiz-adv-x="361" 
d="M208 -10q-53 0 -88.5 18t-55 63t-19.5 125v420q0 80 20 125t56 63t90 18q27 0 54 -8.5t61 -28.5l-3 -10q-32 19 -57.5 28t-54.5 9q-60 0 -94.5 -23.5t-48 -66.5t-13.5 -106v-420q0 -63 13.5 -106t47 -66.5t92.5 -23.5q46 0 71 8t53 29l4 -10q-28 -20 -55 -28.5t-73 -8.5z
M193 883v75.5v74.5h5h5v-74.5v-75.5h-5h-5z" />
    <glyph glyph-name="cdotaccent" unicode="&#x10b;" horiz-adv-x="315" 
d="M181 -10q-41 0 -70 15t-45 47.5t-16 83.5v259q0 51 16 83.5t45 47.5t70 15q28 0 53 -8.5t50 -26.5l-4 -9q-27 19 -50 26.5t-49 7.5q-43 0 -70 -16.5t-39 -46.5t-12 -73v-259q0 -43 12 -73t39 -46.5t70 -16.5q27 0 53.5 8t49.5 25l4 -9q-21 -17 -50 -25.5t-57 -8.5z
M177 618v75.5v74.5h5h5v-74.5v-75.5h-5h-5z" />
    <glyph glyph-name="Ccaron" unicode="&#x10c;" horiz-adv-x="361" 
d="M208 -10q-53 0 -88.5 18t-55 63t-19.5 125v420q0 80 20 125t56 63t90 18q27 0 54 -8.5t61 -28.5l-3 -10q-32 19 -57.5 28t-54.5 9q-60 0 -94.5 -23.5t-48 -66.5t-13.5 -106v-420q0 -63 13.5 -106t47 -66.5t92.5 -23.5q46 0 71 8t53 29l4 -10q-28 -20 -55 -28.5t-73 -8.5z
M98 1018l98 -135l101 135h11l-107 -144h-10l-104 144h11z" />
    <glyph glyph-name="ccaron" unicode="&#x10d;" horiz-adv-x="315" 
d="M181 -10q-41 0 -70 15t-45 47.5t-16 83.5v259q0 51 16 83.5t45 47.5t70 15q28 0 53 -8.5t50 -26.5l-4 -9q-27 19 -50 26.5t-49 7.5q-43 0 -70 -16.5t-39 -46.5t-12 -73v-259q0 -43 12 -73t39 -46.5t70 -16.5q27 0 53.5 8t49.5 25l4 -9q-21 -17 -50 -25.5t-57 -8.5z
M82 753l98 -135l101 135h11l-107 -144h-10l-104 144h11z" />
    <glyph glyph-name="Dcaron" unicode="&#x10e;" horiz-adv-x="431" 
d="M67 10h132q57 0 95.5 17t60 60t21.5 119v398q0 76 -21.5 119.5t-60 60.5t-95.5 17h-132v10h131q72 0 113.5 -25t58 -70t16.5 -112v-398q0 -67 -16 -111.5t-57.5 -69.5t-113.5 -25h-132v10zM65 811h10v-811h-10v811zM130 1018l98 -135l101 135h11l-107 -144h-10l-104 144
h11z" />
    <glyph glyph-name="dcaron" unicode="&#x10f;" horiz-adv-x="438" 
d="M405 811h13l-42 -190h-9zM178 -11q-40 0 -68.5 15t-44 47.5t-15.5 84.5v258q0 52 15.5 84.5t44 47.5t68.5 15q29 0 60.5 -5.5t62.5 -17.5v293h10v-796q-34 -13 -68.5 -19.5t-64.5 -6.5zM178 -1q29 0 61.5 6t61.5 17v486q-31 11 -62.5 17t-60.5 6q-41 0 -67.5 -17
t-38.5 -47.5t-12 -72.5v-258q0 -42 12 -72.5t38.5 -47.5t67.5 -17z" />
    <glyph glyph-name="Dcroat" unicode="&#x110;" horiz-adv-x="431" 
d="M67 10h132q57 0 95.5 17t60 60t21.5 119v398q0 76 -21.5 119.5t-60 60.5t-95.5 17h-132v10h131q72 0 113.5 -25t58 -70t16.5 -112v-398q0 -67 -16 -111.5t-57.5 -69.5t-113.5 -25h-132v10zM65 811h10v-811h-10v811zM231 413v-10h-235v10h235z" />
    <glyph glyph-name="dcroat" unicode="&#x111;" horiz-adv-x="381" 
d="M178 -11q-40 0 -68.5 15t-44 47.5t-15.5 84.5v258q0 52 15.5 84.5t44 47.5t68.5 15q29 0 60.5 -5.5t62.5 -17.5v293h10v-796q-34 -13 -68.5 -19.5t-64.5 -6.5zM178 -1q29 0 61.5 6t61.5 17v486q-31 11 -62.5 17t-60.5 6q-41 0 -67.5 -17t-38.5 -47.5t-12 -72.5v-258
q0 -42 12 -72.5t38.5 -47.5t67.5 -17zM391 657v-10h-215v10h215z" />
    <glyph glyph-name="Emacron" unicode="&#x112;" horiz-adv-x="370" 
d="M65 811h274v-10h-264v-372h222v-10h-222v-409h270v-10h-280v811zM115 923h177v-10h-177v10z" />
    <glyph glyph-name="emacron" unicode="&#x113;" horiz-adv-x="361" 
d="M194 -10q-56 0 -88 20t-44 56t-12 90v238q0 52 16 85t44.5 47.5t69.5 14.5t69.5 -14.5t44.5 -47.5t16 -85v-119h-252v10h246l-4 -4v113q0 40 -10.5 70.5t-37 48.5t-72.5 18t-72.5 -18t-37 -48.5t-10.5 -70.5v-238q0 -61 15.5 -95t44.5 -47.5t74 -13.5q32 0 61 10.5
t52 32.5l4 -9q-21 -22 -52.5 -33t-64.5 -11zM95 658h177v-10h-177v10z" />
    <glyph glyph-name="Ebreve" unicode="&#x114;" horiz-adv-x="370" 
d="M65 811h274v-10h-264v-372h222v-10h-222v-409h270v-10h-280v811zM195 883q-50 0 -71 34t-23 94h10q0 -48 17.5 -83t66.5 -35t66.5 35t17.5 83h10q-2 -60 -23 -94t-71 -34z" />
    <glyph glyph-name="ebreve" unicode="&#x115;" horiz-adv-x="361" 
d="M194 -10q-56 0 -88 20t-44 56t-12 90v238q0 52 16 85t44.5 47.5t69.5 14.5t69.5 -14.5t44.5 -47.5t16 -85v-119h-252v10h246l-4 -4v113q0 40 -10.5 70.5t-37 48.5t-72.5 18t-72.5 -18t-37 -48.5t-10.5 -70.5v-238q0 -61 15.5 -95t44.5 -47.5t74 -13.5q32 0 61 10.5
t52 32.5l4 -9q-21 -22 -52.5 -33t-64.5 -11zM175 618q-50 0 -71 34t-23 94h10q0 -48 17.5 -83t66.5 -35t66.5 35t17.5 83h10q-2 -60 -23 -94t-71 -34z" />
    <glyph glyph-name="Edotaccent" unicode="&#x116;" horiz-adv-x="370" 
d="M65 811h274v-10h-264v-372h222v-10h-222v-409h270v-10h-280v811zM199 883v75.5v74.5h5h5v-74.5v-75.5h-5h-5z" />
    <glyph glyph-name="edotaccent" unicode="&#x117;" horiz-adv-x="361" 
d="M194 -10q-56 0 -88 20t-44 56t-12 90v238q0 52 16 85t44.5 47.5t69.5 14.5t69.5 -14.5t44.5 -47.5t16 -85v-119h-252v10h246l-4 -4v113q0 40 -10.5 70.5t-37 48.5t-72.5 18t-72.5 -18t-37 -48.5t-10.5 -70.5v-238q0 -61 15.5 -95t44.5 -47.5t74 -13.5q32 0 61 10.5
t52 32.5l4 -9q-21 -22 -52.5 -33t-64.5 -11zM179 618v75.5v74.5h5h5v-74.5v-75.5h-5h-5z" />
    <glyph glyph-name="Eogonek" unicode="&#x118;" horiz-adv-x="370" 
d="M65 811h274v-10h-264v-372h222v-10h-222v-409h270v-10h-280v811zM322 -184q-35 0 -57 18t-22 52q0 32 31 64t67 56l4 -6q-32 -24 -61.5 -54t-29.5 -61q0 -29 18 -43.5t47 -14.5q9 0 21 2v-11q-6 -2 -18 -2z" />
    <glyph glyph-name="eogonek" unicode="&#x119;" horiz-adv-x="361" 
d="M194 -10q-56 0 -88 20t-44 56t-12 90v238q0 52 16 85t44.5 47.5t69.5 14.5t69.5 -14.5t44.5 -47.5t16 -85v-119h-252v10h246l-4 -4v113q0 40 -10.5 70.5t-37 48.5t-72.5 18t-72.5 -18t-37 -48.5t-10.5 -70.5v-238q0 -61 15.5 -95t44.5 -47.5t74 -13.5q32 0 61 10.5
t52 32.5l4 -9q-21 -22 -52.5 -33t-64.5 -11zM288 -150q-35 0 -57 18t-22 52q0 32 31 64t67 56l4 -6q-32 -24 -61.5 -54t-29.5 -61q0 -29 18 -43.5t47 -14.5q9 0 21 2v-11q-6 -2 -18 -2z" />
    <glyph glyph-name="Ecaron" unicode="&#x11a;" horiz-adv-x="370" 
d="M65 811h274v-10h-264v-372h222v-10h-222v-409h270v-10h-280v811zM104 1018l98 -135l101 135h11l-107 -144h-10l-104 144h11z" />
    <glyph glyph-name="ecaron" unicode="&#x11b;" horiz-adv-x="361" 
d="M194 -10q-56 0 -88 20t-44 56t-12 90v238q0 52 16 85t44.5 47.5t69.5 14.5t69.5 -14.5t44.5 -47.5t16 -85v-119h-252v10h246l-4 -4v113q0 40 -10.5 70.5t-37 48.5t-72.5 18t-72.5 -18t-37 -48.5t-10.5 -70.5v-238q0 -61 15.5 -95t44.5 -47.5t74 -13.5q32 0 61 10.5
t52 32.5l4 -9q-21 -22 -52.5 -33t-64.5 -11zM84 753l98 -135l101 135h11l-107 -144h-10l-104 144h11z" />
    <glyph glyph-name="Gcircumflex" unicode="&#x11c;" horiz-adv-x="422" 
d="M220 -10q-52 0 -91 19.5t-61.5 65.5t-22.5 121v420q0 64 19 110t59 71t101 25q31 0 65 -8.5t67 -28.5l-3 -10q-30 18 -63 27.5t-63 9.5q-51 0 -89.5 -19t-60.5 -62.5t-22 -114.5v-420q0 -64 18 -107.5t55 -66t94 -22.5q37 0 73.5 7.5t63.5 22.5l-3 -7v399l4 -4h-140v10
h147v-406q-32 -16 -69.5 -24t-77.5 -8zM220 1027h10l107 -144h-11l-101 135l-98 -135h-11z" />
    <glyph glyph-name="gcircumflex" unicode="&#x11d;" horiz-adv-x="381" 
d="M180 -227q-28 0 -57 8.5t-50 25.5l4 9q23 -17 49.5 -25t53.5 -8q43 0 70 16.5t39 46.5t12 73v95l3 -3q-25 -11 -60 -16.5t-63 -5.5q-41 0 -70 15t-45 47.5t-16 84.5v259q0 51 16 83.5t45 47.5t70 15q27 0 65 -7.5t65 -18.5v-596q0 -51 -16 -83.5t-45 -47.5t-70 -15z
M181 -1q25 0 61 6.5t59 15.5v487q-27 9 -62 16t-58 7q-42 0 -69 -16.5t-39.5 -47t-12.5 -73.5v-258q0 -43 12.5 -73.5t39.5 -47t69 -16.5zM195 762h10l107 -144h-11l-101 135l-98 -135h-11z" />
    <glyph glyph-name="Gbreve" unicode="&#x11e;" horiz-adv-x="422" 
d="M220 -10q-52 0 -91 19.5t-61.5 65.5t-22.5 121v420q0 64 19 110t59 71t101 25q31 0 65 -8.5t67 -28.5l-3 -10q-30 18 -63 27.5t-63 9.5q-51 0 -89.5 -19t-60.5 -62.5t-22 -114.5v-420q0 -64 18 -107.5t55 -66t94 -22.5q37 0 73.5 7.5t63.5 22.5l-3 -7v399l4 -4h-140v10
h147v-406q-32 -16 -69.5 -24t-77.5 -8zM217 883q-50 0 -71 34t-23 94h10q0 -48 17.5 -83t66.5 -35t66.5 35t17.5 83h10q-2 -60 -23 -94t-71 -34z" />
    <glyph glyph-name="gbreve" unicode="&#x11f;" horiz-adv-x="381" 
d="M180 -227q-28 0 -57 8.5t-50 25.5l4 9q23 -17 49.5 -25t53.5 -8q43 0 70 16.5t39 46.5t12 73v95l3 -3q-25 -11 -60 -16.5t-63 -5.5q-41 0 -70 15t-45 47.5t-16 84.5v259q0 51 16 83.5t45 47.5t70 15q27 0 65 -7.5t65 -18.5v-596q0 -51 -16 -83.5t-45 -47.5t-70 -15z
M181 -1q25 0 61 6.5t59 15.5v487q-27 9 -62 16t-58 7q-42 0 -69 -16.5t-39.5 -47t-12.5 -73.5v-258q0 -43 12.5 -73.5t39.5 -47t69 -16.5zM192 618q-50 0 -71 34t-23 94h10q0 -48 17.5 -83t66.5 -35t66.5 35t17.5 83h10q-2 -60 -23 -94t-71 -34z" />
    <glyph glyph-name="Gdotaccent" unicode="&#x120;" horiz-adv-x="422" 
d="M220 -10q-52 0 -91 19.5t-61.5 65.5t-22.5 121v420q0 64 19 110t59 71t101 25q31 0 65 -8.5t67 -28.5l-3 -10q-30 18 -63 27.5t-63 9.5q-51 0 -89.5 -19t-60.5 -62.5t-22 -114.5v-420q0 -64 18 -107.5t55 -66t94 -22.5q37 0 73.5 7.5t63.5 22.5l-3 -7v399l4 -4h-140v10
h147v-406q-32 -16 -69.5 -24t-77.5 -8zM221 883v75.5v74.5h5h5v-74.5v-75.5h-5h-5z" />
    <glyph glyph-name="gdotaccent" unicode="&#x121;" horiz-adv-x="381" 
d="M180 -227q-28 0 -57 8.5t-50 25.5l4 9q23 -17 49.5 -25t53.5 -8q43 0 70 16.5t39 46.5t12 73v95l3 -3q-25 -11 -60 -16.5t-63 -5.5q-41 0 -70 15t-45 47.5t-16 84.5v259q0 51 16 83.5t45 47.5t70 15q27 0 65 -7.5t65 -18.5v-596q0 -51 -16 -83.5t-45 -47.5t-70 -15z
M181 -1q25 0 61 6.5t59 15.5v487q-27 9 -62 16t-58 7q-42 0 -69 -16.5t-39.5 -47t-12.5 -73.5v-258q0 -43 12.5 -73.5t39.5 -47t69 -16.5zM196 618v75.5v74.5h5h5v-74.5v-75.5h-5h-5z" />
    <glyph glyph-name="uni0122" unicode="&#x122;" horiz-adv-x="422" 
d="M220 -10q-52 0 -91 19.5t-61.5 65.5t-22.5 121v420q0 64 19 110t59 71t101 25q31 0 65 -8.5t67 -28.5l-3 -10q-30 18 -63 27.5t-63 9.5q-51 0 -89.5 -19t-60.5 -62.5t-22 -114.5v-420q0 -64 18 -107.5t55 -66t94 -22.5q37 0 73.5 7.5t63.5 22.5l-3 -7v399l4 -4h-140v10
h147v-406q-32 -16 -69.5 -24t-77.5 -8zM198 -38h12l-60 -182h-9z" />
    <glyph glyph-name="uni0123" unicode="&#x123;" horiz-adv-x="381" 
d="M180 -227q-28 0 -57 8.5t-50 25.5l4 9q23 -17 49.5 -25t53.5 -8q43 0 70 16.5t39 46.5t12 73v95l3 -3q-25 -11 -60 -16.5t-63 -5.5q-41 0 -70 15t-45 47.5t-16 84.5v259q0 51 16 83.5t45 47.5t70 15q27 0 65 -7.5t65 -18.5v-596q0 -51 -16 -83.5t-45 -47.5t-70 -15z
M181 -1q25 0 61 6.5t59 15.5v487q-27 9 -62 16t-58 7q-42 0 -69 -16.5t-39.5 -47t-12.5 -73.5v-258q0 -43 12.5 -73.5t39.5 -47t69 -16.5zM245 762h11l-61 -144h-12z" />
    <glyph glyph-name="Hcircumflex" unicode="&#x124;" horiz-adv-x="442" 
d="M65 811h10v-383h292v383h10v-811h-10v418h-292v-418h-10v811zM215 1027h10l107 -144h-11l-101 135l-98 -135h-11z" />
    <glyph glyph-name="hcircumflex" unicode="&#x125;" horiz-adv-x="379" 
d="M314 439q0 32 -14.5 52.5t-40 30t-59.5 9.5q-28 0 -60.5 -7t-60.5 -21l-8 6q27 15 63.5 23.5t65.5 8.5q36 0 64 -11t44 -33.5t16 -57.5v-439h-10v439zM70 811h10v-811h-10v811zM69 993h10l107 -144h-11l-101 135l-98 -135h-11z" />
    <glyph glyph-name="Hbar" unicode="&#x126;" horiz-adv-x="442" 
d="M65 811h10v-383h292v383h10v-811h-10v418h-292v-418h-10v811zM31 631h380v-10h-380v10z" />
    <glyph glyph-name="hbar" unicode="&#x127;" horiz-adv-x="379" 
d="M314 439q0 32 -14.5 52.5t-40 30t-59.5 9.5q-28 0 -60.5 -7t-60.5 -21l-8 6q27 15 63.5 23.5t65.5 8.5q36 0 64 -11t44 -33.5t16 -57.5v-439h-10v439zM70 811h10v-811h-10v811zM209 657v-10h-215v10h215z" />
    <glyph glyph-name="Itilde" unicode="&#x128;" horiz-adv-x="140" 
d="M65 811h10v-811h-10v811zM-47 883q2 32 7.5 49.5t17 25t30.5 7.5q17 0 31 -9.5t33 -27.5q20 -19 32.5 -27.5t27.5 -8.5q22 0 32.5 17.5t13.5 55.5h9q-2 -31 -8.5 -49t-17.5 -25.5t-29 -7.5q-17 0 -32 10t-33 28q-19 18 -32 26.5t-28 8.5q-24 0 -33 -17t-12 -56h-9z" />
    <glyph glyph-name="itilde" unicode="&#x129;" horiz-adv-x="150" 
d="M70 530h10v-530h-10v530zM-43 618q2 32 7.5 49.5t17 25t30.5 7.5q17 0 31 -9.5t33 -27.5q20 -19 32.5 -27.5t27.5 -8.5q22 0 32.5 17.5t13.5 55.5h9q-2 -31 -8.5 -49t-17.5 -25.5t-29 -7.5q-17 0 -32 10t-33 28q-19 18 -32 26.5t-28 8.5q-24 0 -33 -17t-12 -56h-9z" />
    <glyph glyph-name="Imacron" unicode="&#x12a;" horiz-adv-x="140" 
d="M65 811h10v-811h-10v811zM-19 923h177v-10h-177v10z" />
    <glyph glyph-name="imacron" unicode="&#x12b;" horiz-adv-x="150" 
d="M70 530h10v-530h-10v530zM-15 658h177v-10h-177v10z" />
    <glyph glyph-name="Ibreve" unicode="&#x12c;" horiz-adv-x="140" 
d="M65 811h10v-811h-10v811zM61 883q-50 0 -71 34t-23 94h10q0 -48 17.5 -83t66.5 -35t66.5 35t17.5 83h10q-2 -60 -23 -94t-71 -34z" />
    <glyph glyph-name="ibreve" unicode="&#x12d;" horiz-adv-x="150" 
d="M70 530h10v-530h-10v530zM65 618q-50 0 -71 34t-23 94h10q0 -48 17.5 -83t66.5 -35t66.5 35t17.5 83h10q-2 -60 -23 -94t-71 -34z" />
    <glyph glyph-name="Iogonek" unicode="&#x12e;" horiz-adv-x="140" 
d="M65 811h10v-811h-10v811zM52 -184q-35 0 -57 18t-22 52q0 32 31 64t67 56l4 -6q-32 -24 -61.5 -54t-29.5 -61q0 -29 18 -43.5t47 -14.5q9 0 21 2v-11q-6 -2 -18 -2z" />
    <glyph glyph-name="iogonek" unicode="&#x12f;" horiz-adv-x="150" 
d="M70 530h10v-530h-10v530zM69 618v75.5v74.5h5h5v-74.5v-75.5h-5h-5zM57 -184q-35 0 -57 18t-22 52q0 32 31 64t67 56l4 -6q-32 -24 -61.5 -54t-29.5 -61q0 -29 18 -43.5t47 -14.5q9 0 21 2v-11q-6 -2 -18 -2z" />
    <glyph glyph-name="Idotaccent" unicode="&#x130;" horiz-adv-x="140" 
d="M65 811h10v-811h-10v811zM65 883v75.5v74.5h5h5v-74.5v-75.5h-5h-5z" />
    <glyph glyph-name="dotlessi" unicode="&#x131;" horiz-adv-x="150" 
d="M70 530h10v-530h-10v530z" />
    <glyph glyph-name="IJ" unicode="&#x132;" horiz-adv-x="456" 
d="M65 811h10v-811h-10v811zM260 -10q-26 0 -51.5 5t-58.5 17l4 8q26 -10 51.5 -15t51.5 -5q46 0 73.5 23.5t39 67t11.5 105.5v615h10v-615q0 -73 -15 -118.5t-44 -66.5t-72 -21z" />
    <glyph glyph-name="ij" unicode="&#x133;" horiz-adv-x="293" 
d="M70 530h10v-530h-10v530zM69 618v75.5v74.5h5h5v-74.5v-75.5h-5h-5zM103 -226q-6 0 -13 0.5t-14 1.5l-1 10q6 -1 13.5 -1.5t14.5 -0.5q42 0 66.5 16.5t34 46t9.5 73.5v610h10v-610q0 -56 -14.5 -88.5t-40.5 -45t-65 -12.5zM211 618v75.5v74.5h5h5v-74.5v-75.5h-5h-5z" />
    <glyph glyph-name="Jcircumflex" unicode="&#x134;" horiz-adv-x="316" 
d="M120 -10q-26 0 -51.5 5t-58.5 17l4 8q26 -10 51.5 -15t51.5 -5q46 0 73.5 23.5t39 67t11.5 105.5v615h10v-615q0 -73 -15 -118.5t-44 -66.5t-72 -21zM240 1027h10l107 -144h-11l-101 135l-98 -135h-11z" />
    <glyph glyph-name="jcircumflex" unicode="&#x135;" horiz-adv-x="143" 
d="M-47 -226q-6 0 -13 0.5t-14 1.5l-1 10q6 -1 13.5 -1.5t14.5 -0.5q42 0 66.5 16.5t34 46t9.5 73.5v610h10v-610q0 -56 -14.5 -88.5t-40.5 -45t-65 -12.5zM60 762h10l107 -144h-11l-101 135l-98 -135h-11z" />
    <glyph glyph-name="uni0136" unicode="&#x136;" horiz-adv-x="383" 
d="M65 811h10v-404l282 404h11l-285 -408l1 5l284 -408h-13l-280 403v-403h-10v811zM147 -157l132 80v-12l-132 -77v9z" />
    <glyph glyph-name="uni0137" unicode="&#x137;" horiz-adv-x="346" 
d="M70 810h10v-545l-3 1l238 264h11l-240 -268v6l240 -268h-11l-238 265l3 1v-267h-10v811zM119 -157l132 80v-12l-132 -77v9z" />
    <glyph glyph-name="Lacute" unicode="&#x139;" horiz-adv-x="370" 
d="M65 811h10v-801h280v-10h-290v811zM132 1027h12l-62 -144h-11z" />
    <glyph glyph-name="lacute" unicode="&#x13a;" horiz-adv-x="150" 
d="M70 811h10v-811h-10v811zM131 1003h12l-62 -144h-11z" />
    <glyph glyph-name="uni013B" unicode="&#x13b;" horiz-adv-x="370" 
d="M65 811h10v-801h280v-10h-290v811zM163 -157l132 80v-12l-132 -77v9z" />
    <glyph glyph-name="uni013C" unicode="&#x13c;" horiz-adv-x="150" 
d="M70 811h10v-811h-10v811zM20 -157l132 80v-12l-132 -77v9z" />
    <glyph glyph-name="Lcaron" unicode="&#x13d;" horiz-adv-x="370" 
d="M65 811h10v-801h280v-10h-290v811zM241 811h13l-42 -190h-9z" />
    <glyph glyph-name="lcaron" unicode="&#x13e;" horiz-adv-x="214" 
d="M181 811h13l-42 -190h-9zM70 811h10v-811h-10v811z" />
    <glyph glyph-name="Ldot" unicode="&#x13f;" horiz-adv-x="370" 
d="M65 811h10v-801h280v-10h-290v811zM219 362v75.5v74.5h5.5h5.5v-74.5v-75.5h-5.5h-5.5z" />
    <glyph glyph-name="ldot" unicode="&#x140;" horiz-adv-x="176" 
d="M70 811h10v-811h-10v811zM145 347v75.5v74.5h5.5h5.5v-74.5v-75.5h-5.5h-5.5z" />
    <glyph glyph-name="Lslash" unicode="&#x141;" horiz-adv-x="425" 
d="M120 811h10v-801h280v-10h-290v811zM45 414l149 72l5 -9l-150 -72z" />
    <glyph glyph-name="lslash" unicode="&#x142;" horiz-adv-x="184" 
d="M89 811h10v-811h-10v811zM15 399l149 72l5 -9l-150 -72z" />
    <glyph glyph-name="Nacute" unicode="&#x143;" horiz-adv-x="465" 
d="M65 811h17l310 -804h-2v804h10v-811h-17l-310 804h2v-804h-10v811zM275 1027h12l-62 -144h-11z" />
    <glyph glyph-name="nacute" unicode="&#x144;" horiz-adv-x="373" 
d="M70 509q31 16 65.5 24t63.5 8q36 0 64 -11t44 -33.5t16 -57.5v-439h-10v439q0 32 -14.5 52.5t-40 30t-59.5 9.5q-28 0 -59 -7t-60 -20v-504h-10v509zM242 762h12l-62 -144h-11z" />
    <glyph glyph-name="uni0145" unicode="&#x145;" horiz-adv-x="465" 
d="M65 811h17l310 -804h-2v804h10v-811h-17l-310 804h2v-804h-10v811zM158 -157l132 80v-12l-132 -77v9z" />
    <glyph glyph-name="uni0146" unicode="&#x146;" horiz-adv-x="373" 
d="M70 509q31 16 65.5 24t63.5 8q36 0 64 -11t44 -33.5t16 -57.5v-439h-10v439q0 32 -14.5 52.5t-40 30t-59.5 9.5q-28 0 -59 -7t-60 -20v-504h-10v509zM134 -157l132 80v-12l-132 -77v9z" />
    <glyph glyph-name="Ncaron" unicode="&#x147;" horiz-adv-x="465" 
d="M65 811h17l310 -804h-2v804h10v-811h-17l-310 804h2v-804h-10v811zM132 1018l98 -135l101 135h11l-107 -144h-10l-104 144h11z" />
    <glyph glyph-name="ncaron" unicode="&#x148;" horiz-adv-x="373" 
d="M70 509q31 16 65.5 24t63.5 8q36 0 64 -11t44 -33.5t16 -57.5v-439h-10v439q0 32 -14.5 52.5t-40 30t-59.5 9.5q-28 0 -59 -7t-60 -20v-504h-10v509zM99 753l98 -135l101 135h11l-107 -144h-10l-104 144h11z" />
    <glyph glyph-name="Eng" unicode="&#x14a;" horiz-adv-x="463" 
d="M267 -226q-26 0 -51.5 5t-58.5 17l4 8q26 -10 51.5 -15t51.5 -5q46 0 73.5 23.5t39 67t11.5 105.5v831h10v-831q0 -73 -15 -118.5t-44 -66.5t-72 -21zM65 811h17l309 -780v-31l-318 804h2v-804h-10v811z" />
    <glyph glyph-name="eng" unicode="&#x14b;" horiz-adv-x="393" 
d="M206 -226q-8 0 -16 0.5t-14 1.5l-1 10q6 -1 13 -1.5t13 -0.5q44 0 68 16t34 52.5t10 102.5v484q0 32 -14.5 52.5t-40 30t-59.5 9.5q-28 0 -59 -7t-60 -20v-504h-10v509q31 16 65.5 24t63.5 8q36 0 64 -11t44 -33.5t16 -57.5v-484q0 -67 -11.5 -106.5t-36.5 -57t-69 -17.5
z" />
    <glyph glyph-name="Omacron" unicode="&#x14c;" horiz-adv-x="409" 
d="M205 -10q-52 0 -86.5 18t-54 63.5t-19.5 125.5v418q0 80 19.5 125.5t54 63.5t86.5 18q51 0 85.5 -18t54 -63.5t19.5 -125.5v-418q0 -80 -19.5 -125.5t-54 -63.5t-85.5 -18zM205 0q57 0 90 24t46 67t13 106v418q0 65 -13 107.5t-45.5 66t-90.5 23.5t-91 -24t-46 -67
t-13 -106v-418q0 -64 13 -107t46 -66.5t91 -23.5zM115 923h177v-10h-177v10z" />
    <glyph glyph-name="omacron" unicode="&#x14d;" horiz-adv-x="360" 
d="M180 -10q-41 0 -70 15t-44.5 47.5t-15.5 84.5v257q0 52 15.5 84.5t44.5 47.5t70 15t70 -15t44.5 -47.5t15.5 -84.5v-257q0 -52 -15.5 -84.5t-44.5 -47.5t-70 -15zM180 0q42 0 68.5 16.5t39 46.5t12.5 74v257q0 44 -12.5 74t-39 46.5t-68.5 16.5t-69 -16.5t-39 -47
t-12 -73.5v-257q0 -43 12 -73.5t39 -47t69 -16.5zM91 658h177v-10h-177v10z" />
    <glyph glyph-name="Obreve" unicode="&#x14e;" horiz-adv-x="409" 
d="M205 -10q-52 0 -86.5 18t-54 63.5t-19.5 125.5v418q0 80 19.5 125.5t54 63.5t86.5 18q51 0 85.5 -18t54 -63.5t19.5 -125.5v-418q0 -80 -19.5 -125.5t-54 -63.5t-85.5 -18zM205 0q57 0 90 24t46 67t13 106v418q0 65 -13 107.5t-45.5 66t-90.5 23.5t-91 -24t-46 -67
t-13 -106v-418q0 -64 13 -107t46 -66.5t91 -23.5zM195 883q-50 0 -71 34t-23 94h10q0 -48 17.5 -83t66.5 -35t66.5 35t17.5 83h10q-2 -60 -23 -94t-71 -34z" />
    <glyph glyph-name="obreve" unicode="&#x14f;" horiz-adv-x="360" 
d="M180 -10q-41 0 -70 15t-44.5 47.5t-15.5 84.5v257q0 52 15.5 84.5t44.5 47.5t70 15t70 -15t44.5 -47.5t15.5 -84.5v-257q0 -52 -15.5 -84.5t-44.5 -47.5t-70 -15zM180 0q42 0 68.5 16.5t39 46.5t12.5 74v257q0 44 -12.5 74t-39 46.5t-68.5 16.5t-69 -16.5t-39 -47
t-12 -73.5v-257q0 -43 12 -73.5t39 -47t69 -16.5zM171 618q-50 0 -71 34t-23 94h10q0 -48 17.5 -83t66.5 -35t66.5 35t17.5 83h10q-2 -60 -23 -94t-71 -34z" />
    <glyph glyph-name="Ohungarumlaut" unicode="&#x150;" horiz-adv-x="409" 
d="M205 -10q-52 0 -86.5 18t-54 63.5t-19.5 125.5v418q0 80 19.5 125.5t54 63.5t86.5 18q51 0 85.5 -18t54 -63.5t19.5 -125.5v-418q0 -80 -19.5 -125.5t-54 -63.5t-85.5 -18zM205 0q57 0 90 24t46 67t13 106v418q0 65 -13 107.5t-45.5 66t-90.5 23.5t-91 -24t-46 -67
t-13 -106v-418q0 -64 13 -107t46 -66.5t91 -23.5zM216 1027h12l-62 -144h-11zM296 1027h12l-62 -144h-11z" />
    <glyph glyph-name="ohungarumlaut" unicode="&#x151;" horiz-adv-x="360" 
d="M180 -10q-41 0 -70 15t-44.5 47.5t-15.5 84.5v257q0 52 15.5 84.5t44.5 47.5t70 15t70 -15t44.5 -47.5t15.5 -84.5v-257q0 -52 -15.5 -84.5t-44.5 -47.5t-70 -15zM180 0q42 0 68.5 16.5t39 46.5t12.5 74v257q0 44 -12.5 74t-39 46.5t-68.5 16.5t-69 -16.5t-39 -47
t-12 -73.5v-257q0 -43 12 -73.5t39 -47t69 -16.5zM192 762h12l-62 -144h-11zM272 762h12l-62 -144h-11z" />
    <glyph glyph-name="OE" unicode="&#x152;" horiz-adv-x="659" 
d="M205 -10q-52 0 -86.5 18t-54 63.5t-19.5 125.5v418q0 80 19.5 125.5t54 63.5t86.5 18q51 0 85.5 -18t54 -63.5t19.5 -125.5v-418q0 -80 -19.5 -125.5t-54 -63.5t-85.5 -18zM205 0q57 0 90 24t46 67t13 106v418q0 65 -13 107.5t-45.5 66t-90.5 23.5t-91 -24t-46 -67
t-13 -106v-418q0 -64 13 -107t46 -66.5t91 -23.5zM354 811h274v-10h-264v-372h222v-10h-222v-409h270v-10h-280v811z" />
    <glyph glyph-name="oe" unicode="&#x153;" horiz-adv-x="612" 
d="M180 -10q-41 0 -70 15t-44.5 47.5t-15.5 84.5v257q0 52 15.5 84.5t44.5 47.5t70 15t70 -15t44.5 -47.5t15.5 -84.5v-257q0 -52 -15.5 -84.5t-44.5 -47.5t-70 -15zM180 0q42 0 68.5 16.5t39 46.5t12.5 74v257q0 44 -12.5 74t-39 46.5t-68.5 16.5t-69 -16.5t-39 -47
t-12 -73.5v-257q0 -43 12 -73.5t39 -47t69 -16.5zM445 -10q-56 0 -88 20t-44 56t-12 90v238q0 52 16 85t44.5 47.5t69.5 14.5t69.5 -14.5t44.5 -47.5t16 -85v-119h-252v10h246l-4 -4v113q0 40 -10.5 70.5t-37 48.5t-72.5 18t-72.5 -18t-37 -48.5t-10.5 -70.5v-238
q0 -61 15.5 -95t44.5 -47.5t74 -13.5q32 0 61 10.5t52 32.5l4 -9q-21 -22 -52.5 -33t-64.5 -11z" />
    <glyph glyph-name="Racute" unicode="&#x154;" horiz-adv-x="443" 
d="M65 374h99q78 0 121 21.5t60 64.5t17 115v31q0 77 -21 119.5t-63.5 59t-113.5 16.5h-99v10h95q84 0 130 -21.5t64 -65.5t18 -117v-31q0 -84 -22.5 -130t-68 -64t-121.5 -18h-95v10zM65 811h10v-811h-10v811zM230 370l11 1l172 -371h-13zM247 1027h12l-62 -144h-11z" />
    <glyph glyph-name="racute" unicode="&#x155;" horiz-adv-x="260" 
d="M70 511q25 15 63 22.5t69 7.5h38v-10h-38q-29 0 -63.5 -6t-58.5 -20v-505h-10v511zM192 762h12l-62 -144h-11z" />
    <glyph glyph-name="uni0156" unicode="&#x156;" horiz-adv-x="443" 
d="M65 374h99q78 0 121 21.5t60 64.5t17 115v31q0 77 -21 119.5t-63.5 59t-113.5 16.5h-99v10h95q84 0 130 -21.5t64 -65.5t18 -117v-31q0 -84 -22.5 -130t-68 -64t-121.5 -18h-95v10zM65 811h10v-811h-10v811zM230 370l11 1l172 -371h-13zM156 -157l132 80v-12l-132 -77v9z
" />
    <glyph glyph-name="uni0157" unicode="&#x157;" horiz-adv-x="260" 
d="M70 511q25 15 63 22.5t69 7.5h38v-10h-38q-29 0 -63.5 -6t-58.5 -20v-505h-10v511zM23 -157l132 80v-12l-132 -77v9z" />
    <glyph glyph-name="Rcaron" unicode="&#x158;" horiz-adv-x="443" 
d="M65 374h99q78 0 121 21.5t60 64.5t17 115v31q0 77 -21 119.5t-63.5 59t-113.5 16.5h-99v10h95q84 0 130 -21.5t64 -65.5t18 -117v-31q0 -84 -22.5 -130t-68 -64t-121.5 -18h-95v10zM65 811h10v-811h-10v811zM230 370l11 1l172 -371h-13zM104 1018l98 -135l101 135h11
l-107 -144h-10l-104 144h11z" />
    <glyph glyph-name="rcaron" unicode="&#x159;" horiz-adv-x="260" 
d="M70 511q25 15 63 22.5t69 7.5h38v-10h-38q-29 0 -63.5 -6t-58.5 -20v-505h-10v511zM49 753l98 -135l101 135h11l-107 -144h-10l-104 144h11z" />
    <glyph glyph-name="Sacute" unicode="&#x15a;" horiz-adv-x="398" 
d="M195 -10q-47 0 -83 13.5t-68 41.5l4 10q31 -29 65.5 -41.5t81.5 -12.5q42 0 76 22t53 63t19 94v28q0 49 -13 82.5t-44 62.5t-90 62q-64 36 -97.5 67.5t-46 66.5t-12.5 86v25q0 46 18.5 83t54.5 58t88 21q34 0 67.5 -9.5t65.5 -27.5l-3 -10q-31 18 -63.5 27.5t-66.5 9.5
q-49 0 -83 -20t-51 -54.5t-17 -77.5v-27q0 -50 14 -84t46.5 -62.5t92.5 -62.5q61 -34 93.5 -65.5t44.5 -66.5t12 -84v-28q0 -56 -20.5 -99t-56.5 -67t-81 -24zM239 1027h12l-62 -144h-11z" />
    <glyph glyph-name="sacute" unicode="&#x15b;" horiz-adv-x="334" 
d="M154 -10q-33 0 -63 8.5t-51 25.5l4 9q23 -17 50.5 -25t59.5 -8q56 0 90.5 29.5t34.5 91.5q0 38 -13 63t-36.5 42t-65.5 36l-33 15q-31 14 -49.5 33t-26.5 44.5t-8 60.5q0 56 34 88.5t89 32.5q28 0 53 -8.5t50 -26.5l-4 -9q-27 19 -50 26.5t-49 7.5q-50 0 -81.5 -29.5
t-31.5 -81.5q0 -34 7.5 -57.5t25.5 -41.5t49 -32l28 -13q44 -21 68.5 -37.5t39 -43t14.5 -69.5q0 -63 -35 -97t-100 -34zM213 762h12l-62 -144h-11z" />
    <glyph glyph-name="Scircumflex" unicode="&#x15c;" horiz-adv-x="398" 
d="M195 -10q-47 0 -83 13.5t-68 41.5l4 10q31 -29 65.5 -41.5t81.5 -12.5q42 0 76 22t53 63t19 94v28q0 49 -13 82.5t-44 62.5t-90 62q-64 36 -97.5 67.5t-46 66.5t-12.5 86v25q0 46 18.5 83t54.5 58t88 21q34 0 67.5 -9.5t65.5 -27.5l-3 -10q-31 18 -63.5 27.5t-66.5 9.5
q-49 0 -83 -20t-51 -54.5t-17 -77.5v-27q0 -50 14 -84t46.5 -62.5t92.5 -62.5q61 -34 93.5 -65.5t44.5 -66.5t12 -84v-28q0 -56 -20.5 -99t-56.5 -67t-81 -24zM190 1027h10l107 -144h-11l-101 135l-98 -135h-11z" />
    <glyph glyph-name="scircumflex" unicode="&#x15d;" horiz-adv-x="334" 
d="M154 -10q-33 0 -63 8.5t-51 25.5l4 9q23 -17 50.5 -25t59.5 -8q56 0 90.5 29.5t34.5 91.5q0 38 -13 63t-36.5 42t-65.5 36l-33 15q-31 14 -49.5 33t-26.5 44.5t-8 60.5q0 56 34 88.5t89 32.5q28 0 53 -8.5t50 -26.5l-4 -9q-27 19 -50 26.5t-49 7.5q-50 0 -81.5 -29.5
t-31.5 -81.5q0 -34 7.5 -57.5t25.5 -41.5t49 -32l28 -13q44 -21 68.5 -37.5t39 -43t14.5 -69.5q0 -63 -35 -97t-100 -34zM164 762h10l107 -144h-11l-101 135l-98 -135h-11z" />
    <glyph glyph-name="Scedilla" unicode="&#x15e;" horiz-adv-x="398" 
d="M195 -10q-47 0 -83 13.5t-68 41.5l4 10q31 -29 65.5 -41.5t81.5 -12.5q42 0 76 22t53 63t19 94v28q0 49 -13 82.5t-44 62.5t-90 62q-64 36 -97.5 67.5t-46 66.5t-12.5 86v25q0 46 18.5 83t54.5 58t88 21q34 0 67.5 -9.5t65.5 -27.5l-3 -10q-31 18 -63.5 27.5t-66.5 9.5
q-49 0 -83 -20t-51 -54.5t-17 -77.5v-27q0 -50 14 -84t46.5 -62.5t92.5 -62.5q61 -34 93.5 -65.5t44.5 -66.5t12 -84v-28q0 -56 -20.5 -99t-56.5 -67t-81 -24zM194 -213q-13 0 -27.5 4t-24.5 11l2 9q11 -8 24 -11.5t26 -3.5q30 0 44 14.5t14 40.5v26q0 25 -14 39.5t-44 14.5
q-23 0 -48 -15l-2 9q12 8 24.5 11.5t25.5 3.5q32 0 50 -15.5t18 -47.5v-26q0 -33 -18 -48.5t-50 -15.5zM140 -76l55 76h11l-60 -84z" />
    <glyph glyph-name="scedilla" unicode="&#x15f;" horiz-adv-x="334" 
d="M154 -10q-33 0 -63 8.5t-51 25.5l4 9q23 -17 50.5 -25t59.5 -8q56 0 90.5 29.5t34.5 91.5q0 38 -13 63t-36.5 42t-65.5 36l-33 15q-31 14 -49.5 33t-26.5 44.5t-8 60.5q0 56 34 88.5t89 32.5q28 0 53 -8.5t50 -26.5l-4 -9q-27 19 -50 26.5t-49 7.5q-50 0 -81.5 -29.5
t-31.5 -81.5q0 -34 7.5 -57.5t25.5 -41.5t49 -32l28 -13q44 -21 68.5 -37.5t39 -43t14.5 -69.5q0 -63 -35 -97t-100 -34zM171 -213q-13 0 -27.5 4t-24.5 11l2 9q11 -8 24 -11.5t26 -3.5q30 0 44 14.5t14 40.5v26q0 25 -14 39.5t-44 14.5q-23 0 -48 -15l-2 9q12 8 24.5 11.5
t25.5 3.5q32 0 50 -15.5t18 -47.5v-26q0 -33 -18 -48.5t-50 -15.5zM117 -76l55 76h11l-60 -84z" />
    <glyph glyph-name="Scaron" unicode="&#x160;" horiz-adv-x="398" 
d="M195 -10q-47 0 -83 13.5t-68 41.5l4 10q31 -29 65.5 -41.5t81.5 -12.5q42 0 76 22t53 63t19 94v28q0 49 -13 82.5t-44 62.5t-90 62q-64 36 -97.5 67.5t-46 66.5t-12.5 86v25q0 46 18.5 83t54.5 58t88 21q34 0 67.5 -9.5t65.5 -27.5l-3 -10q-31 18 -63.5 27.5t-66.5 9.5
q-49 0 -83 -20t-51 -54.5t-17 -77.5v-27q0 -50 14 -84t46.5 -62.5t92.5 -62.5q61 -34 93.5 -65.5t44.5 -66.5t12 -84v-28q0 -56 -20.5 -99t-56.5 -67t-81 -24zM96 1018l98 -135l101 135h11l-107 -144h-10l-104 144h11z" />
    <glyph glyph-name="scaron" unicode="&#x161;" horiz-adv-x="334" 
d="M154 -10q-33 0 -63 8.5t-51 25.5l4 9q23 -17 50.5 -25t59.5 -8q56 0 90.5 29.5t34.5 91.5q0 38 -13 63t-36.5 42t-65.5 36l-33 15q-31 14 -49.5 33t-26.5 44.5t-8 60.5q0 56 34 88.5t89 32.5q28 0 53 -8.5t50 -26.5l-4 -9q-27 19 -50 26.5t-49 7.5q-50 0 -81.5 -29.5
t-31.5 -81.5q0 -34 7.5 -57.5t25.5 -41.5t49 -32l28 -13q44 -21 68.5 -37.5t39 -43t14.5 -69.5q0 -63 -35 -97t-100 -34zM70 753l98 -135l101 135h11l-107 -144h-10l-104 144h11z" />
    <glyph glyph-name="uni0162" unicode="&#x162;" horiz-adv-x="404" 
d="M197 801h-187v10h384v-10h-187v-801h-10v801zM196 -213q-13 0 -27.5 4t-24.5 11l2 9q11 -8 24 -11.5t26 -3.5q30 0 44 14.5t14 40.5v26q0 25 -14 39.5t-44 14.5q-23 0 -48 -15l-2 9q12 8 24.5 11.5t25.5 3.5q32 0 50 -15.5t18 -47.5v-26q0 -33 -18 -48.5t-50 -15.5z
M142 -76l55 77l10 -1l-59 -84z" />
    <glyph glyph-name="uni0163" unicode="&#x163;" horiz-adv-x="261" 
d="M220 0q-40 0 -66 10t-40.5 36.5t-14.5 73.5v400h-79v10h79v201h10v-201h117v-10h-117v-400q0 -58 25 -84t83 -26h9v-10h-6zM161 -213q-13 0 -27.5 4t-24.5 11l2 9q11 -8 24 -11.5t26 -3.5q30 0 44 14.5t14 40.5v26q0 25 -14 39.5t-44 14.5q-23 0 -48 -15l-2 9
q12 8 24.5 11.5t25.5 3.5q32 0 50 -15.5t18 -47.5v-26q0 -33 -18 -48.5t-50 -15.5zM107 -76l55 87l10 -1l-59 -94z" />
    <glyph glyph-name="Tcaron" unicode="&#x164;" horiz-adv-x="404" 
d="M197 801h-187v10h384v-10h-187v-801h-10v801zM102 1018l98 -135l101 135h11l-107 -144h-10l-104 144h11z" />
    <glyph glyph-name="tcaron" unicode="&#x165;" horiz-adv-x="261" 
d="M191 811h13l-42 -190h-9zM220 0q-40 0 -66 10t-40.5 36.5t-14.5 73.5v400h-79v10h79v201h10v-201h117v-10h-117v-400q0 -58 25 -84t83 -26h9v-10h-6z" />
    <glyph glyph-name="Tbar" unicode="&#x166;" horiz-adv-x="404" 
d="M197 801h-187v10h384v-10h-187v-801h-10v801zM299 530v-10h-195v10h195z" />
    <glyph glyph-name="tbar" unicode="&#x167;" horiz-adv-x="261" 
d="M220 0q-40 0 -66 10t-40.5 36.5t-14.5 73.5v400h-79v10h79v201h10v-201h117v-10h-117v-400q0 -58 25 -84t83 -26h9v-10h-6zM225 450v-10h-205v10h205z" />
    <glyph glyph-name="Utilde" unicode="&#x168;" horiz-adv-x="438" 
d="M220 -10q-80 0 -117.5 46.5t-37.5 160.5v614h10v-614q0 -74 16 -117t47.5 -61.5t81.5 -18.5q58 0 89 23.5t42.5 66t11.5 107.5v614h10v-614q0 -114 -37 -160.5t-116 -46.5zM102 883q2 32 7.5 49.5t17 25t30.5 7.5q17 0 31 -9.5t33 -27.5q20 -19 32.5 -27.5t27.5 -8.5
q22 0 32.5 17.5t13.5 55.5h9q-2 -31 -8.5 -49t-17.5 -25.5t-29 -7.5q-17 0 -32 10t-33 28q-19 18 -32 26.5t-28 8.5q-24 0 -33 -17t-12 -56h-9z" />
    <glyph glyph-name="utilde" unicode="&#x169;" horiz-adv-x="393" 
d="M194 -10q-36 0 -64 11t-44 33.5t-16 57.5v438h10v-438q0 -32 14.5 -52.5t40 -30t59.5 -9.5q28 0 59 7t60 20v503h10v-508q-31 -16 -65.5 -24t-63.5 -8zM80 618q2 32 7.5 49.5t17 25t30.5 7.5q17 0 31 -9.5t33 -27.5q20 -19 32.5 -27.5t27.5 -8.5q22 0 32.5 17.5
t13.5 55.5h9q-2 -31 -8.5 -49t-17.5 -25.5t-29 -7.5q-17 0 -32 10t-33 28q-19 18 -32 26.5t-28 8.5q-24 0 -33 -17t-12 -56h-9z" />
    <glyph glyph-name="Umacron" unicode="&#x16a;" horiz-adv-x="438" 
d="M220 -10q-80 0 -117.5 46.5t-37.5 160.5v614h10v-614q0 -74 16 -117t47.5 -61.5t81.5 -18.5q58 0 89 23.5t42.5 66t11.5 107.5v614h10v-614q0 -114 -37 -160.5t-116 -46.5zM130 923h177v-10h-177v10z" />
    <glyph glyph-name="umacron" unicode="&#x16b;" horiz-adv-x="393" 
d="M194 -10q-36 0 -64 11t-44 33.5t-16 57.5v438h10v-438q0 -32 14.5 -52.5t40 -30t59.5 -9.5q28 0 59 7t60 20v503h10v-508q-31 -16 -65.5 -24t-63.5 -8zM108 658h177v-10h-177v10z" />
    <glyph glyph-name="Ubreve" unicode="&#x16c;" horiz-adv-x="438" 
d="M220 -10q-80 0 -117.5 46.5t-37.5 160.5v614h10v-614q0 -74 16 -117t47.5 -61.5t81.5 -18.5q58 0 89 23.5t42.5 66t11.5 107.5v614h10v-614q0 -114 -37 -160.5t-116 -46.5zM210 883q-50 0 -71 34t-23 94h10q0 -48 17.5 -83t66.5 -35t66.5 35t17.5 83h10q-2 -60 -23 -94
t-71 -34z" />
    <glyph glyph-name="ubreve" unicode="&#x16d;" horiz-adv-x="393" 
d="M194 -10q-36 0 -64 11t-44 33.5t-16 57.5v438h10v-438q0 -32 14.5 -52.5t40 -30t59.5 -9.5q28 0 59 7t60 20v503h10v-508q-31 -16 -65.5 -24t-63.5 -8zM188 618q-50 0 -71 34t-23 94h10q0 -48 17.5 -83t66.5 -35t66.5 35t17.5 83h10q-2 -60 -23 -94t-71 -34z" />
    <glyph glyph-name="Uring" unicode="&#x16e;" horiz-adv-x="438" 
d="M220 -10q-80 0 -117.5 46.5t-37.5 160.5v614h10v-614q0 -74 16 -117t47.5 -61.5t81.5 -18.5q58 0 89 23.5t42.5 66t11.5 107.5v614h10v-614q0 -114 -37 -160.5t-116 -46.5zM221 883q-22 0 -38 12t-24.5 33.5t-7.5 49.5q0 28 7.5 48t23 31.5t38.5 11.5q21 0 36.5 -12.5
t23.5 -34t9 -48.5q0 -28 -7.5 -48.5t-22.5 -31.5t-38 -11zM220 893q31 0 45 22t13 61q0 38 -14.5 60.5t-42.5 22.5q-32 0 -45.5 -22t-14.5 -61q0 -38 15 -60.5t44 -22.5z" />
    <glyph glyph-name="uring" unicode="&#x16f;" horiz-adv-x="393" 
d="M194 -10q-36 0 -64 11t-44 33.5t-16 57.5v438h10v-438q0 -32 14.5 -52.5t40 -30t59.5 -9.5q28 0 59 7t60 20v503h10v-508q-31 -16 -65.5 -24t-63.5 -8zM199 618q-22 0 -38 12t-24.5 33.5t-7.5 49.5q0 28 7.5 48t23 31.5t38.5 11.5q21 0 36.5 -12.5t23.5 -34t9 -48.5
q0 -28 -7.5 -48.5t-22.5 -31.5t-38 -11zM198 628q31 0 45 22t13 61q0 38 -14.5 60.5t-42.5 22.5q-32 0 -45.5 -22t-14.5 -61q0 -38 15 -60.5t44 -22.5z" />
    <glyph glyph-name="Uhungarumlaut" unicode="&#x170;" horiz-adv-x="438" 
d="M220 -10q-80 0 -117.5 46.5t-37.5 160.5v614h10v-614q0 -74 16 -117t47.5 -61.5t81.5 -18.5q58 0 89 23.5t42.5 66t11.5 107.5v614h10v-614q0 -114 -37 -160.5t-116 -46.5zM231 1027h12l-62 -144h-11zM311 1027h12l-62 -144h-11z" />
    <glyph glyph-name="uhungarumlaut" unicode="&#x171;" horiz-adv-x="393" 
d="M194 -10q-36 0 -64 11t-44 33.5t-16 57.5v438h10v-438q0 -32 14.5 -52.5t40 -30t59.5 -9.5q28 0 59 7t60 20v503h10v-508q-31 -16 -65.5 -24t-63.5 -8zM209 762h12l-62 -144h-11zM289 762h12l-62 -144h-11z" />
    <glyph glyph-name="Uogonek" unicode="&#x172;" horiz-adv-x="438" 
d="M220 -10q-80 0 -117.5 46.5t-37.5 160.5v614h10v-614q0 -74 16 -117t47.5 -61.5t81.5 -18.5q58 0 89 23.5t42.5 66t11.5 107.5v614h10v-614q0 -114 -37 -160.5t-116 -46.5zM243 -189q-35 0 -57 18t-22 52q0 32 31 64t67 56l4 -6q-32 -24 -61.5 -54t-29.5 -61
q0 -29 18 -43.5t47 -14.5q9 0 21 2v-11q-6 -2 -18 -2z" />
    <glyph glyph-name="uogonek" unicode="&#x173;" horiz-adv-x="393" 
d="M194 -10q-36 0 -64 11t-44 33.5t-16 57.5v438h10v-438q0 -32 14.5 -52.5t40 -30t59.5 -9.5q28 0 59 7t60 20v503h10v-508q-31 -16 -65.5 -24t-63.5 -8zM300 -162q-35 0 -57 18t-22 52q0 32 31 64t67 56l4 -6q-32 -24 -61.5 -54t-29.5 -61q0 -29 18 -43.5t47 -14.5
q9 0 21 2v-11q-6 -2 -18 -2z" />
    <glyph glyph-name="Wcircumflex" unicode="&#x174;" horiz-adv-x="585" 
d="M20 811h11l123 -795h-2l134 795h14l133 -795h-2l123 795h11l-128 -811h-12l-133 799h2l-134 -799h-12zM286 1027h10l107 -144h-11l-101 135l-98 -135h-11z" />
    <glyph glyph-name="wcircumflex" unicode="&#x175;" horiz-adv-x="491" 
d="M25 530h11l48 -244q7 -35 13.5 -69.5t13.5 -69.5t13.5 -69.5t13.5 -69.5h-4l53 279l47 243h13l56 -245l65 -280l-5 1l12 70t13 70l12 70l12 70l43 244h11l-94 -530h-14l-65 286q-7 31 -13.5 61t-13.5 60t-14 60.5t-14 60.5h6q-5 -30 -11 -60l-12 -60q-6 -31 -11.5 -61
t-11.5 -60l-55 -287h-14zM235 762h10l107 -144h-11l-101 135l-98 -135h-11z" />
    <glyph glyph-name="Ycircumflex" unicode="&#x176;" horiz-adv-x="408" 
d="M199 340l-179 471h11l175 -462h-4l175 462h11l-179 -471v-340h-10v340zM198 1027h10l107 -144h-11l-101 135l-98 -135h-11z" />
    <glyph glyph-name="ycircumflex" unicode="&#x177;" horiz-adv-x="384" 
d="M182 -227q-28 0 -57 8.5t-50 25.5l4 9q23 -17 49.5 -25t53.5 -8q43 0 70 16.5t39 46.5t12 73v611h10v-611q0 -51 -16 -83.5t-45 -47.5t-70 -15zM184 -10q-36 0 -64 11t-44 33.5t-16 57.5v438h10v-438q0 -32 14.5 -52.5t40 -30t59.5 -9.5q28 0 59 7t60 20l11 -5
q-31 -16 -66 -24t-64 -8zM180 762h10l107 -144h-11l-101 135l-98 -135h-11z" />
    <glyph glyph-name="Ydieresis" unicode="&#x178;" horiz-adv-x="408" 
d="M199 340l-179 471h11l175 -462h-4l175 462h11l-179 -471v-340h-10v340zM163 883v75.5v74.5h5h5v-74.5v-75.5h-5h-5zM234 883v75.5v74.5h5h5v-74.5v-75.5h-5h-5z" />
    <glyph glyph-name="Zacute" unicode="&#x179;" horiz-adv-x="392" 
d="M25 10l331 794l2 -3h-333v10h342v-8l-331 -794l-2 1h325v-10h-334v10zM259 1027h12l-62 -144h-11z" />
    <glyph glyph-name="zacute" unicode="&#x17a;" horiz-adv-x="318" 
d="M24 10l249 512l2 -2h-231v10h240v-10l-250 -514l-2 4h256v-10h-264v10zM212 762h12l-62 -144h-11z" />
    <glyph glyph-name="Zdotaccent" unicode="&#x17b;" horiz-adv-x="392" 
d="M25 10l331 794l2 -3h-333v10h342v-8l-331 -794l-2 1h325v-10h-334v10zM211 883v75.5v74.5h5h5v-74.5v-75.5h-5h-5z" />
    <glyph glyph-name="zdotaccent" unicode="&#x17c;" horiz-adv-x="318" 
d="M24 10l249 512l2 -2h-231v10h240v-10l-250 -514l-2 4h256v-10h-264v10zM164 618v75.5v74.5h5h5v-74.5v-75.5h-5h-5z" />
    <glyph glyph-name="Zcaron" unicode="&#x17d;" horiz-adv-x="392" 
d="M25 10l331 794l2 -3h-333v10h342v-8l-331 -794l-2 1h325v-10h-334v10zM116 1018l98 -135l101 135h11l-107 -144h-10l-104 144h11z" />
    <glyph glyph-name="zcaron" unicode="&#x17e;" horiz-adv-x="318" 
d="M24 10l249 512l2 -2h-231v10h240v-10l-250 -514l-2 4h256v-10h-264v10zM69 753l98 -135l101 135h11l-107 -144h-10l-104 144h11z" />
    <glyph glyph-name="uni018F" unicode="&#x18f;" horiz-adv-x="389" 
d="M195 -10q-51 0 -83.5 18t-49.5 63t-17 126v232h10v-232q0 -66 10.5 -108t41 -65.5t88.5 -23.5q57 0 87.5 23.5t41 65.5t10.5 108v419q0 69 -18 112.5t-51 63.5t-79 20q-30 0 -59.5 -9.5t-60.5 -27.5l-3 10q33 20 64 28.5t59 8.5q55 0 90.5 -25t51.5 -71t16 -110v-419
q0 -81 -17 -126t-49 -63t-83 -18zM45 429h295v-10h-295v10z" />
    <glyph glyph-name="florin" unicode="&#x192;" horiz-adv-x="366" 
d="M45 -216h18q57 0 86 46.5t29 136.5v674q0 59 15 99.5t44 61t71 20.5h13v-10h-18q-56 0 -85 -46.5t-29 -136.5v-679q0 -58 -15 -97t-44 -59t-72 -20h-13v10zM45 430h276v-11h-276v11z" />
    <glyph glyph-name="uni01CD" unicode="&#x1cd;" horiz-adv-x="449" 
d="M218 811h10l201 -811h-11l-76 306l5 -4h-247l5 4l-74 -306h-11zM102 312h243l-3 -4l-119 483l-118 -483zM124 1018l98 -135l101 135h11l-107 -144h-10l-104 144h11z" />
    <glyph glyph-name="uni01CE" unicode="&#x1ce;" horiz-adv-x="346" 
d="M178 -10q-45 0 -78.5 18t-51.5 54.5t-18 90.5v5q0 79 40.5 119t111.5 40q22 0 49 -5t53 -15l-3 -3v98q0 43 -12 73t-39 46.5t-70 16.5q-28 0 -58 -8t-57 -25l2 13q26 15 55.5 22.5t57.5 7.5q41 0 70 -15t45 -47.5t16 -83.5v-379q-26 -10 -57 -16.5t-56 -6.5zM178 0
q24 0 53 5.5t53 15.5l-3 -5v271q-25 10 -51.5 15t-47.5 5q-47 0 -79 -18.5t-47.5 -52t-15.5 -78.5v-5q0 -71 34.5 -112t103.5 -41zM71 753l98 -135l101 135h11l-107 -144h-10l-104 144h11z" />
    <glyph glyph-name="uni01CF" unicode="&#x1cf;" horiz-adv-x="140" 
d="M65 811h10v-811h-10v811zM-30 1018l98 -135l101 135h11l-107 -144h-10l-104 144h11z" />
    <glyph glyph-name="uni01D0" unicode="&#x1d0;" horiz-adv-x="150" 
d="M70 530h10v-530h-10v530zM-26 753l98 -135l101 135h11l-107 -144h-10l-104 144h11z" />
    <glyph glyph-name="uni01D1" unicode="&#x1d1;" horiz-adv-x="409" 
d="M205 -10q-52 0 -86.5 18t-54 63.5t-19.5 125.5v418q0 80 19.5 125.5t54 63.5t86.5 18q51 0 85.5 -18t54 -63.5t19.5 -125.5v-418q0 -80 -19.5 -125.5t-54 -63.5t-85.5 -18zM205 0q57 0 90 24t46 67t13 106v418q0 65 -13 107.5t-45.5 66t-90.5 23.5t-91 -24t-46 -67
t-13 -106v-418q0 -64 13 -107t46 -66.5t91 -23.5zM104 1018l98 -135l101 135h11l-107 -144h-10l-104 144h11z" />
    <glyph glyph-name="uni01D2" unicode="&#x1d2;" horiz-adv-x="360" 
d="M180 -10q-41 0 -70 15t-44.5 47.5t-15.5 84.5v257q0 52 15.5 84.5t44.5 47.5t70 15t70 -15t44.5 -47.5t15.5 -84.5v-257q0 -52 -15.5 -84.5t-44.5 -47.5t-70 -15zM180 0q42 0 68.5 16.5t39 46.5t12.5 74v257q0 44 -12.5 74t-39 46.5t-68.5 16.5t-69 -16.5t-39 -47
t-12 -73.5v-257q0 -43 12 -73.5t39 -47t69 -16.5zM80 753l98 -135l101 135h11l-107 -144h-10l-104 144h11z" />
    <glyph glyph-name="uni01D3" unicode="&#x1d3;" horiz-adv-x="438" 
d="M220 -10q-80 0 -117.5 46.5t-37.5 160.5v614h10v-614q0 -74 16 -117t47.5 -61.5t81.5 -18.5q58 0 89 23.5t42.5 66t11.5 107.5v614h10v-614q0 -114 -37 -160.5t-116 -46.5zM119 1018l98 -135l101 135h11l-107 -144h-10l-104 144h11z" />
    <glyph glyph-name="uni01D4" unicode="&#x1d4;" horiz-adv-x="393" 
d="M194 -10q-36 0 -64 11t-44 33.5t-16 57.5v438h10v-438q0 -32 14.5 -52.5t40 -30t59.5 -9.5q28 0 59 7t60 20v503h10v-508q-31 -16 -65.5 -24t-63.5 -8zM97 753l98 -135l101 135h11l-107 -144h-10l-104 144h11z" />
    <glyph glyph-name="uni0218" unicode="&#x218;" horiz-adv-x="398" 
d="M195 -10q-47 0 -83 13.5t-68 41.5l4 10q31 -29 65.5 -41.5t81.5 -12.5q42 0 76 22t53 63t19 94v28q0 49 -13 82.5t-44 62.5t-90 62q-64 36 -97.5 67.5t-46 66.5t-12.5 86v25q0 46 18.5 83t54.5 58t88 21q34 0 67.5 -9.5t65.5 -27.5l-3 -10q-31 18 -63.5 27.5t-66.5 9.5
q-49 0 -83 -20t-51 -54.5t-17 -77.5v-27q0 -50 14 -84t46.5 -62.5t92.5 -62.5q61 -34 93.5 -65.5t44.5 -66.5t12 -84v-28q0 -56 -20.5 -99t-56.5 -67t-81 -24zM148 -157l132 80v-12l-132 -77v9z" />
    <glyph glyph-name="uni0219" unicode="&#x219;" horiz-adv-x="334" 
d="M154 -10q-33 0 -63 8.5t-51 25.5l4 9q23 -17 50.5 -25t59.5 -8q56 0 90.5 29.5t34.5 91.5q0 38 -13 63t-36.5 42t-65.5 36l-33 15q-31 14 -49.5 33t-26.5 44.5t-8 60.5q0 56 34 88.5t89 32.5q28 0 53 -8.5t50 -26.5l-4 -9q-27 19 -50 26.5t-49 7.5q-50 0 -81.5 -29.5
t-31.5 -81.5q0 -34 7.5 -57.5t25.5 -41.5t49 -32l28 -13q44 -21 68.5 -37.5t39 -43t14.5 -69.5q0 -63 -35 -97t-100 -34zM125 -157l132 80v-12l-132 -77v9z" />
    <glyph glyph-name="uni021A" unicode="&#x21a;" horiz-adv-x="404" 
d="M197 801h-187v10h384v-10h-187v-801h-10v801zM150 -157l132 80v-12l-132 -77v9z" />
    <glyph glyph-name="uni021B" unicode="&#x21b;" horiz-adv-x="261" 
d="M220 0q-40 0 -66 10t-40.5 36.5t-14.5 73.5v400h-79v10h79v201h10v-201h117v-10h-117v-400q0 -58 25 -84t83 -26h9v-10h-6zM94 -157l132 80v-12l-132 -77v9z" />
    <glyph glyph-name="uni0232" unicode="&#x232;" horiz-adv-x="408" 
d="M199 340l-179 471h11l175 -462h-4l175 462h11l-179 -471v-340h-10v340zM115 923h177v-10h-177v10z" />
    <glyph glyph-name="uni0233" unicode="&#x233;" horiz-adv-x="384" 
d="M182 -227q-28 0 -57 8.5t-50 25.5l4 9q23 -17 49.5 -25t53.5 -8q43 0 70 16.5t39 46.5t12 73v611h10v-611q0 -51 -16 -83.5t-45 -47.5t-70 -15zM184 -10q-36 0 -64 11t-44 33.5t-16 57.5v438h10v-438q0 -32 14.5 -52.5t40 -30t59.5 -9.5q28 0 59 7t60 20l11 -5
q-31 -16 -66 -24t-64 -8zM97 658h177v-10h-177v10z" />
    <glyph glyph-name="uni0237" unicode="&#x237;" horiz-adv-x="143" 
d="M-47 -226q-6 0 -13 0.5t-14 1.5l-1 10q6 -1 13.5 -1.5t14.5 -0.5q42 0 66.5 16.5t34 46t9.5 73.5v610h10v-610q0 -56 -14.5 -88.5t-40.5 -45t-65 -12.5z" />
    <glyph glyph-name="uni0259" unicode="&#x259;" horiz-adv-x="361" 
d="M167 540q56 0 88 -20t44 -56t12 -90v-238q0 -52 -16 -85t-44.5 -47.5t-69.5 -14.5t-69.5 14.5t-44.5 47.5t-16 85v119h252v-10h-246l4 4v-113q0 -40 10.5 -70.5t37 -48.5t72.5 -18t72.5 18t37 48.5t10.5 70.5v238q0 61 -15.5 95t-44.5 47.5t-74 13.5q-32 0 -61 -10.5
t-52 -32.5l-4 9q21 22 52.5 33t64.5 11z" />
    <glyph glyph-name="circumflex" unicode="&#x2c6;" horiz-adv-x="261" 
d="M124 782h10l107 -144h-11l-101 135l-98 -135h-11z" />
    <glyph glyph-name="caron" unicode="&#x2c7;" horiz-adv-x="261" 
d="M31 773l98 -135l101 135h11l-107 -144h-10l-104 144h11z" />
    <glyph glyph-name="breve" unicode="&#x2d8;" horiz-adv-x="228" 
d="M114 638q-50 0 -71 34t-23 94h10q0 -48 17.5 -83t66.5 -35t66.5 35t17.5 83h10q-2 -60 -23 -94t-71 -34z" />
    <glyph glyph-name="dotaccent" unicode="&#x2d9;" horiz-adv-x="50" 
d="M20 638v75.5v74.5h5h5v-74.5v-75.5h-5h-5z" />
    <glyph glyph-name="ring" unicode="&#x2da;" horiz-adv-x="209" 
d="M105 627q-31 0 -53 26.5t-22 66.5t22 66.5t53 26.5q30 0 52 -26.5t22 -66.5t-22 -66.5t-52 -26.5zM105 637q26 0 44.5 22.5t18.5 60.5t-18.5 60.5t-44.5 22.5t-45 -23t-19 -60t19 -60t45 -23z" />
    <glyph glyph-name="ogonek" unicode="&#x2db;" horiz-adv-x="152" 
d="M109 -182q-35 0 -57 18t-22 52q0 32 31 64t67 56l4 -6q-32 -24 -61.5 -54t-29.5 -61q0 -29 18 -43.5t47 -14.5q9 0 21 2v-11q-6 -2 -18 -2z" />
    <glyph glyph-name="tilde" unicode="&#x2dc;" horiz-adv-x="305" 
d="M30 630q7 40 22 61t41 21q18 0 31.5 -9t34.5 -29q18 -18 29 -26t26 -8q20 0 31.5 17t18.5 51q0 1 0.5 2t0.5 2h10q-7 -40 -21.5 -61t-39.5 -21q-17 0 -30.5 9t-33.5 28q-16 17 -29 26t-28 9q-21 0 -33 -16.5t-19 -51.5q0 -1 -0.5 -2t-0.5 -2h-10z" />
    <glyph glyph-name="hungarumlaut" unicode="&#x2dd;" horiz-adv-x="338" 
d="M129 774h12l-102 -144h-11zM218 774h12l-102 -144h-11z" />
    <glyph glyph-name="gravecomb" unicode="&#x300;" 
d="M-171 774h14l127 -144h-12z" />
    <glyph glyph-name="acutecomb" unicode="&#x301;" 
d="M-43 774h13l-110 -144h-12z" />
    <glyph glyph-name="uni0302" unicode="&#x302;" 
d="M-137 782h10l107 -144h-11l-101 135l-98 -135h-11z" />
    <glyph glyph-name="tildecomb" unicode="&#x303;" 
d="M-275 630q7 40 22 61t41 21q18 0 31.5 -9t34.5 -29q18 -18 29 -26t26 -8q20 0 31.5 17t18.5 51q0 1 0.5 2t0.5 2h10q-7 -40 -21.5 -61t-39.5 -21q-17 0 -30.5 9t-33.5 28q-16 17 -29 26t-28 9q-21 0 -33 -16.5t-19 -51.5q0 -1 -0.5 -2t-0.5 -2h-10z" />
    <glyph glyph-name="uni0304" unicode="&#x304;" 
d="M-235 673h205v-10h-205v10z" />
    <glyph glyph-name="uni0306" unicode="&#x306;" 
d="M-114 638q-50 0 -71 34t-23 94h10q0 -48 17.5 -83t66.5 -35t66.5 35t17.5 83h10q-2 -60 -23 -94t-71 -34z" />
    <glyph glyph-name="uni0307" unicode="&#x307;" 
d="M-30 638v75.5v74.5h5h5v-74.5v-75.5h-5h-5z" />
    <glyph glyph-name="uni0308" unicode="&#x308;" 
d="M-101 638v75.5v74.5h5h5v-74.5v-75.5h-5h-5zM-30 638v75.5v74.5h5h5v-74.5v-75.5h-5h-5z" />
    <glyph glyph-name="uni030A" unicode="&#x30a;" 
d="M-104 627q-31 0 -53 26.5t-22 66.5t22 66.5t53 26.5q30 0 52 -26.5t22 -66.5t-22 -66.5t-52 -26.5zM-104 637q26 0 44.5 22.5t18.5 60.5t-18.5 60.5t-44.5 22.5t-45 -23t-19 -60t19 -60t45 -23z" />
    <glyph glyph-name="uni030B" unicode="&#x30b;" 
d="M-209 774h12l-102 -144h-11zM-120 774h12l-102 -144h-11z" />
    <glyph glyph-name="uni030C" unicode="&#x30c;" 
d="M-230 173l98 -135l101 135h11l-107 -144h-10l-104 144h11z" />
    <glyph glyph-name="uni0312" unicode="&#x312;" 
d="M-71 273l1 -274h-12l1 274h10z" />
    <glyph glyph-name="uni0326" unicode="&#x326;" 
d="M-42 -38h12l-60 -182h-9z" />
    <glyph glyph-name="uni0327" unicode="&#x327;" 
d="M-88 -213q-13 0 -27.5 4t-24.5 11l2 9q11 -8 24 -11.5t26 -3.5q30 0 44 14.5t14 40.5v26q0 25 -14 39.5t-44 14.5q-23 0 -48 -15l-2 9q12 8 24.5 11.5t25.5 3.5q32 0 50 -15.5t18 -47.5v-26q0 -33 -18 -48.5t-50 -15.5zM-142 -76l55 76h11l-60 -84z" />
    <glyph glyph-name="uni0328" unicode="&#x328;" 
d="M-42 -215q-37 0 -58 28.5t-22 70.5q-1 38 21.5 63.5t64.5 55.5q2 2 5 3.5t5 3.5l6 -8q-3 -2 -6 -4.5t-6 -4.5q-37 -26 -58.5 -50.5t-21.5 -58.5q0 -37 18 -63t50 -26q10 0 24 2v-10q-6 -2 -22 -2z" />
    <glyph glyph-name="uni0335" unicode="&#x335;" 
d="M11 428v-10h-215v10h215z" />
    <glyph glyph-name="uni0336" unicode="&#x336;" 
d="M-395 429h380v-10h-380v10z" />
    <glyph glyph-name="uni0337" unicode="&#x337;" 
d="M-224 395l149 72l5 -9l-150 -72z" />
    <glyph glyph-name="uni0338" unicode="&#x338;" 
d="M-11 848h11l-209 -888h-11z" />
    <glyph glyph-name="uni0394" unicode="&#x394;" horiz-adv-x="462" 
d="M230 783h2l210 -783h-422zM428 11l-198 744h2l-198 -744h394z" />
    <glyph glyph-name="uni03A9" unicode="&#x3a9;" horiz-adv-x="459" 
d="M158 161q-31 11 -53 35t-33.5 64t-11.5 97v258q0 65 16 111t53.5 71t100.5 25q58 0 95 -22.5t55.5 -68t18.5 -116.5v-258q0 -59 -12.5 -99.5t-35.5 -64.5t-56 -34v11q34 12 55 38t30 63t9 86v258q0 62 -15 105.5t-50.5 67.5t-93.5 24q-55 0 -90 -21t-52.5 -64.5
t-17.5 -111.5v-258q0 -53 10.5 -90.5t30 -60.5t47.5 -34v-11zM61 11h86v161h11v-172h-97v11zM295 170h11v-159h88v-11h-99v170z" />
    <glyph glyph-name="uni03BC" unicode="&#x3bc;" horiz-adv-x="478" 
d="M70 530h10v-750h-10v750zM336 530v-430q0 -33 -12.5 -57.5t-42 -38.5t-78.5 -14t-78.5 14t-42 38.5t-12.5 57.5v430h11v-425q0 -38 15.5 -61t42.5 -33t64 -10t64 10t42.5 33t15.5 61v425h11zM458 -10q-49 0 -78.5 14t-42 38.5t-12.5 57.5v430h11v-425q0 -38 15.5 -61
t42.5 -33t64 -10v-11z" />
    <glyph glyph-name="pi" unicode="&#x3c0;" horiz-adv-x="503" 
d="M133 519h-79v11h385v-11h-82v-384q0 -55 4.5 -79t22.5 -35t58 -11h6v-10h-2q-45 0 -65.5 11t-27.5 38t-7 83v387h-202v-519h-11v519z" />
    <glyph glyph-name="uni0609" unicode="&#x609;" horiz-adv-x="411" 
d="M261 660h9l-233 -660h-12zM78 493v75.5v74.5h5h5v-74.5v-75.5h-5h-5zM226 109v75.5v74.5h5.5h5.5v-74.5v-75.5h-5.5h-5.5zM330 109v75.5v74.5h5.5h5.5v-74.5v-75.5h-5.5h-5.5z" />
    <glyph glyph-name="uni060C" unicode="&#x60c;" horiz-adv-x="189" 
d="M65 0h-12l88 240h11z" />
    <glyph glyph-name="uni0615" unicode="&#x615;" 
d="M10 811h10v-57h39q20 0 30.5 -12t10.5 -35v-68h-90v172zM90 649v58q0 18 -8 27.5t-23 9.5h-39v-95h70z" />
    <glyph glyph-name="uni061B" unicode="&#x61b;" horiz-adv-x="206" 
d="M70 0v75.5v74.5h5h5v-74.5v-75.5h-5h-5zM82 301h-12l88 240h11z" />
    <glyph glyph-name="uni061E" unicode="&#x61e;" horiz-adv-x="370" 
d="M70 0v75.5v74.5h5h5v-74.5v-75.5h-5h-5zM180 254v75.5v74.5h5h5v-74.5v-75.5h-5h-5zM290 0v75.5v74.5h5h5v-74.5v-75.5h-5h-5z" />
    <glyph glyph-name="uni061F" unicode="&#x61f;" horiz-adv-x="350" 
d="M188 250v168q-39 44 -64 77.5t-42 78.5t-17 99v6q0 44 14.5 75t43.5 48t72 17q30 0 58.5 -9.5t52.5 -27.5l-3 -10q-24 19 -51.5 28t-56.5 9q-60 0 -90 -33.5t-30 -96.5v-6q0 -54 17 -98t42 -77.5t65 -75.5v-1v-171h-11zM198 0h-5.5h-5.5v75.5v74.5h5.5h5.5v-74.5v-75.5z
" />
    <glyph glyph-name="uni0621" unicode="&#x621;" horiz-adv-x="318" 
d="M65 263q0 47 26.5 73t73.5 26h14v-10h-12q-43 0 -67.5 -25t-24.5 -69v-248h198v-10h-208v263z" />
    <glyph glyph-name="uni0622" unicode="&#x622;" horiz-adv-x="170" 
d="M80 811h10v-811h-10v811zM32 881h105v-10h-105v10z" />
    <glyph glyph-name="uni0623" unicode="&#x623;" horiz-adv-x="170" 
d="M80 691h10v-691h-10v691zM43 866q0 38 14 56.5t43 18.5h10v-10h-10q-24 0 -35 -15.5t-11 -49.5v-65h74v-10h-85v75z" />
    <glyph glyph-name="uni0624" unicode="&#x624;" horiz-adv-x="371" 
d="M216 0q-53 0 -89 18t-54 54t-18 89v202q0 63 15.5 99t50 52t95.5 16h85v-520v-10h-85zM216 10h75v510h-75q-56 0 -89 -15t-47.5 -49t-14.5 -93v-202q0 -49 17 -83t51 -51t83 -17zM175 -220q-20 0 -44.5 4.5t-45.5 11.5l3 10q24 -8 46 -11.5t41 -3.5q48 0 72.5 13t34 42.5
t9.5 84.5v589l8 10h2v-610q0 -52 -11.5 -82.5t-38.5 -44t-76 -13.5zM141 715q0 47 19.5 66t67.5 19h5v-10h-5q-43 0 -59.5 -16t-16.5 -59v-95h103v-10h-114v105z" />
    <glyph glyph-name="uni0625" unicode="&#x625;" horiz-adv-x="170" 
d="M80 811h10v-811h-10v811zM43 -155q0 38 14 56.5t43 18.5h10v-10h-10q-24 0 -35 -15.5t-11 -49.5v-65h74v-10h-85v75z" />
    <glyph glyph-name="uni0626" unicode="&#x626;" horiz-adv-x="657" 
d="M165 -125q-47 0 -73.5 26t-26.5 73v373h10v-368q0 -44 24.5 -69t67.5 -25h174v474q0 88 36.5 129.5t115.5 41.5h94v-530h-10v520h-83q-73 0 -108 -39.5t-35 -122.5v-483h-186zM436 715q0 47 19.5 66t67.5 19h5v-10h-5q-43 0 -59.5 -16t-16.5 -59v-95h103v-10h-114v105z
" />
    <glyph glyph-name="uni0627" unicode="&#x627;" horiz-adv-x="170" 
d="M80 811h10v-811h-10v811z" />
    <glyph glyph-name="uni0628" unicode="&#x628;" horiz-adv-x="430" 
d="M165 0q-47 0 -73.5 26t-26.5 73v332h10v-327q0 -44 24.5 -69t67.5 -25h183v520h10v-530h-195zM221 -293v74.5v75.5h5.5h5.5v-75.5v-74.5h-5.5h-5.5z" />
    <glyph glyph-name="uni0629" unicode="&#x629;" horiz-adv-x="381" 
d="M301 581h10v-581h-10v581zM226 0q-53 0 -89 18t-54 54t-18 89v202q0 63 15.5 99t50 52t95.5 16h85v-520v-10h-85zM226 10h75v510h-75q-56 0 -89 -15t-47.5 -49t-14.5 -93v-202q0 -49 17 -83t51 -51t83 -17zM170 639v75.5v74.5h5.5h5.5v-74.5v-75.5h-5.5h-5.5zM280 639
v75.5v74.5h5.5h5.5v-74.5v-75.5h-5.5h-5.5z" />
    <glyph glyph-name="uni062A" unicode="&#x62a;" horiz-adv-x="430" 
d="M165 0q-47 0 -73.5 26t-26.5 73v332h10v-327q0 -44 24.5 -69t67.5 -25h183v520h10v-530h-195zM160 571v75.5v74.5h5.5h5.5v-74.5v-75.5h-5.5h-5.5zM270 571v75.5v74.5h5.5h5.5v-74.5v-75.5h-5.5h-5.5z" />
    <glyph glyph-name="uni062B" unicode="&#x62b;" horiz-adv-x="430" 
d="M165 0q-47 0 -73.5 26t-26.5 73v332h10v-327q0 -44 24.5 -69t67.5 -25h183v520h10v-530h-195zM214 721v55v55h5.5h5.5v-55v-55h-5.5h-5.5zM159 571v75.5v74.5h5.5h5.5v-74.5v-75.5h-5.5h-5.5zM269 571v75.5v74.5h5.5h5.5v-74.5v-75.5h-5.5h-5.5z" />
    </font>
</defs>
</svg>
