<svg xmlns="http://www.w3.org/2000/svg" xmlns:xlink="http://www.w3.org/1999/xlink" width="214" height="214" viewBox="0 0 214 214">
  <defs>
    <filter id="Ellipse_130" x="0" y="0" width="214" height="214" filterUnits="userSpaceOnUse">
      <feOffset dy="4" input="SourceAlpha"/>
      <feGaussianBlur stdDeviation="23" result="blur"/>
      <feFlood flood-opacity="0.129"/>
      <feComposite operator="in" in2="blur"/>
      <feComposite in="SourceGraphic"/>
    </filter>
  </defs>
  <g id="Group_2854" data-name="Group 2854" transform="translate(68.435 64.894)">
    <g transform="matrix(1, 0, 0, 1, -68.44, -64.89)" filter="url(#Ellipse_130)">
      <circle id="Ellipse_130-2" data-name="Ellipse 130" cx="38" cy="38" r="38" transform="translate(69 65)" fill="#fff"/>
    </g>
    <circle id="Ellipse_131" data-name="Ellipse 131" cx="30.5" cy="30.5" r="30.5" transform="translate(7.565 8.106)" fill="#ececec" opacity="0.41"/>
    <g id="Path_11725" data-name="Path 11725" transform="translate(0 43.747) rotate(-56)" fill="none" opacity="0.21">
      <path d="M21.254.384c14.07,2.6,27.556,17.657,30.122,33.641S44.617,60.861,30.547,58.265,2.991,40.608.425,24.624,7.184-2.212,21.254.384Z" stroke="none"/>
      <path d="M 17.19907760620117 0.9999961853027344 C 14.75837707519531 0.9999961853027344 12.48810958862305 1.463237762451172 10.45134735107422 2.376846313476562 C 8.471309661865234 3.265007019042969 6.744728088378906 4.563224792480469 5.319568634033203 6.235446929931641 C 3.528038024902344 8.337566375732422 2.271709442138672 10.94510650634766 1.585487365722656 13.98563766479492 C 0.8658790588378906 17.17410659790039 0.8075599670410156 20.70012664794922 1.412139892578125 24.46574401855469 C 2.023349761962891 28.2725658416748 3.274337768554688 32.09012603759766 5.130348205566406 35.81238555908203 C 6.926887512207031 39.41537475585938 9.210247039794922 42.77498626708984 11.91699981689453 45.79791641235352 C 14.61929702758789 48.81587600708008 17.60487747192383 51.3433837890625 20.79079818725586 53.31024551391602 C 24.0679874420166 55.33344650268555 27.41142845153809 56.6695671081543 30.72826766967773 57.281494140625 C 32.04818725585938 57.52500534057617 33.351318359375 57.64847564697266 34.60147857666016 57.64847564697266 C 37.04217910766602 57.64847564697266 39.31244659423828 57.18523406982422 41.34920883178711 56.27162551879883 C 43.32924652099609 55.38346481323242 45.05582809448242 54.08523559570312 46.48097991943359 52.41301727294922 C 48.27251815795898 50.31090545654297 49.52883911132812 47.70336532592773 50.21506881713867 44.66283416748047 C 50.93467712402344 41.474365234375 50.99299621582031 37.94834518432617 50.3884162902832 34.18272399902344 C 49.77720642089844 30.37590599060059 48.52621841430664 26.55834579467773 46.67020797729492 22.83607482910156 C 44.8736686706543 19.23309707641602 42.59030914306641 15.87347412109375 39.88356018066406 12.85055541992188 C 37.18125915527344 9.832595825195312 34.1956787109375 7.305084228515625 31.00975799560547 5.338226318359375 C 27.73256874084473 3.315025329589844 24.38912773132324 1.978904724121094 21.07228851318359 1.366977691650391 C 19.75236892700195 1.123466491699219 18.44923782348633 0.9999961853027344 17.19907760620117 0.9999961853027344 M 17.19907760620117 -7.62939453125e-06 C 18.49934387207031 -7.62939453125e-06 19.85224151611328 0.1250190734863281 21.25371742248535 0.383575439453125 C 35.32344055175781 2.979297637939453 48.80953979492188 18.04072570800781 51.37576675415039 34.02420806884766 C 53.94198989868164 50.00768661499023 44.61654281616211 60.86061477661133 30.54683876037598 58.26489639282227 C 16.47711944580078 55.66916656494141 2.991016387939453 40.60774612426758 0.4247894287109375 24.624267578125 C -1.885810852050781 10.23287963867188 5.445690155029297 -7.62939453125e-06 17.19907760620117 -7.62939453125e-06 Z" stroke="none" fill="#64a1d6"/>
    </g>
    <g id="Path_11726" data-name="Path 11726" transform="translate(4.74 57.304) rotate(-56)" fill="none" opacity="0.38">
      <path d="M37.786,1.213c18.807-3.511,32.466.862,30.508,9.769S49.5,29.954,30.695,33.466-1.771,32.6.187,23.7,18.979,4.724,37.786,1.213Z" stroke="none"/>
      <path d="M 50.02522659301758 1 C 46.27555847167969 1 42.21956634521484 1.402290344238281 37.96994781494141 2.1956787109375 C 28.98732757568359 3.872730255126953 20.18391799926758 7.102460861206055 13.181396484375 11.28992080688477 C 9.805667877197266 13.30858039855957 7.041835784912109 15.43511009216309 4.966655731201172 17.61043930053711 C 2.881874084472656 19.79584121704102 1.602310180664062 21.91588973999023 1.163490295410156 23.91170120239258 C 0.754486083984375 25.77190017700195 1.120208740234375 27.42790031433105 2.25048828125 28.83369064331055 C 4.725906372070312 31.91249084472656 10.63264846801758 33.67827987670898 18.4561882019043 33.67827987670898 C 22.20585632324219 33.67827987670898 26.26183700561523 33.2759895324707 30.51146697998047 32.48260116577148 C 39.49407958984375 30.80554962158203 48.2974853515625 27.57582092285156 55.30001831054688 23.38835906982422 C 58.67573547363281 21.36970901489258 61.43957901000977 19.2431697845459 63.51474761962891 17.06784057617188 C 65.59954071044922 14.8824405670166 66.87910461425781 12.76239013671875 67.31792449951172 10.76658058166504 C 67.7269287109375 8.906379699707031 67.3612060546875 7.250389099121094 66.23092651367188 5.844589233398438 C 63.75550842285156 2.765789031982422 57.84875869750977 1 50.02522659301758 1 M 50.02522277832031 0 C 62.13834762573242 0 69.79399108886719 4.161806106567383 68.29459381103516 10.98131942749023 C 66.33634948730469 19.88772010803223 49.50243759155273 29.95428085327148 30.69499588012695 33.46561050415039 C 11.88755416870117 36.9769401550293 -1.77142333984375 32.60337066650391 0.1868209838867188 23.69696044921875 C 2.145057678222656 14.79055976867676 18.97897720336914 4.7239990234375 37.78641510009766 1.212669372558594 C 42.19326019287109 0.3899154663085938 46.31838989257812 0 50.02522277832031 0 Z" stroke="none" fill="#64a1d6"/>
    </g>
    <g id="Path_11727" data-name="Path 11727" transform="translate(57.544 71.375) rotate(-146)" fill="none" opacity="0.14">
      <path d="M37.99,1.21c18.923-3.515,32.678.889,30.723,9.836S49.831,30.1,30.908,33.612-1.77,32.723.185,23.776,19.067,4.725,37.99,1.21Z" stroke="none"/>
      <path d="M 50.26969528198242 1 C 46.50505447387695 1 42.43499755859375 1.401470184326172 38.17256546020508 2.193260192871094 C 29.13394546508789 3.872270584106445 20.27840423583984 7.111589431762695 13.23721313476562 11.31448936462402 C 9.84283447265625 13.34059906005859 7.064544677734375 15.47553062438965 4.979503631591797 17.65996932983398 C 2.884773254394531 19.85454940795898 1.600425720214844 21.98405838012695 1.162147521972656 23.98933982849121 C 0.7538681030273438 25.85730934143066 1.123893737792969 27.52124977111816 2.261962890625 28.93492889404297 C 3.460594177246094 30.4238395690918 5.537616729736328 31.65407943725586 8.268474578857422 32.49264144897461 C 11.14106369018555 33.37472915649414 14.62656402587891 33.82197952270508 18.62814331054688 33.82197952270508 C 22.39275360107422 33.82197952270508 26.46282577514648 33.42050933837891 30.72529602050781 32.62870788574219 C 39.7639045715332 30.94969940185547 48.61945343017578 27.71039009094238 55.66063690185547 23.50749015808105 C 59.05501556396484 21.48138046264648 61.83330535888672 19.34645080566406 63.9183464050293 17.16201019287109 C 66.01307678222656 14.96743011474609 67.29742431640625 12.83791923522949 67.73570251464844 10.83263969421387 C 68.14398193359375 8.964670181274414 67.77395629882812 7.300739288330078 66.63588714599609 5.887060165405273 C 65.437255859375 4.398139953613281 63.36023712158203 3.167900085449219 60.62937545776367 2.329338073730469 C 57.75677490234375 1.447250366210938 54.27127456665039 1 50.26969528198242 1 M 50.26969146728516 -3.814697265625e-06 C 62.48325347900391 -3.814697265625e-06 70.21160125732422 4.188087463378906 68.712646484375 11.04616928100586 C 66.75701141357422 19.99367904663086 49.83126449584961 30.09669876098633 30.90793609619141 33.61188888549805 C 26.48894882202148 34.43276214599609 22.34920501708984 34.82197570800781 18.62814331054688 34.82197570800781 C 6.414577484130859 34.82197570800781 -1.313751220703125 30.63389205932617 0.1852035522460938 23.77581024169922 C 2.140838623046875 14.82830047607422 19.06658554077148 4.725278854370117 37.98992538452148 1.210079193115234 C 42.40890884399414 0.3892097473144531 46.54862976074219 -3.814697265625e-06 50.26969146728516 -3.814697265625e-06 Z" stroke="none" fill="#64a1d6"/>
    </g>
    <text id="_360" data-name="360" transform="translate(22.565 42.106)" fill="#236194" font-size="15" font-family="'\32 9LTBukra-Bold', '\32 9LT Bukra'" font-weight="700"><tspan x="0" y="0">360</tspan></text>
    <text id="o" transform="translate(24.565 30.106)" fill="#236194" font-size="9" font-family="'\32 9LTBukra-Bold', '\32 9LT Bukra'" font-weight="700"><tspan x="0" y="0">o</tspan></text>
  </g>
</svg>
